{"glyphs":{"0":{"ha":760,"x_min":95,"x_max":665,"o":"m 285 854 q 257 787 285 815 q 190 760 229 760 q 123 787 151 760 q 95 854 95 815 q 123 922 95 894 q 190 949 151 949 q 257 922 229 949 q 285 854 285 894 m 475 854 q 447 787 475 815 q 380 760 419 760 q 313 787 340 760 q 285 854 285 815 q 313 922 285 894 q 380 949 340 949 q 447 922 419 949 q 475 854 475 894 m 665 854 q 637 787 665 815 q 570 760 609 760 q 503 787 530 760 q 475 854 475 815 q 503 922 475 894 q 570 949 530 949 q 637 922 609 949 q 665 854 665 894 m 285 665 q 257 597 285 625 q 190 570 229 570 q 123 597 151 570 q 95 665 95 625 q 123 732 95 704 q 190 760 151 760 q 257 732 229 760 q 285 665 285 704 m 665 665 q 637 597 665 625 q 570 570 609 570 q 503 597 530 570 q 475 665 475 625 q 503 732 475 704 q 570 760 530 760 q 637 732 609 760 q 665 665 665 704 m 285 475 q 257 408 285 435 q 190 380 229 380 q 123 408 151 380 q 95 475 95 435 q 123 542 95 514 q 190 570 151 570 q 257 542 229 570 q 285 475 285 514 m 665 475 q 637 408 665 435 q 570 380 609 380 q 503 408 530 380 q 475 475 475 435 q 503 542 475 514 q 570 570 530 570 q 637 542 609 570 q 665 475 665 514 m 285 285 q 257 218 285 245 q 190 190 229 190 q 123 218 151 190 q 95 285 95 245 q 123 352 95 324 q 190 380 151 380 q 257 352 229 380 q 285 285 285 324 m 665 285 q 637 218 665 245 q 570 190 609 190 q 503 218 530 190 q 475 285 475 245 q 503 352 475 324 q 570 380 530 380 q 637 352 609 380 q 665 285 665 324 m 285 95 q 257 28 285 56 q 190 0 229 0 q 123 28 151 0 q 95 95 95 56 q 123 162 95 134 q 190 190 151 190 q 257 162 229 190 q 285 95 285 134 m 475 95 q 447 28 475 56 q 380 0 419 0 q 313 28 340 0 q 285 95 285 56 q 313 162 285 134 q 380 190 340 190 q 447 162 419 190 q 475 95 475 134 m 665 95 q 637 28 665 56 q 570 0 609 0 q 503 28 530 0 q 475 95 475 56 q 503 162 475 134 q 570 190 530 190 q 637 162 609 190 q 665 95 665 134 z "},"1":{"ha":760,"x_min":95,"x_max":665,"o":"m 475 854 q 447 787 475 815 q 380 760 419 760 q 313 787 340 760 q 285 854 285 815 q 313 922 285 894 q 380 949 340 949 q 447 922 419 949 q 475 854 475 894 m 285 665 q 257 597 285 625 q 190 570 229 570 q 123 597 151 570 q 95 665 95 625 q 123 732 95 704 q 190 760 151 760 q 257 732 229 760 q 285 665 285 704 m 475 665 q 447 597 475 625 q 380 570 419 570 q 313 597 340 570 q 285 665 285 625 q 313 732 285 704 q 380 760 340 760 q 447 732 419 760 q 475 665 475 704 m 475 475 q 447 408 475 435 q 380 380 419 380 q 313 408 340 380 q 285 475 285 435 q 313 542 285 514 q 380 570 340 570 q 447 542 419 570 q 475 475 475 514 m 475 285 q 447 218 475 245 q 380 190 419 190 q 313 218 340 190 q 285 285 285 245 q 313 352 285 324 q 380 380 340 380 q 447 352 419 380 q 475 285 475 324 m 285 95 q 257 28 285 56 q 190 0 229 0 q 123 28 151 0 q 95 95 95 56 q 123 162 95 134 q 190 190 151 190 q 257 162 229 190 q 285 95 285 134 m 475 95 q 447 28 475 56 q 380 0 419 0 q 313 28 340 0 q 285 95 285 56 q 313 162 285 134 q 380 190 340 190 q 447 162 419 190 q 475 95 475 134 m 665 95 q 637 28 665 56 q 570 0 609 0 q 503 28 530 0 q 475 95 475 56 q 503 162 475 134 q 570 190 530 190 q 637 162 609 190 q 665 95 665 134 z "},"2":{"ha":760,"x_min":95,"x_max":665,"o":"m 475 854 q 447 787 475 815 q 380 760 419 760 q 313 787 340 760 q 285 854 285 815 q 313 922 285 894 q 380 949 340 949 q 447 922 419 949 q 475 854 475 894 m 665 854 q 637 787 665 815 q 570 760 609 760 q 503 787 530 760 q 475 854 475 815 q 503 922 475 894 q 570 949 530 949 q 637 922 609 949 q 665 854 665 894 m 285 665 q 257 597 285 625 q 190 570 229 570 q 123 597 151 570 q 95 665 95 625 q 123 732 95 704 q 190 760 151 760 q 257 732 229 760 q 285 665 285 704 m 665 665 q 637 597 665 625 q 570 570 609 570 q 503 597 530 570 q 475 665 475 625 q 503 732 475 704 q 570 760 530 760 q 637 732 609 760 q 665 665 665 704 m 475 475 q 447 408 475 435 q 380 380 419 380 q 313 408 340 380 q 285 475 285 435 q 313 542 285 514 q 380 570 340 570 q 447 542 419 570 q 475 475 475 514 m 285 285 q 257 218 285 245 q 190 190 229 190 q 123 218 151 190 q 95 285 95 245 q 123 352 95 324 q 190 380 151 380 q 257 352 229 380 q 285 285 285 324 m 285 95 q 257 28 285 56 q 190 0 229 0 q 123 28 151 0 q 95 95 95 56 q 123 162 95 134 q 190 190 151 190 q 257 162 229 190 q 285 95 285 134 m 475 95 q 447 28 475 56 q 380 0 419 0 q 313 28 340 0 q 285 95 285 56 q 313 162 285 134 q 380 190 340 190 q 447 162 419 190 q 475 95 475 134 m 665 95 q 637 28 665 56 q 570 0 609 0 q 503 28 530 0 q 475 95 475 56 q 503 162 475 134 q 570 190 530 190 q 637 162 609 190 q 665 95 665 134 z "},"3":{"ha":760,"x_min":95,"x_max":665,"o":"m 285 854 q 257 787 285 815 q 190 760 229 760 q 123 787 151 760 q 95 854 95 815 q 123 922 95 894 q 190 949 151 949 q 257 922 229 949 q 285 854 285 894 m 475 854 q 447 787 475 815 q 380 760 419 760 q 313 787 340 760 q 285 854 285 815 q 313 922 285 894 q 380 949 340 949 q 447 922 419 949 q 475 854 475 894 m 665 665 q 637 597 665 625 q 570 570 609 570 q 503 597 530 570 q 475 665 475 625 q 503 732 475 704 q 570 760 530 760 q 637 732 609 760 q 665 665 665 704 m 285 475 q 257 408 285 435 q 190 380 229 380 q 123 408 151 380 q 95 475 95 435 q 123 542 95 514 q 190 570 151 570 q 257 542 229 570 q 285 475 285 514 m 475 475 q 447 408 475 435 q 380 380 419 380 q 313 408 340 380 q 285 475 285 435 q 313 542 285 514 q 380 570 340 570 q 447 542 419 570 q 475 475 475 514 m 665 475 q 637 408 665 435 q 570 380 609 380 q 503 408 530 380 q 475 475 475 435 q 503 542 475 514 q 570 570 530 570 q 637 542 609 570 q 665 475 665 514 m 665 285 q 637 218 665 245 q 570 190 609 190 q 503 218 530 190 q 475 285 475 245 q 503 352 475 324 q 570 380 530 380 q 637 352 609 380 q 665 285 665 324 m 285 95 q 257 28 285 56 q 190 0 229 0 q 123 28 151 0 q 95 95 95 56 q 123 162 95 134 q 190 190 151 190 q 257 162 229 190 q 285 95 285 134 m 475 95 q 447 28 475 56 q 380 0 419 0 q 313 28 340 0 q 285 95 285 56 q 313 162 285 134 q 380 190 340 190 q 447 162 419 190 q 475 95 475 134 z "},"4":{"ha":760,"x_min":95,"x_max":665,"o":"m 285 854 q 257 787 285 815 q 190 760 229 760 q 123 787 151 760 q 95 854 95 815 q 123 922 95 894 q 190 949 151 949 q 257 922 229 949 q 285 854 285 894 m 665 854 q 637 787 665 815 q 570 760 609 760 q 503 787 530 760 q 475 854 475 815 q 503 922 475 894 q 570 949 530 949 q 637 922 609 949 q 665 854 665 894 m 285 665 q 257 597 285 625 q 190 570 229 570 q 123 597 151 570 q 95 665 95 625 q 123 732 95 704 q 190 760 151 760 q 257 732 229 760 q 285 665 285 704 m 665 665 q 637 597 665 625 q 570 570 609 570 q 503 597 530 570 q 475 665 475 625 q 503 732 475 704 q 570 760 530 760 q 637 732 609 760 q 665 665 665 704 m 285 475 q 257 408 285 435 q 190 380 229 380 q 123 408 151 380 q 95 475 95 435 q 123 542 95 514 q 190 570 151 570 q 257 542 229 570 q 285 475 285 514 m 475 475 q 447 408 475 435 q 380 380 419 380 q 313 408 340 380 q 285 475 285 435 q 313 542 285 514 q 380 570 340 570 q 447 542 419 570 q 475 475 475 514 m 665 475 q 637 408 665 435 q 570 380 609 380 q 503 408 530 380 q 475 475 475 435 q 503 542 475 514 q 570 570 530 570 q 637 542 609 570 q 665 475 665 514 m 665 285 q 637 218 665 245 q 570 190 609 190 q 503 218 530 190 q 475 285 475 245 q 503 352 475 324 q 570 380 530 380 q 637 352 609 380 q 665 285 665 324 m 665 95 q 637 28 665 56 q 570 0 609 0 q 503 28 530 0 q 475 95 475 56 q 503 162 475 134 q 570 190 530 190 q 637 162 609 190 q 665 95 665 134 z "},"5":{"ha":760,"x_min":95,"x_max":665,"o":"m 285 854 q 257 787 285 815 q 190 760 229 760 q 123 787 151 760 q 95 854 95 815 q 123 922 95 894 q 190 949 151 949 q 257 922 229 949 q 285 854 285 894 m 475 854 q 447 787 475 815 q 380 760 419 760 q 313 787 340 760 q 285 854 285 815 q 313 922 285 894 q 380 949 340 949 q 447 922 419 949 q 475 854 475 894 m 665 854 q 637 787 665 815 q 570 760 609 760 q 503 787 530 760 q 475 854 475 815 q 503 922 475 894 q 570 949 530 949 q 637 922 609 949 q 665 854 665 894 m 285 665 q 257 597 285 625 q 190 570 229 570 q 123 597 151 570 q 95 665 95 625 q 123 732 95 704 q 190 760 151 760 q 257 732 229 760 q 285 665 285 704 m 285 475 q 257 408 285 435 q 190 380 229 380 q 123 408 151 380 q 95 475 95 435 q 123 542 95 514 q 190 570 151 570 q 257 542 229 570 q 285 475 285 514 m 475 475 q 447 408 475 435 q 380 380 419 380 q 313 408 340 380 q 285 475 285 435 q 313 542 285 514 q 380 570 340 570 q 447 542 419 570 q 475 475 475 514 m 665 475 q 637 408 665 435 q 570 380 609 380 q 503 408 530 380 q 475 475 475 435 q 503 542 475 514 q 570 570 530 570 q 637 542 609 570 q 665 475 665 514 m 665 285 q 637 218 665 245 q 570 190 609 190 q 503 218 530 190 q 475 285 475 245 q 503 352 475 324 q 570 380 530 380 q 637 352 609 380 q 665 285 665 324 m 285 95 q 257 28 285 56 q 190 0 229 0 q 123 28 151 0 q 95 95 95 56 q 123 162 95 134 q 190 190 151 190 q 257 162 229 190 q 285 95 285 134 m 475 95 q 447 28 475 56 q 380 0 419 0 q 313 28 340 0 q 285 95 285 56 q 313 162 285 134 q 380 190 340 190 q 447 162 419 190 q 475 95 475 134 z "},"6":{"ha":760,"x_min":95,"x_max":665,"o":"m 475 854 q 447 787 475 815 q 380 760 419 760 q 313 787 340 760 q 285 854 285 815 q 313 922 285 894 q 380 949 340 949 q 447 922 419 949 q 475 854 475 894 m 665 854 q 637 787 665 815 q 570 760 609 760 q 503 787 530 760 q 475 854 475 815 q 503 922 475 894 q 570 949 530 949 q 637 922 609 949 q 665 854 665 894 m 285 665 q 257 597 285 625 q 190 570 229 570 q 123 597 151 570 q 95 665 95 625 q 123 732 95 704 q 190 760 151 760 q 257 732 229 760 q 285 665 285 704 m 285 475 q 257 408 285 435 q 190 380 229 380 q 123 408 151 380 q 95 475 95 435 q 123 542 95 514 q 190 570 151 570 q 257 542 229 570 q 285 475 285 514 m 475 475 q 447 408 475 435 q 380 380 419 380 q 313 408 340 380 q 285 475 285 435 q 313 542 285 514 q 380 570 340 570 q 447 542 419 570 q 475 475 475 514 m 665 475 q 637 408 665 435 q 570 380 609 380 q 503 408 530 380 q 475 475 475 435 q 503 542 475 514 q 570 570 530 570 q 637 542 609 570 q 665 475 665 514 m 285 285 q 257 218 285 245 q 190 190 229 190 q 123 218 151 190 q 95 285 95 245 q 123 352 95 324 q 190 380 151 380 q 257 352 229 380 q 285 285 285 324 m 665 285 q 637 218 665 245 q 570 190 609 190 q 503 218 530 190 q 475 285 475 245 q 503 352 475 324 q 570 380 530 380 q 637 352 609 380 q 665 285 665 324 m 285 95 q 257 28 285 56 q 190 0 229 0 q 123 28 151 0 q 95 95 95 56 q 123 162 95 134 q 190 190 151 190 q 257 162 229 190 q 285 95 285 134 m 475 95 q 447 28 475 56 q 380 0 419 0 q 313 28 340 0 q 285 95 285 56 q 313 162 285 134 q 380 190 340 190 q 447 162 419 190 q 475 95 475 134 m 665 95 q 637 28 665 56 q 570 0 609 0 q 503 28 530 0 q 475 95 475 56 q 503 162 475 134 q 570 190 530 190 q 637 162 609 190 q 665 95 665 134 z "},"7":{"ha":760,"x_min":95,"x_max":665,"o":"m 285 854 q 257 787 285 815 q 190 760 229 760 q 123 787 151 760 q 95 854 95 815 q 123 922 95 894 q 190 949 151 949 q 257 922 229 949 q 285 854 285 894 m 475 854 q 447 787 475 815 q 380 760 419 760 q 313 787 340 760 q 285 854 285 815 q 313 922 285 894 q 380 949 340 949 q 447 922 419 949 q 475 854 475 894 m 665 854 q 637 787 665 815 q 570 760 609 760 q 503 787 530 760 q 475 854 475 815 q 503 922 475 894 q 570 949 530 949 q 637 922 609 949 q 665 854 665 894 m 665 665 q 637 597 665 625 q 570 570 609 570 q 503 597 530 570 q 475 665 475 625 q 503 732 475 704 q 570 760 530 760 q 637 732 609 760 q 665 665 665 704 m 475 475 q 447 408 475 435 q 380 380 419 380 q 313 408 340 380 q 285 475 285 435 q 313 542 285 514 q 380 570 340 570 q 447 542 419 570 q 475 475 475 514 m 475 285 q 447 218 475 245 q 380 190 419 190 q 313 218 340 190 q 285 285 285 245 q 313 352 285 324 q 380 380 340 380 q 447 352 419 380 q 475 285 475 324 m 475 95 q 447 28 475 56 q 380 0 419 0 q 313 28 340 0 q 285 95 285 56 q 313 162 285 134 q 380 190 340 190 q 447 162 419 190 q 475 95 475 134 z "},"8":{"ha":760,"x_min":95,"x_max":665,"o":"m 285 854 q 257 787 285 815 q 190 760 229 760 q 123 787 151 760 q 95 854 95 815 q 123 922 95 894 q 190 949 151 949 q 257 922 229 949 q 285 854 285 894 m 475 854 q 447 787 475 815 q 380 760 419 760 q 313 787 340 760 q 285 854 285 815 q 313 922 285 894 q 380 949 340 949 q 447 922 419 949 q 475 854 475 894 m 665 854 q 637 787 665 815 q 570 760 609 760 q 503 787 530 760 q 475 854 475 815 q 503 922 475 894 q 570 949 530 949 q 637 922 609 949 q 665 854 665 894 m 285 665 q 257 597 285 625 q 190 570 229 570 q 123 597 151 570 q 95 665 95 625 q 123 732 95 704 q 190 760 151 760 q 257 732 229 760 q 285 665 285 704 m 665 665 q 637 597 665 625 q 570 570 609 570 q 503 597 530 570 q 475 665 475 625 q 503 732 475 704 q 570 760 530 760 q 637 732 609 760 q 665 665 665 704 m 475 475 q 447 408 475 435 q 380 380 419 380 q 313 408 340 380 q 285 475 285 435 q 313 542 285 514 q 380 570 340 570 q 447 542 419 570 q 475 475 475 514 m 285 285 q 257 218 285 245 q 190 190 229 190 q 123 218 151 190 q 95 285 95 245 q 123 352 95 324 q 190 380 151 380 q 257 352 229 380 q 285 285 285 324 m 665 285 q 637 218 665 245 q 570 190 609 190 q 503 218 530 190 q 475 285 475 245 q 503 352 475 324 q 570 380 530 380 q 637 352 609 380 q 665 285 665 324 m 285 95 q 257 28 285 56 q 190 0 229 0 q 123 28 151 0 q 95 95 95 56 q 123 162 95 134 q 190 190 151 190 q 257 162 229 190 q 285 95 285 134 m 475 95 q 447 28 475 56 q 380 0 419 0 q 313 28 340 0 q 285 95 285 56 q 313 162 285 134 q 380 190 340 190 q 447 162 419 190 q 475 95 475 134 m 665 95 q 637 28 665 56 q 570 0 609 0 q 503 28 530 0 q 475 95 475 56 q 503 162 475 134 q 570 190 530 190 q 637 162 609 190 q 665 95 665 134 z "},"9":{"ha":760,"x_min":95,"x_max":665,"o":"m 285 854 q 257 787 285 815 q 190 760 229 760 q 123 787 151 760 q 95 854 95 815 q 123 922 95 894 q 190 949 151 949 q 257 922 229 949 q 285 854 285 894 m 475 854 q 447 787 475 815 q 380 760 419 760 q 313 787 340 760 q 285 854 285 815 q 313 922 285 894 q 380 949 340 949 q 447 922 419 949 q 475 854 475 894 m 665 854 q 637 787 665 815 q 570 760 609 760 q 503 787 530 760 q 475 854 475 815 q 503 922 475 894 q 570 949 530 949 q 637 922 609 949 q 665 854 665 894 m 285 665 q 257 597 285 625 q 190 570 229 570 q 123 597 151 570 q 95 665 95 625 q 123 732 95 704 q 190 760 151 760 q 257 732 229 760 q 285 665 285 704 m 665 665 q 637 597 665 625 q 570 570 609 570 q 503 597 530 570 q 475 665 475 625 q 503 732 475 704 q 570 760 530 760 q 637 732 609 760 q 665 665 665 704 m 285 475 q 257 408 285 435 q 190 380 229 380 q 123 408 151 380 q 95 475 95 435 q 123 542 95 514 q 190 570 151 570 q 257 542 229 570 q 285 475 285 514 m 475 475 q 447 408 475 435 q 380 380 419 380 q 313 408 340 380 q 285 475 285 435 q 313 542 285 514 q 380 570 340 570 q 447 542 419 570 q 475 475 475 514 m 665 475 q 637 408 665 435 q 570 380 609 380 q 503 408 530 380 q 475 475 475 435 q 503 542 475 514 q 570 570 530 570 q 637 542 609 570 q 665 475 665 514 m 665 285 q 637 218 665 245 q 570 190 609 190 q 503 218 530 190 q 475 285 475 245 q 503 352 475 324 q 570 380 530 380 q 637 352 609 380 q 665 285 665 324 m 285 95 q 257 28 285 56 q 190 0 229 0 q 123 28 151 0 q 95 95 95 56 q 123 162 95 134 q 190 190 151 190 q 257 162 229 190 q 285 95 285 134 m 475 95 q 447 28 475 56 q 380 0 419 0 q 313 28 340 0 q 285 95 285 56 q 313 162 285 134 q 380 190 340 190 q 447 162 419 190 q 475 95 475 134 z "},"\u0000":{"ha":760,"x_min":95,"x_max":665,"o":"m 190 760 q 123 787 151 760 q 95 854 95 815 q 123 922 95 894 q 190 949 151 949 q 257 922 229 949 q 285 854 285 894 q 257 787 285 815 q 190 760 229 760 m 380 760 q 313 787 340 760 q 285 854 285 815 q 313 922 285 894 q 380 949 340 949 q 447 922 419 949 q 475 854 475 894 q 447 787 475 815 q 380 760 419 760 m 570 760 q 503 787 530 760 q 475 854 475 815 q 503 922 475 894 q 570 949 530 949 q 637 922 609 949 q 665 854 665 894 q 637 787 665 815 q 570 760 609 760 m 190 570 q 123 597 151 570 q 95 665 95 625 q 123 732 95 704 q 190 760 151 760 q 257 732 229 760 q 285 665 285 704 q 257 597 285 625 q 190 570 229 570 m 380 570 q 313 597 340 570 q 285 665 285 625 q 313 732 285 704 q 380 760 340 760 q 447 732 419 760 q 475 665 475 704 q 447 597 475 625 q 380 570 419 570 m 570 570 q 503 597 530 570 q 475 665 475 625 q 503 732 475 704 q 570 760 530 760 q 637 732 609 760 q 665 665 665 704 q 637 597 665 625 q 570 570 609 570 m 190 380 q 123 408 151 380 q 95 475 95 435 q 123 542 95 514 q 190 570 151 570 q 257 542 229 570 q 285 475 285 514 q 257 408 285 435 q 190 380 229 380 m 380 380 q 313 408 340 380 q 285 475 285 435 q 313 542 285 514 q 380 570 340 570 q 447 542 419 570 q 475 475 475 514 q 447 408 475 435 q 380 380 419 380 m 570 380 q 503 408 530 380 q 475 475 475 435 q 503 542 475 514 q 570 570 530 570 q 637 542 609 570 q 665 475 665 514 q 637 408 665 435 q 570 380 609 380 m 190 190 q 123 218 151 190 q 95 285 95 245 q 123 352 95 324 q 190 380 151 380 q 257 352 229 380 q 285 285 285 324 q 257 218 285 245 q 190 190 229 190 m 380 190 q 313 218 340 190 q 285 285 285 245 q 313 352 285 324 q 380 380 340 380 q 447 352 419 380 q 475 285 475 324 q 447 218 475 245 q 380 190 419 190 m 570 190 q 503 218 530 190 q 475 285 475 245 q 503 352 475 324 q 570 380 530 380 q 637 352 609 380 q 665 285 665 324 q 637 218 665 245 q 570 190 609 190 m 190 0 q 123 28 151 0 q 95 95 95 56 q 123 162 95 134 q 190 190 151 190 q 257 162 229 190 q 285 95 285 134 q 257 28 285 56 q 190 0 229 0 m 380 0 q 313 28 340 0 q 285 95 285 56 q 313 162 285 134 q 380 190 340 190 q 447 162 419 190 q 475 95 475 134 q 447 28 475 56 q 380 0 419 0 m 570 0 q 503 28 530 0 q 475 95 475 56 q 503 162 475 134 q 570 190 530 190 q 637 162 609 190 q 665 95 665 134 q 637 28 665 56 q 570 0 609 0 z "},"\u001d":{"ha":760,"x_min":95,"x_max":665,"o":"m 190 760 q 123 787 151 760 q 95 854 95 815 q 123 922 95 894 q 190 949 151 949 q 257 922 229 949 q 285 854 285 894 q 257 787 285 815 q 190 760 229 760 m 380 760 q 313 787 340 760 q 285 854 285 815 q 313 922 285 894 q 380 949 340 949 q 447 922 419 949 q 475 854 475 894 q 447 787 475 815 q 380 760 419 760 m 570 760 q 503 787 530 760 q 475 854 475 815 q 503 922 475 894 q 570 949 530 949 q 637 922 609 949 q 665 854 665 894 q 637 787 665 815 q 570 760 609 760 m 190 570 q 123 597 151 570 q 95 665 95 625 q 123 732 95 704 q 190 760 151 760 q 257 732 229 760 q 285 665 285 704 q 257 597 285 625 q 190 570 229 570 m 380 570 q 313 597 340 570 q 285 665 285 625 q 313 732 285 704 q 380 760 340 760 q 447 732 419 760 q 475 665 475 704 q 447 597 475 625 q 380 570 419 570 m 570 570 q 503 597 530 570 q 475 665 475 625 q 503 732 475 704 q 570 760 530 760 q 637 732 609 760 q 665 665 665 704 q 637 597 665 625 q 570 570 609 570 m 190 380 q 123 408 151 380 q 95 475 95 435 q 123 542 95 514 q 190 570 151 570 q 257 542 229 570 q 285 475 285 514 q 257 408 285 435 q 190 380 229 380 m 380 380 q 313 408 340 380 q 285 475 285 435 q 313 542 285 514 q 380 570 340 570 q 447 542 419 570 q 475 475 475 514 q 447 408 475 435 q 380 380 419 380 m 570 380 q 503 408 530 380 q 475 475 475 435 q 503 542 475 514 q 570 570 530 570 q 637 542 609 570 q 665 475 665 514 q 637 408 665 435 q 570 380 609 380 m 190 190 q 123 218 151 190 q 95 285 95 245 q 123 352 95 324 q 190 380 151 380 q 257 352 229 380 q 285 285 285 324 q 257 218 285 245 q 190 190 229 190 m 380 190 q 313 218 340 190 q 285 285 285 245 q 313 352 285 324 q 380 380 340 380 q 447 352 419 380 q 475 285 475 324 q 447 218 475 245 q 380 190 419 190 m 570 190 q 503 218 530 190 q 475 285 475 245 q 503 352 475 324 q 570 380 530 380 q 637 352 609 380 q 665 285 665 324 q 637 218 665 245 q 570 190 609 190 m 190 0 q 123 28 151 0 q 95 95 95 56 q 123 162 95 134 q 190 190 151 190 q 257 162 229 190 q 285 95 285 134 q 257 28 285 56 q 190 0 229 0 m 380 0 q 313 28 340 0 q 285 95 285 56 q 313 162 285 134 q 380 190 340 190 q 447 162 419 190 q 475 95 475 134 q 447 28 475 56 q 380 0 419 0 m 570 0 q 503 28 530 0 q 475 95 475 56 q 503 162 475 134 q 570 190 530 190 q 637 162 609 190 q 665 95 665 134 q 637 28 665 56 q 570 0 609 0 z "}," ":{"ha":760,"x_min":0,"x_max":0,"o":""}," ":{"ha":760,"x_min":0,"x_max":0,"o":""},"!":{"ha":760,"x_min":285,"x_max":475,"o":"m 380 760 q 313 787 340 760 q 285 854 285 815 q 313 922 285 894 q 380 949 340 949 q 447 922 419 949 q 475 854 475 894 q 447 787 475 815 q 380 760 419 760 m 380 570 q 313 597 340 570 q 285 665 285 625 q 313 732 285 704 q 380 760 340 760 q 447 732 419 760 q 475 665 475 704 q 447 597 475 625 q 380 570 419 570 m 380 380 q 313 408 340 380 q 285 475 285 435 q 313 542 285 514 q 380 570 340 570 q 447 542 419 570 q 475 475 475 514 q 447 408 475 435 q 380 380 419 380 m 380 0 q 313 28 340 0 q 285 95 285 56 q 313 162 285 134 q 380 190 340 190 q 447 162 419 190 q 475 95 475 134 q 447 28 475 56 q 380 0 419 0 z "},"\"":{"ha":760,"x_min":95,"x_max":665,"o":"m 190 760 q 123 787 151 760 q 95 854 95 815 q 123 922 95 894 q 190 949 151 949 q 257 922 229 949 q 285 854 285 894 q 257 787 285 815 q 190 760 229 760 m 570 760 q 503 787 530 760 q 475 854 475 815 q 503 922 475 894 q 570 949 530 949 q 637 922 609 949 q 665 854 665 894 q 637 787 665 815 q 570 760 609 760 m 190 570 q 123 597 151 570 q 95 665 95 625 q 123 732 95 704 q 190 760 151 760 q 257 732 229 760 q 285 665 285 704 q 257 597 285 625 q 190 570 229 570 m 570 570 q 503 597 530 570 q 475 665 475 625 q 503 732 475 704 q 570 760 530 760 q 637 732 609 760 q 665 665 665 704 q 637 597 665 625 q 570 570 609 570 z "},"#":{"ha":760,"x_min":95,"x_max":665,"o":"m 285 854 q 257 787 285 815 q 190 760 229 760 q 123 787 151 760 q 95 854 95 815 q 123 922 95 894 q 190 949 151 949 q 257 922 229 949 q 285 854 285 894 m 665 854 q 637 787 665 815 q 570 760 609 760 q 503 787 530 760 q 475 854 475 815 q 503 922 475 894 q 570 949 530 949 q 637 922 609 949 q 665 854 665 894 m 285 665 q 257 597 285 625 q 190 570 229 570 q 123 597 151 570 q 95 665 95 625 q 123 732 95 704 q 190 760 151 760 q 257 732 229 760 q 285 665 285 704 m 475 665 q 447 597 475 625 q 380 570 419 570 q 313 597 340 570 q 285 665 285 625 q 313 732 285 704 q 380 760 340 760 q 447 732 419 760 q 475 665 475 704 m 665 665 q 637 597 665 625 q 570 570 609 570 q 503 597 530 570 q 475 665 475 625 q 503 732 475 704 q 570 760 530 760 q 637 732 609 760 q 665 665 665 704 m 285 475 q 257 408 285 435 q 190 380 229 380 q 123 408 151 380 q 95 475 95 435 q 123 542 95 514 q 190 570 151 570 q 257 542 229 570 q 285 475 285 514 m 665 475 q 637 408 665 435 q 570 380 609 380 q 503 408 530 380 q 475 475 475 435 q 503 542 475 514 q 570 570 530 570 q 637 542 609 570 q 665 475 665 514 m 285 285 q 257 218 285 245 q 190 190 229 190 q 123 218 151 190 q 95 285 95 245 q 123 352 95 324 q 190 380 151 380 q 257 352 229 380 q 285 285 285 324 m 475 285 q 447 218 475 245 q 380 190 419 190 q 313 218 340 190 q 285 285 285 245 q 313 352 285 324 q 380 380 340 380 q 447 352 419 380 q 475 285 475 324 m 665 285 q 637 218 665 245 q 570 190 609 190 q 503 218 530 190 q 475 285 475 245 q 503 352 475 324 q 570 380 530 380 q 637 352 609 380 q 665 285 665 324 m 285 95 q 257 28 285 56 q 190 0 229 0 q 123 28 151 0 q 95 95 95 56 q 123 162 95 134 q 190 190 151 190 q 257 162 229 190 q 285 95 285 134 m 665 95 q 637 28 665 56 q 570 0 609 0 q 503 28 530 0 q 475 95 475 56 q 503 162 475 134 q 570 190 530 190 q 637 162 609 190 q 665 95 665 134 z "},"%":{"ha":760,"x_min":95,"x_max":665,"o":"m 285 854 q 257 787 285 815 q 190 760 229 760 q 123 787 151 760 q 95 854 95 815 q 123 922 95 894 q 190 949 151 949 q 257 922 229 949 q 285 854 285 894 m 665 854 q 637 787 665 815 q 570 760 609 760 q 503 787 530 760 q 475 854 475 815 q 503 922 475 894 q 570 949 530 949 q 637 922 609 949 q 665 854 665 894 m 665 665 q 637 597 665 625 q 570 570 609 570 q 503 597 530 570 q 475 665 475 625 q 503 732 475 704 q 570 760 530 760 q 637 732 609 760 q 665 665 665 704 m 475 475 q 447 408 475 435 q 380 380 419 380 q 313 408 340 380 q 285 475 285 435 q 313 542 285 514 q 380 570 340 570 q 447 542 419 570 q 475 475 475 514 m 285 285 q 257 218 285 245 q 190 190 229 190 q 123 218 151 190 q 95 285 95 245 q 123 352 95 324 q 190 380 151 380 q 257 352 229 380 q 285 285 285 324 m 285 95 q 257 28 285 56 q 190 0 229 0 q 123 28 151 0 q 95 95 95 56 q 123 162 95 134 q 190 190 151 190 q 257 162 229 190 q 285 95 285 134 m 665 95 q 637 28 665 56 q 570 0 609 0 q 503 28 530 0 q 475 95 475 56 q 503 162 475 134 q 570 190 530 190 q 637 162 609 190 q 665 95 665 134 z "},"'":{"ha":760,"x_min":285,"x_max":475,"o":"m 475 854 q 447 787 475 815 q 380 760 419 760 q 313 787 340 760 q 285 854 285 815 q 313 922 285 894 q 380 949 340 949 q 447 922 419 949 q 475 854 475 894 m 475 665 q 447 597 475 625 q 380 570 419 570 q 313 597 340 570 q 285 665 285 625 q 313 732 285 704 q 380 760 340 760 q 447 732 419 760 q 475 665 475 704 z "},"(":{"ha":760,"x_min":95,"x_max":475,"o":"m 475 854 q 447 787 475 815 q 380 760 419 760 q 313 787 340 760 q 285 854 285 815 q 313 922 285 894 q 380 949 340 949 q 447 922 419 949 q 475 854 475 894 m 285 665 q 257 597 285 625 q 190 570 229 570 q 123 597 151 570 q 95 665 95 625 q 123 732 95 704 q 190 760 151 760 q 257 732 229 760 q 285 665 285 704 m 285 475 q 257 408 285 435 q 190 380 229 380 q 123 408 151 380 q 95 475 95 435 q 123 542 95 514 q 190 570 151 570 q 257 542 229 570 q 285 475 285 514 m 285 285 q 257 218 285 245 q 190 190 229 190 q 123 218 151 190 q 95 285 95 245 q 123 352 95 324 q 190 380 151 380 q 257 352 229 380 q 285 285 285 324 m 475 95 q 447 28 475 56 q 380 0 419 0 q 313 28 340 0 q 285 95 285 56 q 313 162 285 134 q 380 190 340 190 q 447 162 419 190 q 475 95 475 134 z "},")":{"ha":760,"x_min":285,"x_max":665,"o":"m 475 854 q 447 787 475 815 q 380 760 419 760 q 313 787 340 760 q 285 854 285 815 q 313 922 285 894 q 380 949 340 949 q 447 922 419 949 q 475 854 475 894 m 665 665 q 637 597 665 625 q 570 570 609 570 q 503 597 530 570 q 475 665 475 625 q 503 732 475 704 q 570 760 530 760 q 637 732 609 760 q 665 665 665 704 m 665 475 q 637 408 665 435 q 570 380 609 380 q 503 408 530 380 q 475 475 475 435 q 503 542 475 514 q 570 570 530 570 q 637 542 609 570 q 665 475 665 514 m 665 285 q 637 218 665 245 q 570 190 609 190 q 503 218 530 190 q 475 285 475 245 q 503 352 475 324 q 570 380 530 380 q 637 352 609 380 q 665 285 665 324 m 475 95 q 447 28 475 56 q 380 0 419 0 q 313 28 340 0 q 285 95 285 56 q 313 162 285 134 q 380 190 340 190 q 447 162 419 190 q 475 95 475 134 z "},"*":{"ha":760,"x_min":95,"x_max":665,"o":"m 475 854 q 447 787 475 815 q 380 760 419 760 q 313 787 340 760 q 285 854 285 815 q 313 922 285 894 q 380 949 340 949 q 447 922 419 949 q 475 854 475 894 m 285 665 q 257 597 285 625 q 190 570 229 570 q 123 597 151 570 q 95 665 95 625 q 123 732 95 704 q 190 760 151 760 q 257 732 229 760 q 285 665 285 704 m 665 665 q 637 597 665 625 q 570 570 609 570 q 503 597 530 570 q 475 665 475 625 q 503 732 475 704 q 570 760 530 760 q 637 732 609 760 q 665 665 665 704 m 475 475 q 447 408 475 435 q 380 380 419 380 q 313 408 340 380 q 285 475 285 435 q 313 542 285 514 q 380 570 340 570 q 447 542 419 570 q 475 475 475 514 z "},"+":{"ha":760,"x_min":95,"x_max":665,"o":"m 475 665 q 447 597 475 625 q 380 570 419 570 q 313 597 340 570 q 285 665 285 625 q 313 732 285 704 q 380 760 340 760 q 447 732 419 760 q 475 665 475 704 m 285 475 q 257 408 285 435 q 190 380 229 380 q 123 408 151 380 q 95 475 95 435 q 123 542 95 514 q 190 570 151 570 q 257 542 229 570 q 285 475 285 514 m 475 475 q 447 408 475 435 q 380 380 419 380 q 313 408 340 380 q 285 475 285 435 q 313 542 285 514 q 380 570 340 570 q 447 542 419 570 q 475 475 475 514 m 665 475 q 637 408 665 435 q 570 380 609 380 q 503 408 530 380 q 475 475 475 435 q 503 542 475 514 q 570 570 530 570 q 637 542 609 570 q 665 475 665 514 m 475 285 q 447 218 475 245 q 380 190 419 190 q 313 218 340 190 q 285 285 285 245 q 313 352 285 324 q 380 380 340 380 q 447 352 419 380 q 475 285 475 324 z "},",":{"ha":760,"x_min":285,"x_max":475,"o":"m 475 285 q 447 218 475 245 q 380 190 419 190 q 313 218 340 190 q 285 285 285 245 q 313 352 285 324 q 380 380 340 380 q 447 352 419 380 q 475 285 475 324 m 475 95 q 447 28 475 56 q 380 0 419 0 q 313 28 340 0 q 285 95 285 56 q 313 162 285 134 q 380 190 340 190 q 447 162 419 190 q 475 95 475 134 z "},"-":{"ha":760,"x_min":95,"x_max":665,"o":"m 285 475 q 257 408 285 435 q 190 380 229 380 q 123 408 151 380 q 95 475 95 435 q 123 542 95 514 q 190 570 151 570 q 257 542 229 570 q 285 475 285 514 m 475 475 q 447 408 475 435 q 380 380 419 380 q 313 408 340 380 q 285 475 285 435 q 313 542 285 514 q 380 570 340 570 q 447 542 419 570 q 475 475 475 514 m 665 475 q 637 408 665 435 q 570 380 609 380 q 503 408 530 380 q 475 475 475 435 q 503 542 475 514 q 570 570 530 570 q 637 542 609 570 q 665 475 665 514 z "},"­":{"ha":760,"x_min":95,"x_max":665,"o":"m 285 475 q 257 408 285 435 q 190 380 229 380 q 123 408 151 380 q 95 475 95 435 q 123 542 95 514 q 190 570 151 570 q 257 542 229 570 q 285 475 285 514 m 475 475 q 447 408 475 435 q 380 380 419 380 q 313 408 340 380 q 285 475 285 435 q 313 542 285 514 q 380 570 340 570 q 447 542 419 570 q 475 475 475 514 m 665 475 q 637 408 665 435 q 570 380 609 380 q 503 408 530 380 q 475 475 475 435 q 503 542 475 514 q 570 570 530 570 q 637 542 609 570 q 665 475 665 514 z "},".":{"ha":760,"x_min":285,"x_max":475,"o":"m 475 95 q 447 28 475 56 q 380 0 419 0 q 313 28 340 0 q 285 95 285 56 q 313 162 285 134 q 380 190 340 190 q 447 162 419 190 q 475 95 475 134 z "},"/":{"ha":760,"x_min":95,"x_max":665,"o":"m 665 854 q 637 787 665 815 q 570 760 609 760 q 503 787 530 760 q 475 854 475 815 q 503 922 475 894 q 570 949 530 949 q 637 922 609 949 q 665 854 665 894 m 665 665 q 637 597 665 625 q 570 570 609 570 q 503 597 530 570 q 475 665 475 625 q 503 732 475 704 q 570 760 530 760 q 637 732 609 760 q 665 665 665 704 m 475 475 q 447 408 475 435 q 380 380 419 380 q 313 408 340 380 q 285 475 285 435 q 313 542 285 514 q 380 570 340 570 q 447 542 419 570 q 475 475 475 514 m 285 285 q 257 218 285 245 q 190 190 229 190 q 123 218 151 190 q 95 285 95 245 q 123 352 95 324 q 190 380 151 380 q 257 352 229 380 q 285 285 285 324 m 285 95 q 257 28 285 56 q 190 0 229 0 q 123 28 151 0 q 95 95 95 56 q 123 162 95 134 q 190 190 151 190 q 257 162 229 190 q 285 95 285 134 z "},":":{"ha":760,"x_min":285,"x_max":475,"o":"m 475 665 q 447 597 475 625 q 380 570 419 570 q 313 597 340 570 q 285 665 285 625 q 313 732 285 704 q 380 760 340 760 q 447 732 419 760 q 475 665 475 704 m 475 285 q 447 218 475 245 q 380 190 419 190 q 313 218 340 190 q 285 285 285 245 q 313 352 285 324 q 380 380 340 380 q 447 352 419 380 q 475 285 475 324 z "},";":{"ha":760,"x_min":285,"x_max":475,"o":"m 475 665 q 447 597 475 625 q 380 570 419 570 q 313 597 340 570 q 285 665 285 625 q 313 732 285 704 q 380 760 340 760 q 447 732 419 760 q 475 665 475 704 m 475 285 q 447 218 475 245 q 380 190 419 190 q 313 218 340 190 q 285 285 285 245 q 313 352 285 324 q 380 380 340 380 q 447 352 419 380 q 475 285 475 324 m 475 95 q 447 28 475 56 q 380 0 419 0 q 313 28 340 0 q 285 95 285 56 q 313 162 285 134 q 380 190 340 190 q 447 162 419 190 q 475 95 475 134 z "},"<":{"ha":760,"x_min":95,"x_max":665,"o":"m 665 854 q 637 787 665 815 q 570 760 609 760 q 503 787 530 760 q 475 854 475 815 q 503 922 475 894 q 570 949 530 949 q 637 922 609 949 q 665 854 665 894 m 475 665 q 447 597 475 625 q 380 570 419 570 q 313 597 340 570 q 285 665 285 625 q 313 732 285 704 q 380 760 340 760 q 447 732 419 760 q 475 665 475 704 m 285 475 q 257 408 285 435 q 190 380 229 380 q 123 408 151 380 q 95 475 95 435 q 123 542 95 514 q 190 570 151 570 q 257 542 229 570 q 285 475 285 514 m 475 285 q 447 218 475 245 q 380 190 419 190 q 313 218 340 190 q 285 285 285 245 q 313 352 285 324 q 380 380 340 380 q 447 352 419 380 q 475 285 475 324 m 665 95 q 637 28 665 56 q 570 0 609 0 q 503 28 530 0 q 475 95 475 56 q 503 162 475 134 q 570 190 530 190 q 637 162 609 190 q 665 95 665 134 z "},"=":{"ha":760,"x_min":95,"x_max":665,"o":"m 285 665 q 257 597 285 625 q 190 570 229 570 q 123 597 151 570 q 95 665 95 625 q 123 732 95 704 q 190 760 151 760 q 257 732 229 760 q 285 665 285 704 m 475 665 q 447 597 475 625 q 380 570 419 570 q 313 597 340 570 q 285 665 285 625 q 313 732 285 704 q 380 760 340 760 q 447 732 419 760 q 475 665 475 704 m 665 665 q 637 597 665 625 q 570 570 609 570 q 503 597 530 570 q 475 665 475 625 q 503 732 475 704 q 570 760 530 760 q 637 732 609 760 q 665 665 665 704 m 285 285 q 257 218 285 245 q 190 190 229 190 q 123 218 151 190 q 95 285 95 245 q 123 352 95 324 q 190 380 151 380 q 257 352 229 380 q 285 285 285 324 m 475 285 q 447 218 475 245 q 380 190 419 190 q 313 218 340 190 q 285 285 285 245 q 313 352 285 324 q 380 380 340 380 q 447 352 419 380 q 475 285 475 324 m 665 285 q 637 218 665 245 q 570 190 609 190 q 503 218 530 190 q 475 285 475 245 q 503 352 475 324 q 570 380 530 380 q 637 352 609 380 q 665 285 665 324 z "},">":{"ha":760,"x_min":95,"x_max":665,"o":"m 95 854 q 123 922 95 894 q 190 949 151 949 q 257 922 229 949 q 285 854 285 894 q 257 787 285 815 q 190 760 229 760 q 123 787 151 760 q 95 854 95 815 m 285 665 q 313 732 285 704 q 380 760 340 760 q 447 732 419 760 q 475 665 475 704 q 447 597 475 625 q 380 570 419 570 q 313 597 340 570 q 285 665 285 625 m 475 475 q 503 542 475 514 q 570 570 530 570 q 637 542 609 570 q 665 475 665 514 q 637 408 665 435 q 570 380 609 380 q 503 408 530 380 q 475 475 475 435 m 285 285 q 313 352 285 324 q 380 380 340 380 q 447 352 419 380 q 475 285 475 324 q 447 218 475 245 q 380 190 419 190 q 313 218 340 190 q 285 285 285 245 m 95 95 q 123 162 95 134 q 190 190 151 190 q 257 162 229 190 q 285 95 285 134 q 257 28 285 56 q 190 0 229 0 q 123 28 151 0 q 95 95 95 56 z "},"?":{"ha":760,"x_min":95,"x_max":665,"o":"m 285 854 q 257 787 285 815 q 190 760 229 760 q 123 787 151 760 q 95 854 95 815 q 123 922 95 894 q 190 949 151 949 q 257 922 229 949 q 285 854 285 894 m 475 854 q 447 787 475 815 q 380 760 419 760 q 313 787 340 760 q 285 854 285 815 q 313 922 285 894 q 380 949 340 949 q 447 922 419 949 q 475 854 475 894 m 665 854 q 637 787 665 815 q 570 760 609 760 q 503 787 530 760 q 475 854 475 815 q 503 922 475 894 q 570 949 530 949 q 637 922 609 949 q 665 854 665 894 m 665 665 q 637 597 665 625 q 570 570 609 570 q 503 597 530 570 q 475 665 475 625 q 503 732 475 704 q 570 760 530 760 q 637 732 609 760 q 665 665 665 704 m 475 475 q 447 408 475 435 q 380 380 419 380 q 313 408 340 380 q 285 475 285 435 q 313 542 285 514 q 380 570 340 570 q 447 542 419 570 q 475 475 475 514 m 475 95 q 447 28 475 56 q 380 0 419 0 q 313 28 340 0 q 285 95 285 56 q 313 162 285 134 q 380 190 340 190 q 447 162 419 190 q 475 95 475 134 z "},"@":{"ha":760,"x_min":95,"x_max":665,"o":"m 285 854 q 257 787 285 815 q 190 760 229 760 q 123 787 151 760 q 95 854 95 815 q 123 922 95 894 q 190 949 151 949 q 257 922 229 949 q 285 854 285 894 m 475 854 q 447 787 475 815 q 380 760 419 760 q 313 787 340 760 q 285 854 285 815 q 313 922 285 894 q 380 949 340 949 q 447 922 419 949 q 475 854 475 894 m 665 854 q 637 787 665 815 q 570 760 609 760 q 503 787 530 760 q 475 854 475 815 q 503 922 475 894 q 570 949 530 949 q 637 922 609 949 q 665 854 665 894 m 285 665 q 257 597 285 625 q 190 570 229 570 q 123 597 151 570 q 95 665 95 625 q 123 732 95 704 q 190 760 151 760 q 257 732 229 760 q 285 665 285 704 m 665 665 q 637 597 665 625 q 570 570 609 570 q 503 597 530 570 q 475 665 475 625 q 503 732 475 704 q 570 760 530 760 q 637 732 609 760 q 665 665 665 704 m 285 475 q 257 408 285 435 q 190 380 229 380 q 123 408 151 380 q 95 475 95 435 q 123 542 95 514 q 190 570 151 570 q 257 542 229 570 q 285 475 285 514 m 665 475 q 637 408 665 435 q 570 380 609 380 q 503 408 530 380 q 475 475 475 435 q 503 542 475 514 q 570 570 530 570 q 637 542 609 570 q 665 475 665 514 m 285 285 q 257 218 285 245 q 190 190 229 190 q 123 218 151 190 q 95 285 95 245 q 123 352 95 324 q 190 380 151 380 q 257 352 229 380 q 285 285 285 324 m 285 95 q 257 28 285 56 q 190 0 229 0 q 123 28 151 0 q 95 95 95 56 q 123 162 95 134 q 190 190 151 190 q 257 162 229 190 q 285 95 285 134 m 475 95 q 447 28 475 56 q 380 0 419 0 q 313 28 340 0 q 285 95 285 56 q 313 162 285 134 q 380 190 340 190 q 447 162 419 190 q 475 95 475 134 m 665 95 q 637 28 665 56 q 570 0 609 0 q 503 28 530 0 q 475 95 475 56 q 503 162 475 134 q 570 190 530 190 q 637 162 609 190 q 665 95 665 134 z "},"A":{"ha":760,"x_min":95,"x_max":665,"o":"m 475 854 q 447 787 475 815 q 380 760 419 760 q 313 787 340 760 q 285 854 285 815 q 313 922 285 894 q 380 949 340 949 q 447 922 419 949 q 475 854 475 894 m 285 665 q 257 597 285 625 q 190 570 229 570 q 123 597 151 570 q 95 665 95 625 q 123 732 95 704 q 190 760 151 760 q 257 732 229 760 q 285 665 285 704 m 665 665 q 637 597 665 625 q 570 570 609 570 q 503 597 530 570 q 475 665 475 625 q 503 732 475 704 q 570 760 530 760 q 637 732 609 760 q 665 665 665 704 m 285 475 q 257 408 285 435 q 190 380 229 380 q 123 408 151 380 q 95 475 95 435 q 123 542 95 514 q 190 570 151 570 q 257 542 229 570 q 285 475 285 514 m 475 475 q 447 408 475 435 q 380 380 419 380 q 313 408 340 380 q 285 475 285 435 q 313 542 285 514 q 380 570 340 570 q 447 542 419 570 q 475 475 475 514 m 665 475 q 637 408 665 435 q 570 380 609 380 q 503 408 530 380 q 475 475 475 435 q 503 542 475 514 q 570 570 530 570 q 637 542 609 570 q 665 475 665 514 m 285 285 q 257 218 285 245 q 190 190 229 190 q 123 218 151 190 q 95 285 95 245 q 123 352 95 324 q 190 380 151 380 q 257 352 229 380 q 285 285 285 324 m 665 285 q 637 218 665 245 q 570 190 609 190 q 503 218 530 190 q 475 285 475 245 q 503 352 475 324 q 570 380 530 380 q 637 352 609 380 q 665 285 665 324 m 285 95 q 257 28 285 56 q 190 0 229 0 q 123 28 151 0 q 95 95 95 56 q 123 162 95 134 q 190 190 151 190 q 257 162 229 190 q 285 95 285 134 m 665 95 q 637 28 665 56 q 570 0 609 0 q 503 28 530 0 q 475 95 475 56 q 503 162 475 134 q 570 190 530 190 q 637 162 609 190 q 665 95 665 134 z "},"B":{"ha":760,"x_min":95,"x_max":665,"o":"m 285 854 q 257 787 285 815 q 190 760 229 760 q 123 787 151 760 q 95 854 95 815 q 123 922 95 894 q 190 949 151 949 q 257 922 229 949 q 285 854 285 894 m 475 854 q 447 787 475 815 q 380 760 419 760 q 313 787 340 760 q 285 854 285 815 q 313 922 285 894 q 380 949 340 949 q 447 922 419 949 q 475 854 475 894 m 285 665 q 257 597 285 625 q 190 570 229 570 q 123 597 151 570 q 95 665 95 625 q 123 732 95 704 q 190 760 151 760 q 257 732 229 760 q 285 665 285 704 m 665 665 q 637 597 665 625 q 570 570 609 570 q 503 597 530 570 q 475 665 475 625 q 503 732 475 704 q 570 760 530 760 q 637 732 609 760 q 665 665 665 704 m 285 475 q 257 408 285 435 q 190 380 229 380 q 123 408 151 380 q 95 475 95 435 q 123 542 95 514 q 190 570 151 570 q 257 542 229 570 q 285 475 285 514 m 475 475 q 447 408 475 435 q 380 380 419 380 q 313 408 340 380 q 285 475 285 435 q 313 542 285 514 q 380 570 340 570 q 447 542 419 570 q 475 475 475 514 m 285 285 q 257 218 285 245 q 190 190 229 190 q 123 218 151 190 q 95 285 95 245 q 123 352 95 324 q 190 380 151 380 q 257 352 229 380 q 285 285 285 324 m 665 285 q 637 218 665 245 q 570 190 609 190 q 503 218 530 190 q 475 285 475 245 q 503 352 475 324 q 570 380 530 380 q 637 352 609 380 q 665 285 665 324 m 285 95 q 257 28 285 56 q 190 0 229 0 q 123 28 151 0 q 95 95 95 56 q 123 162 95 134 q 190 190 151 190 q 257 162 229 190 q 285 95 285 134 m 475 95 q 447 28 475 56 q 380 0 419 0 q 313 28 340 0 q 285 95 285 56 q 313 162 285 134 q 380 190 340 190 q 447 162 419 190 q 475 95 475 134 z "},"C":{"ha":760,"x_min":95,"x_max":665,"o":"m 475 854 q 447 787 475 815 q 380 760 419 760 q 313 787 340 760 q 285 854 285 815 q 313 922 285 894 q 380 949 340 949 q 447 922 419 949 q 475 854 475 894 m 665 854 q 637 787 665 815 q 570 760 609 760 q 503 787 530 760 q 475 854 475 815 q 503 922 475 894 q 570 949 530 949 q 637 922 609 949 q 665 854 665 894 m 285 665 q 257 597 285 625 q 190 570 229 570 q 123 597 151 570 q 95 665 95 625 q 123 732 95 704 q 190 760 151 760 q 257 732 229 760 q 285 665 285 704 m 285 475 q 257 408 285 435 q 190 380 229 380 q 123 408 151 380 q 95 475 95 435 q 123 542 95 514 q 190 570 151 570 q 257 542 229 570 q 285 475 285 514 m 285 285 q 257 218 285 245 q 190 190 229 190 q 123 218 151 190 q 95 285 95 245 q 123 352 95 324 q 190 380 151 380 q 257 352 229 380 q 285 285 285 324 m 475 95 q 447 28 475 56 q 380 0 419 0 q 313 28 340 0 q 285 95 285 56 q 313 162 285 134 q 380 190 340 190 q 447 162 419 190 q 475 95 475 134 m 665 95 q 637 28 665 56 q 570 0 609 0 q 503 28 530 0 q 475 95 475 56 q 503 162 475 134 q 570 190 530 190 q 637 162 609 190 q 665 95 665 134 z "},"D":{"ha":760,"x_min":95,"x_max":665,"o":"m 285 854 q 257 787 285 815 q 190 760 229 760 q 123 787 151 760 q 95 854 95 815 q 123 922 95 894 q 190 949 151 949 q 257 922 229 949 q 285 854 285 894 m 475 854 q 447 787 475 815 q 380 760 419 760 q 313 787 340 760 q 285 854 285 815 q 313 922 285 894 q 380 949 340 949 q 447 922 419 949 q 475 854 475 894 m 285 665 q 257 597 285 625 q 190 570 229 570 q 123 597 151 570 q 95 665 95 625 q 123 732 95 704 q 190 760 151 760 q 257 732 229 760 q 285 665 285 704 m 665 665 q 637 597 665 625 q 570 570 609 570 q 503 597 530 570 q 475 665 475 625 q 503 732 475 704 q 570 760 530 760 q 637 732 609 760 q 665 665 665 704 m 285 475 q 257 408 285 435 q 190 380 229 380 q 123 408 151 380 q 95 475 95 435 q 123 542 95 514 q 190 570 151 570 q 257 542 229 570 q 285 475 285 514 m 665 475 q 637 408 665 435 q 570 380 609 380 q 503 408 530 380 q 475 475 475 435 q 503 542 475 514 q 570 570 530 570 q 637 542 609 570 q 665 475 665 514 m 285 285 q 257 218 285 245 q 190 190 229 190 q 123 218 151 190 q 95 285 95 245 q 123 352 95 324 q 190 380 151 380 q 257 352 229 380 q 285 285 285 324 m 665 285 q 637 218 665 245 q 570 190 609 190 q 503 218 530 190 q 475 285 475 245 q 503 352 475 324 q 570 380 530 380 q 637 352 609 380 q 665 285 665 324 m 285 95 q 257 28 285 56 q 190 0 229 0 q 123 28 151 0 q 95 95 95 56 q 123 162 95 134 q 190 190 151 190 q 257 162 229 190 q 285 95 285 134 m 475 95 q 447 28 475 56 q 380 0 419 0 q 313 28 340 0 q 285 95 285 56 q 313 162 285 134 q 380 190 340 190 q 447 162 419 190 q 475 95 475 134 z "},"E":{"ha":760,"x_min":95,"x_max":665,"o":"m 285 854 q 257 787 285 815 q 190 760 229 760 q 123 787 151 760 q 95 854 95 815 q 123 922 95 894 q 190 949 151 949 q 257 922 229 949 q 285 854 285 894 m 475 854 q 447 787 475 815 q 380 760 419 760 q 313 787 340 760 q 285 854 285 815 q 313 922 285 894 q 380 949 340 949 q 447 922 419 949 q 475 854 475 894 m 665 854 q 637 787 665 815 q 570 760 609 760 q 503 787 530 760 q 475 854 475 815 q 503 922 475 894 q 570 949 530 949 q 637 922 609 949 q 665 854 665 894 m 285 665 q 257 597 285 625 q 190 570 229 570 q 123 597 151 570 q 95 665 95 625 q 123 732 95 704 q 190 760 151 760 q 257 732 229 760 q 285 665 285 704 m 285 475 q 257 408 285 435 q 190 380 229 380 q 123 408 151 380 q 95 475 95 435 q 123 542 95 514 q 190 570 151 570 q 257 542 229 570 q 285 475 285 514 m 475 475 q 447 408 475 435 q 380 380 419 380 q 313 408 340 380 q 285 475 285 435 q 313 542 285 514 q 380 570 340 570 q 447 542 419 570 q 475 475 475 514 m 665 475 q 637 408 665 435 q 570 380 609 380 q 503 408 530 380 q 475 475 475 435 q 503 542 475 514 q 570 570 530 570 q 637 542 609 570 q 665 475 665 514 m 285 285 q 257 218 285 245 q 190 190 229 190 q 123 218 151 190 q 95 285 95 245 q 123 352 95 324 q 190 380 151 380 q 257 352 229 380 q 285 285 285 324 m 285 95 q 257 28 285 56 q 190 0 229 0 q 123 28 151 0 q 95 95 95 56 q 123 162 95 134 q 190 190 151 190 q 257 162 229 190 q 285 95 285 134 m 475 95 q 447 28 475 56 q 380 0 419 0 q 313 28 340 0 q 285 95 285 56 q 313 162 285 134 q 380 190 340 190 q 447 162 419 190 q 475 95 475 134 m 665 95 q 637 28 665 56 q 570 0 609 0 q 503 28 530 0 q 475 95 475 56 q 503 162 475 134 q 570 190 530 190 q 637 162 609 190 q 665 95 665 134 z "},"F":{"ha":760,"x_min":95,"x_max":665,"o":"m 285 854 q 257 787 285 815 q 190 760 229 760 q 123 787 151 760 q 95 854 95 815 q 123 922 95 894 q 190 949 151 949 q 257 922 229 949 q 285 854 285 894 m 475 854 q 447 787 475 815 q 380 760 419 760 q 313 787 340 760 q 285 854 285 815 q 313 922 285 894 q 380 949 340 949 q 447 922 419 949 q 475 854 475 894 m 665 854 q 637 787 665 815 q 570 760 609 760 q 503 787 530 760 q 475 854 475 815 q 503 922 475 894 q 570 949 530 949 q 637 922 609 949 q 665 854 665 894 m 285 665 q 257 597 285 625 q 190 570 229 570 q 123 597 151 570 q 95 665 95 625 q 123 732 95 704 q 190 760 151 760 q 257 732 229 760 q 285 665 285 704 m 285 475 q 257 408 285 435 q 190 380 229 380 q 123 408 151 380 q 95 475 95 435 q 123 542 95 514 q 190 570 151 570 q 257 542 229 570 q 285 475 285 514 m 475 475 q 447 408 475 435 q 380 380 419 380 q 313 408 340 380 q 285 475 285 435 q 313 542 285 514 q 380 570 340 570 q 447 542 419 570 q 475 475 475 514 m 665 475 q 637 408 665 435 q 570 380 609 380 q 503 408 530 380 q 475 475 475 435 q 503 542 475 514 q 570 570 530 570 q 637 542 609 570 q 665 475 665 514 m 285 285 q 257 218 285 245 q 190 190 229 190 q 123 218 151 190 q 95 285 95 245 q 123 352 95 324 q 190 380 151 380 q 257 352 229 380 q 285 285 285 324 m 285 95 q 257 28 285 56 q 190 0 229 0 q 123 28 151 0 q 95 95 95 56 q 123 162 95 134 q 190 190 151 190 q 257 162 229 190 q 285 95 285 134 z "},"G":{"ha":760,"x_min":95,"x_max":665,"o":"m 475 854 q 447 787 475 815 q 380 760 419 760 q 313 787 340 760 q 285 854 285 815 q 313 922 285 894 q 380 949 340 949 q 447 922 419 949 q 475 854 475 894 m 665 854 q 637 787 665 815 q 570 760 609 760 q 503 787 530 760 q 475 854 475 815 q 503 922 475 894 q 570 949 530 949 q 637 922 609 949 q 665 854 665 894 m 285 665 q 257 597 285 625 q 190 570 229 570 q 123 597 151 570 q 95 665 95 625 q 123 732 95 704 q 190 760 151 760 q 257 732 229 760 q 285 665 285 704 m 285 475 q 257 408 285 435 q 190 380 229 380 q 123 408 151 380 q 95 475 95 435 q 123 542 95 514 q 190 570 151 570 q 257 542 229 570 q 285 475 285 514 m 665 475 q 637 408 665 435 q 570 380 609 380 q 503 408 530 380 q 475 475 475 435 q 503 542 475 514 q 570 570 530 570 q 637 542 609 570 q 665 475 665 514 m 285 285 q 257 218 285 245 q 190 190 229 190 q 123 218 151 190 q 95 285 95 245 q 123 352 95 324 q 190 380 151 380 q 257 352 229 380 q 285 285 285 324 m 665 285 q 637 218 665 245 q 570 190 609 190 q 503 218 530 190 q 475 285 475 245 q 503 352 475 324 q 570 380 530 380 q 637 352 609 380 q 665 285 665 324 m 475 95 q 447 28 475 56 q 380 0 419 0 q 313 28 340 0 q 285 95 285 56 q 313 162 285 134 q 380 190 340 190 q 447 162 419 190 q 475 95 475 134 m 665 95 q 637 28 665 56 q 570 0 609 0 q 503 28 530 0 q 475 95 475 56 q 503 162 475 134 q 570 190 530 190 q 637 162 609 190 q 665 95 665 134 z "},"H":{"ha":760,"x_min":95,"x_max":665,"o":"m 285 854 q 257 787 285 815 q 190 760 229 760 q 123 787 151 760 q 95 854 95 815 q 123 922 95 894 q 190 949 151 949 q 257 922 229 949 q 285 854 285 894 m 665 854 q 637 787 665 815 q 570 760 609 760 q 503 787 530 760 q 475 854 475 815 q 503 922 475 894 q 570 949 530 949 q 637 922 609 949 q 665 854 665 894 m 285 665 q 257 597 285 625 q 190 570 229 570 q 123 597 151 570 q 95 665 95 625 q 123 732 95 704 q 190 760 151 760 q 257 732 229 760 q 285 665 285 704 m 665 665 q 637 597 665 625 q 570 570 609 570 q 503 597 530 570 q 475 665 475 625 q 503 732 475 704 q 570 760 530 760 q 637 732 609 760 q 665 665 665 704 m 285 475 q 257 408 285 435 q 190 380 229 380 q 123 408 151 380 q 95 475 95 435 q 123 542 95 514 q 190 570 151 570 q 257 542 229 570 q 285 475 285 514 m 475 475 q 447 408 475 435 q 380 380 419 380 q 313 408 340 380 q 285 475 285 435 q 313 542 285 514 q 380 570 340 570 q 447 542 419 570 q 475 475 475 514 m 665 475 q 637 408 665 435 q 570 380 609 380 q 503 408 530 380 q 475 475 475 435 q 503 542 475 514 q 570 570 530 570 q 637 542 609 570 q 665 475 665 514 m 285 285 q 257 218 285 245 q 190 190 229 190 q 123 218 151 190 q 95 285 95 245 q 123 352 95 324 q 190 380 151 380 q 257 352 229 380 q 285 285 285 324 m 665 285 q 637 218 665 245 q 570 190 609 190 q 503 218 530 190 q 475 285 475 245 q 503 352 475 324 q 570 380 530 380 q 637 352 609 380 q 665 285 665 324 m 285 95 q 257 28 285 56 q 190 0 229 0 q 123 28 151 0 q 95 95 95 56 q 123 162 95 134 q 190 190 151 190 q 257 162 229 190 q 285 95 285 134 m 665 95 q 637 28 665 56 q 570 0 609 0 q 503 28 530 0 q 475 95 475 56 q 503 162 475 134 q 570 190 530 190 q 637 162 609 190 q 665 95 665 134 z "},"I":{"ha":760,"x_min":95,"x_max":665,"o":"m 285 854 q 257 787 285 815 q 190 760 229 760 q 123 787 151 760 q 95 854 95 815 q 123 922 95 894 q 190 949 151 949 q 257 922 229 949 q 285 854 285 894 m 475 854 q 447 787 475 815 q 380 760 419 760 q 313 787 340 760 q 285 854 285 815 q 313 922 285 894 q 380 949 340 949 q 447 922 419 949 q 475 854 475 894 m 665 854 q 637 787 665 815 q 570 760 609 760 q 503 787 530 760 q 475 854 475 815 q 503 922 475 894 q 570 949 530 949 q 637 922 609 949 q 665 854 665 894 m 475 665 q 447 597 475 625 q 380 570 419 570 q 313 597 340 570 q 285 665 285 625 q 313 732 285 704 q 380 760 340 760 q 447 732 419 760 q 475 665 475 704 m 475 475 q 447 408 475 435 q 380 380 419 380 q 313 408 340 380 q 285 475 285 435 q 313 542 285 514 q 380 570 340 570 q 447 542 419 570 q 475 475 475 514 m 475 285 q 447 218 475 245 q 380 190 419 190 q 313 218 340 190 q 285 285 285 245 q 313 352 285 324 q 380 380 340 380 q 447 352 419 380 q 475 285 475 324 m 285 95 q 257 28 285 56 q 190 0 229 0 q 123 28 151 0 q 95 95 95 56 q 123 162 95 134 q 190 190 151 190 q 257 162 229 190 q 285 95 285 134 m 475 95 q 447 28 475 56 q 380 0 419 0 q 313 28 340 0 q 285 95 285 56 q 313 162 285 134 q 380 190 340 190 q 447 162 419 190 q 475 95 475 134 m 665 95 q 637 28 665 56 q 570 0 609 0 q 503 28 530 0 q 475 95 475 56 q 503 162 475 134 q 570 190 530 190 q 637 162 609 190 q 665 95 665 134 z "},"J":{"ha":760,"x_min":95,"x_max":665,"o":"m 475 854 q 447 787 475 815 q 380 760 419 760 q 313 787 340 760 q 285 854 285 815 q 313 922 285 894 q 380 949 340 949 q 447 922 419 949 q 475 854 475 894 m 665 854 q 637 787 665 815 q 570 760 609 760 q 503 787 530 760 q 475 854 475 815 q 503 922 475 894 q 570 949 530 949 q 637 922 609 949 q 665 854 665 894 m 665 665 q 637 597 665 625 q 570 570 609 570 q 503 597 530 570 q 475 665 475 625 q 503 732 475 704 q 570 760 530 760 q 637 732 609 760 q 665 665 665 704 m 665 475 q 637 408 665 435 q 570 380 609 380 q 503 408 530 380 q 475 475 475 435 q 503 542 475 514 q 570 570 530 570 q 637 542 609 570 q 665 475 665 514 m 285 285 q 257 218 285 245 q 190 190 229 190 q 123 218 151 190 q 95 285 95 245 q 123 352 95 324 q 190 380 151 380 q 257 352 229 380 q 285 285 285 324 m 665 285 q 637 218 665 245 q 570 190 609 190 q 503 218 530 190 q 475 285 475 245 q 503 352 475 324 q 570 380 530 380 q 637 352 609 380 q 665 285 665 324 m 475 95 q 447 28 475 56 q 380 0 419 0 q 313 28 340 0 q 285 95 285 56 q 313 162 285 134 q 380 190 340 190 q 447 162 419 190 q 475 95 475 134 z "},"K":{"ha":760,"x_min":95,"x_max":665,"o":"m 285 854 q 257 787 285 815 q 190 760 229 760 q 123 787 151 760 q 95 854 95 815 q 123 922 95 894 q 190 949 151 949 q 257 922 229 949 q 285 854 285 894 m 665 854 q 637 787 665 815 q 570 760 609 760 q 503 787 530 760 q 475 854 475 815 q 503 922 475 894 q 570 949 530 949 q 637 922 609 949 q 665 854 665 894 m 285 665 q 257 597 285 625 q 190 570 229 570 q 123 597 151 570 q 95 665 95 625 q 123 732 95 704 q 190 760 151 760 q 257 732 229 760 q 285 665 285 704 m 665 665 q 637 597 665 625 q 570 570 609 570 q 503 597 530 570 q 475 665 475 625 q 503 732 475 704 q 570 760 530 760 q 637 732 609 760 q 665 665 665 704 m 285 475 q 257 408 285 435 q 190 380 229 380 q 123 408 151 380 q 95 475 95 435 q 123 542 95 514 q 190 570 151 570 q 257 542 229 570 q 285 475 285 514 m 475 475 q 447 408 475 435 q 380 380 419 380 q 313 408 340 380 q 285 475 285 435 q 313 542 285 514 q 380 570 340 570 q 447 542 419 570 q 475 475 475 514 m 285 285 q 257 218 285 245 q 190 190 229 190 q 123 218 151 190 q 95 285 95 245 q 123 352 95 324 q 190 380 151 380 q 257 352 229 380 q 285 285 285 324 m 665 285 q 637 218 665 245 q 570 190 609 190 q 503 218 530 190 q 475 285 475 245 q 503 352 475 324 q 570 380 530 380 q 637 352 609 380 q 665 285 665 324 m 285 95 q 257 28 285 56 q 190 0 229 0 q 123 28 151 0 q 95 95 95 56 q 123 162 95 134 q 190 190 151 190 q 257 162 229 190 q 285 95 285 134 m 665 95 q 637 28 665 56 q 570 0 609 0 q 503 28 530 0 q 475 95 475 56 q 503 162 475 134 q 570 190 530 190 q 637 162 609 190 q 665 95 665 134 z "},"L":{"ha":760,"x_min":95,"x_max":665,"o":"m 285 854 q 257 787 285 815 q 190 760 229 760 q 123 787 151 760 q 95 854 95 815 q 123 922 95 894 q 190 949 151 949 q 257 922 229 949 q 285 854 285 894 m 285 665 q 257 597 285 625 q 190 570 229 570 q 123 597 151 570 q 95 665 95 625 q 123 732 95 704 q 190 760 151 760 q 257 732 229 760 q 285 665 285 704 m 285 475 q 257 408 285 435 q 190 380 229 380 q 123 408 151 380 q 95 475 95 435 q 123 542 95 514 q 190 570 151 570 q 257 542 229 570 q 285 475 285 514 m 285 285 q 257 218 285 245 q 190 190 229 190 q 123 218 151 190 q 95 285 95 245 q 123 352 95 324 q 190 380 151 380 q 257 352 229 380 q 285 285 285 324 m 285 95 q 257 28 285 56 q 190 0 229 0 q 123 28 151 0 q 95 95 95 56 q 123 162 95 134 q 190 190 151 190 q 257 162 229 190 q 285 95 285 134 m 475 95 q 447 28 475 56 q 380 0 419 0 q 313 28 340 0 q 285 95 285 56 q 313 162 285 134 q 380 190 340 190 q 447 162 419 190 q 475 95 475 134 m 665 95 q 637 28 665 56 q 570 0 609 0 q 503 28 530 0 q 475 95 475 56 q 503 162 475 134 q 570 190 530 190 q 637 162 609 190 q 665 95 665 134 z "},"M":{"ha":760,"x_min":95,"x_max":665,"o":"m 285 854 q 257 787 285 815 q 190 760 229 760 q 123 787 151 760 q 95 854 95 815 q 123 922 95 894 q 190 949 151 949 q 257 922 229 949 q 285 854 285 894 m 665 854 q 637 787 665 815 q 570 760 609 760 q 503 787 530 760 q 475 854 475 815 q 503 922 475 894 q 570 949 530 949 q 637 922 609 949 q 665 854 665 894 m 285 665 q 257 597 285 625 q 190 570 229 570 q 123 597 151 570 q 95 665 95 625 q 123 732 95 704 q 190 760 151 760 q 257 732 229 760 q 285 665 285 704 m 475 665 q 447 597 475 625 q 380 570 419 570 q 313 597 340 570 q 285 665 285 625 q 313 732 285 704 q 380 760 340 760 q 447 732 419 760 q 475 665 475 704 m 665 665 q 637 597 665 625 q 570 570 609 570 q 503 597 530 570 q 475 665 475 625 q 503 732 475 704 q 570 760 530 760 q 637 732 609 760 q 665 665 665 704 m 285 475 q 257 408 285 435 q 190 380 229 380 q 123 408 151 380 q 95 475 95 435 q 123 542 95 514 q 190 570 151 570 q 257 542 229 570 q 285 475 285 514 m 665 475 q 637 408 665 435 q 570 380 609 380 q 503 408 530 380 q 475 475 475 435 q 503 542 475 514 q 570 570 530 570 q 637 542 609 570 q 665 475 665 514 m 285 285 q 257 218 285 245 q 190 190 229 190 q 123 218 151 190 q 95 285 95 245 q 123 352 95 324 q 190 380 151 380 q 257 352 229 380 q 285 285 285 324 m 665 285 q 637 218 665 245 q 570 190 609 190 q 503 218 530 190 q 475 285 475 245 q 503 352 475 324 q 570 380 530 380 q 637 352 609 380 q 665 285 665 324 m 285 95 q 257 28 285 56 q 190 0 229 0 q 123 28 151 0 q 95 95 95 56 q 123 162 95 134 q 190 190 151 190 q 257 162 229 190 q 285 95 285 134 m 665 95 q 637 28 665 56 q 570 0 609 0 q 503 28 530 0 q 475 95 475 56 q 503 162 475 134 q 570 190 530 190 q 637 162 609 190 q 665 95 665 134 z "},"N":{"ha":760,"x_min":95,"x_max":665,"o":"m 285 854 q 257 787 285 815 q 190 760 229 760 q 123 787 151 760 q 95 854 95 815 q 123 922 95 894 q 190 949 151 949 q 257 922 229 949 q 285 854 285 894 m 475 854 q 447 787 475 815 q 380 760 419 760 q 313 787 340 760 q 285 854 285 815 q 313 922 285 894 q 380 949 340 949 q 447 922 419 949 q 475 854 475 894 m 285 665 q 257 597 285 625 q 190 570 229 570 q 123 597 151 570 q 95 665 95 625 q 123 732 95 704 q 190 760 151 760 q 257 732 229 760 q 285 665 285 704 m 665 665 q 637 597 665 625 q 570 570 609 570 q 503 597 530 570 q 475 665 475 625 q 503 732 475 704 q 570 760 530 760 q 637 732 609 760 q 665 665 665 704 m 285 475 q 257 408 285 435 q 190 380 229 380 q 123 408 151 380 q 95 475 95 435 q 123 542 95 514 q 190 570 151 570 q 257 542 229 570 q 285 475 285 514 m 665 475 q 637 408 665 435 q 570 380 609 380 q 503 408 530 380 q 475 475 475 435 q 503 542 475 514 q 570 570 530 570 q 637 542 609 570 q 665 475 665 514 m 285 285 q 257 218 285 245 q 190 190 229 190 q 123 218 151 190 q 95 285 95 245 q 123 352 95 324 q 190 380 151 380 q 257 352 229 380 q 285 285 285 324 m 665 285 q 637 218 665 245 q 570 190 609 190 q 503 218 530 190 q 475 285 475 245 q 503 352 475 324 q 570 380 530 380 q 637 352 609 380 q 665 285 665 324 m 285 95 q 257 28 285 56 q 190 0 229 0 q 123 28 151 0 q 95 95 95 56 q 123 162 95 134 q 190 190 151 190 q 257 162 229 190 q 285 95 285 134 m 665 95 q 637 28 665 56 q 570 0 609 0 q 503 28 530 0 q 475 95 475 56 q 503 162 475 134 q 570 190 530 190 q 637 162 609 190 q 665 95 665 134 z "},"O":{"ha":760,"x_min":95,"x_max":665,"o":"m 475 854 q 447 787 475 815 q 380 760 419 760 q 313 787 340 760 q 285 854 285 815 q 313 922 285 894 q 380 949 340 949 q 447 922 419 949 q 475 854 475 894 m 285 665 q 257 597 285 625 q 190 570 229 570 q 123 597 151 570 q 95 665 95 625 q 123 732 95 704 q 190 760 151 760 q 257 732 229 760 q 285 665 285 704 m 665 665 q 637 597 665 625 q 570 570 609 570 q 503 597 530 570 q 475 665 475 625 q 503 732 475 704 q 570 760 530 760 q 637 732 609 760 q 665 665 665 704 m 285 475 q 257 408 285 435 q 190 380 229 380 q 123 408 151 380 q 95 475 95 435 q 123 542 95 514 q 190 570 151 570 q 257 542 229 570 q 285 475 285 514 m 665 475 q 637 408 665 435 q 570 380 609 380 q 503 408 530 380 q 475 475 475 435 q 503 542 475 514 q 570 570 530 570 q 637 542 609 570 q 665 475 665 514 m 285 285 q 257 218 285 245 q 190 190 229 190 q 123 218 151 190 q 95 285 95 245 q 123 352 95 324 q 190 380 151 380 q 257 352 229 380 q 285 285 285 324 m 665 285 q 637 218 665 245 q 570 190 609 190 q 503 218 530 190 q 475 285 475 245 q 503 352 475 324 q 570 380 530 380 q 637 352 609 380 q 665 285 665 324 m 475 95 q 447 28 475 56 q 380 0 419 0 q 313 28 340 0 q 285 95 285 56 q 313 162 285 134 q 380 190 340 190 q 447 162 419 190 q 475 95 475 134 z "},"P":{"ha":760,"x_min":95,"x_max":665,"o":"m 285 854 q 257 787 285 815 q 190 760 229 760 q 123 787 151 760 q 95 854 95 815 q 123 922 95 894 q 190 949 151 949 q 257 922 229 949 q 285 854 285 894 m 475 854 q 447 787 475 815 q 380 760 419 760 q 313 787 340 760 q 285 854 285 815 q 313 922 285 894 q 380 949 340 949 q 447 922 419 949 q 475 854 475 894 m 285 665 q 257 597 285 625 q 190 570 229 570 q 123 597 151 570 q 95 665 95 625 q 123 732 95 704 q 190 760 151 760 q 257 732 229 760 q 285 665 285 704 m 665 665 q 637 597 665 625 q 570 570 609 570 q 503 597 530 570 q 475 665 475 625 q 503 732 475 704 q 570 760 530 760 q 637 732 609 760 q 665 665 665 704 m 285 475 q 257 408 285 435 q 190 380 229 380 q 123 408 151 380 q 95 475 95 435 q 123 542 95 514 q 190 570 151 570 q 257 542 229 570 q 285 475 285 514 m 475 475 q 447 408 475 435 q 380 380 419 380 q 313 408 340 380 q 285 475 285 435 q 313 542 285 514 q 380 570 340 570 q 447 542 419 570 q 475 475 475 514 m 285 285 q 257 218 285 245 q 190 190 229 190 q 123 218 151 190 q 95 285 95 245 q 123 352 95 324 q 190 380 151 380 q 257 352 229 380 q 285 285 285 324 m 285 95 q 257 28 285 56 q 190 0 229 0 q 123 28 151 0 q 95 95 95 56 q 123 162 95 134 q 190 190 151 190 q 257 162 229 190 q 285 95 285 134 z "},"Q":{"ha":760,"x_min":95,"x_max":665,"o":"m 475 854 q 447 787 475 815 q 380 760 419 760 q 313 787 340 760 q 285 854 285 815 q 313 922 285 894 q 380 949 340 949 q 447 922 419 949 q 475 854 475 894 m 285 665 q 257 597 285 625 q 190 570 229 570 q 123 597 151 570 q 95 665 95 625 q 123 732 95 704 q 190 760 151 760 q 257 732 229 760 q 285 665 285 704 m 665 665 q 637 597 665 625 q 570 570 609 570 q 503 597 530 570 q 475 665 475 625 q 503 732 475 704 q 570 760 530 760 q 637 732 609 760 q 665 665 665 704 m 285 475 q 257 408 285 435 q 190 380 229 380 q 123 408 151 380 q 95 475 95 435 q 123 542 95 514 q 190 570 151 570 q 257 542 229 570 q 285 475 285 514 m 665 475 q 637 408 665 435 q 570 380 609 380 q 503 408 530 380 q 475 475 475 435 q 503 542 475 514 q 570 570 530 570 q 637 542 609 570 q 665 475 665 514 m 285 285 q 257 218 285 245 q 190 190 229 190 q 123 218 151 190 q 95 285 95 245 q 123 352 95 324 q 190 380 151 380 q 257 352 229 380 q 285 285 285 324 m 475 285 q 447 218 475 245 q 380 190 419 190 q 313 218 340 190 q 285 285 285 245 q 313 352 285 324 q 380 380 340 380 q 447 352 419 380 q 475 285 475 324 m 665 285 q 637 218 665 245 q 570 190 609 190 q 503 218 530 190 q 475 285 475 245 q 503 352 475 324 q 570 380 530 380 q 637 352 609 380 q 665 285 665 324 m 475 95 q 447 28 475 56 q 380 0 419 0 q 313 28 340 0 q 285 95 285 56 q 313 162 285 134 q 380 190 340 190 q 447 162 419 190 q 475 95 475 134 m 665 95 q 637 28 665 56 q 570 0 609 0 q 503 28 530 0 q 475 95 475 56 q 503 162 475 134 q 570 190 530 190 q 637 162 609 190 q 665 95 665 134 z "},"R":{"ha":760,"x_min":95,"x_max":665,"o":"m 285 854 q 257 787 285 815 q 190 760 229 760 q 123 787 151 760 q 95 854 95 815 q 123 922 95 894 q 190 949 151 949 q 257 922 229 949 q 285 854 285 894 m 475 854 q 447 787 475 815 q 380 760 419 760 q 313 787 340 760 q 285 854 285 815 q 313 922 285 894 q 380 949 340 949 q 447 922 419 949 q 475 854 475 894 m 285 665 q 257 597 285 625 q 190 570 229 570 q 123 597 151 570 q 95 665 95 625 q 123 732 95 704 q 190 760 151 760 q 257 732 229 760 q 285 665 285 704 m 665 665 q 637 597 665 625 q 570 570 609 570 q 503 597 530 570 q 475 665 475 625 q 503 732 475 704 q 570 760 530 760 q 637 732 609 760 q 665 665 665 704 m 285 475 q 257 408 285 435 q 190 380 229 380 q 123 408 151 380 q 95 475 95 435 q 123 542 95 514 q 190 570 151 570 q 257 542 229 570 q 285 475 285 514 m 475 475 q 447 408 475 435 q 380 380 419 380 q 313 408 340 380 q 285 475 285 435 q 313 542 285 514 q 380 570 340 570 q 447 542 419 570 q 475 475 475 514 m 285 285 q 257 218 285 245 q 190 190 229 190 q 123 218 151 190 q 95 285 95 245 q 123 352 95 324 q 190 380 151 380 q 257 352 229 380 q 285 285 285 324 m 665 285 q 637 218 665 245 q 570 190 609 190 q 503 218 530 190 q 475 285 475 245 q 503 352 475 324 q 570 380 530 380 q 637 352 609 380 q 665 285 665 324 m 285 95 q 257 28 285 56 q 190 0 229 0 q 123 28 151 0 q 95 95 95 56 q 123 162 95 134 q 190 190 151 190 q 257 162 229 190 q 285 95 285 134 m 665 95 q 637 28 665 56 q 570 0 609 0 q 503 28 530 0 q 475 95 475 56 q 503 162 475 134 q 570 190 530 190 q 637 162 609 190 q 665 95 665 134 z "},"S":{"ha":760,"x_min":95,"x_max":665,"o":"m 475 854 q 447 787 475 815 q 380 760 419 760 q 313 787 340 760 q 285 854 285 815 q 313 922 285 894 q 380 949 340 949 q 447 922 419 949 q 475 854 475 894 m 665 854 q 637 787 665 815 q 570 760 609 760 q 503 787 530 760 q 475 854 475 815 q 503 922 475 894 q 570 949 530 949 q 637 922 609 949 q 665 854 665 894 m 285 665 q 257 597 285 625 q 190 570 229 570 q 123 597 151 570 q 95 665 95 625 q 123 732 95 704 q 190 760 151 760 q 257 732 229 760 q 285 665 285 704 m 285 475 q 257 408 285 435 q 190 380 229 380 q 123 408 151 380 q 95 475 95 435 q 123 542 95 514 q 190 570 151 570 q 257 542 229 570 q 285 475 285 514 m 475 475 q 447 408 475 435 q 380 380 419 380 q 313 408 340 380 q 285 475 285 435 q 313 542 285 514 q 380 570 340 570 q 447 542 419 570 q 475 475 475 514 m 665 475 q 637 408 665 435 q 570 380 609 380 q 503 408 530 380 q 475 475 475 435 q 503 542 475 514 q 570 570 530 570 q 637 542 609 570 q 665 475 665 514 m 665 285 q 637 218 665 245 q 570 190 609 190 q 503 218 530 190 q 475 285 475 245 q 503 352 475 324 q 570 380 530 380 q 637 352 609 380 q 665 285 665 324 m 285 95 q 257 28 285 56 q 190 0 229 0 q 123 28 151 0 q 95 95 95 56 q 123 162 95 134 q 190 190 151 190 q 257 162 229 190 q 285 95 285 134 m 475 95 q 447 28 475 56 q 380 0 419 0 q 313 28 340 0 q 285 95 285 56 q 313 162 285 134 q 380 190 340 190 q 447 162 419 190 q 475 95 475 134 z "},"T":{"ha":760,"x_min":95,"x_max":665,"o":"m 285 854 q 257 787 285 815 q 190 760 229 760 q 123 787 151 760 q 95 854 95 815 q 123 922 95 894 q 190 949 151 949 q 257 922 229 949 q 285 854 285 894 m 475 854 q 447 787 475 815 q 380 760 419 760 q 313 787 340 760 q 285 854 285 815 q 313 922 285 894 q 380 949 340 949 q 447 922 419 949 q 475 854 475 894 m 665 854 q 637 787 665 815 q 570 760 609 760 q 503 787 530 760 q 475 854 475 815 q 503 922 475 894 q 570 949 530 949 q 637 922 609 949 q 665 854 665 894 m 475 665 q 447 597 475 625 q 380 570 419 570 q 313 597 340 570 q 285 665 285 625 q 313 732 285 704 q 380 760 340 760 q 447 732 419 760 q 475 665 475 704 m 475 475 q 447 408 475 435 q 380 380 419 380 q 313 408 340 380 q 285 475 285 435 q 313 542 285 514 q 380 570 340 570 q 447 542 419 570 q 475 475 475 514 m 475 285 q 447 218 475 245 q 380 190 419 190 q 313 218 340 190 q 285 285 285 245 q 313 352 285 324 q 380 380 340 380 q 447 352 419 380 q 475 285 475 324 m 475 95 q 447 28 475 56 q 380 0 419 0 q 313 28 340 0 q 285 95 285 56 q 313 162 285 134 q 380 190 340 190 q 447 162 419 190 q 475 95 475 134 z "},"U":{"ha":760,"x_min":95,"x_max":665,"o":"m 285 854 q 257 787 285 815 q 190 760 229 760 q 123 787 151 760 q 95 854 95 815 q 123 922 95 894 q 190 949 151 949 q 257 922 229 949 q 285 854 285 894 m 665 854 q 637 787 665 815 q 570 760 609 760 q 503 787 530 760 q 475 854 475 815 q 503 922 475 894 q 570 949 530 949 q 637 922 609 949 q 665 854 665 894 m 285 665 q 257 597 285 625 q 190 570 229 570 q 123 597 151 570 q 95 665 95 625 q 123 732 95 704 q 190 760 151 760 q 257 732 229 760 q 285 665 285 704 m 665 665 q 637 597 665 625 q 570 570 609 570 q 503 597 530 570 q 475 665 475 625 q 503 732 475 704 q 570 760 530 760 q 637 732 609 760 q 665 665 665 704 m 285 475 q 257 408 285 435 q 190 380 229 380 q 123 408 151 380 q 95 475 95 435 q 123 542 95 514 q 190 570 151 570 q 257 542 229 570 q 285 475 285 514 m 665 475 q 637 408 665 435 q 570 380 609 380 q 503 408 530 380 q 475 475 475 435 q 503 542 475 514 q 570 570 530 570 q 637 542 609 570 q 665 475 665 514 m 285 285 q 257 218 285 245 q 190 190 229 190 q 123 218 151 190 q 95 285 95 245 q 123 352 95 324 q 190 380 151 380 q 257 352 229 380 q 285 285 285 324 m 665 285 q 637 218 665 245 q 570 190 609 190 q 503 218 530 190 q 475 285 475 245 q 503 352 475 324 q 570 380 530 380 q 637 352 609 380 q 665 285 665 324 m 285 95 q 257 28 285 56 q 190 0 229 0 q 123 28 151 0 q 95 95 95 56 q 123 162 95 134 q 190 190 151 190 q 257 162 229 190 q 285 95 285 134 m 475 95 q 447 28 475 56 q 380 0 419 0 q 313 28 340 0 q 285 95 285 56 q 313 162 285 134 q 380 190 340 190 q 447 162 419 190 q 475 95 475 134 m 665 95 q 637 28 665 56 q 570 0 609 0 q 503 28 530 0 q 475 95 475 56 q 503 162 475 134 q 570 190 530 190 q 637 162 609 190 q 665 95 665 134 z "},"V":{"ha":760,"x_min":95,"x_max":665,"o":"m 285 854 q 257 787 285 815 q 190 760 229 760 q 123 787 151 760 q 95 854 95 815 q 123 922 95 894 q 190 949 151 949 q 257 922 229 949 q 285 854 285 894 m 665 854 q 637 787 665 815 q 570 760 609 760 q 503 787 530 760 q 475 854 475 815 q 503 922 475 894 q 570 949 530 949 q 637 922 609 949 q 665 854 665 894 m 285 665 q 257 597 285 625 q 190 570 229 570 q 123 597 151 570 q 95 665 95 625 q 123 732 95 704 q 190 760 151 760 q 257 732 229 760 q 285 665 285 704 m 665 665 q 637 597 665 625 q 570 570 609 570 q 503 597 530 570 q 475 665 475 625 q 503 732 475 704 q 570 760 530 760 q 637 732 609 760 q 665 665 665 704 m 285 475 q 257 408 285 435 q 190 380 229 380 q 123 408 151 380 q 95 475 95 435 q 123 542 95 514 q 190 570 151 570 q 257 542 229 570 q 285 475 285 514 m 665 475 q 637 408 665 435 q 570 380 609 380 q 503 408 530 380 q 475 475 475 435 q 503 542 475 514 q 570 570 530 570 q 637 542 609 570 q 665 475 665 514 m 475 285 q 447 218 475 245 q 380 190 419 190 q 313 218 340 190 q 285 285 285 245 q 313 352 285 324 q 380 380 340 380 q 447 352 419 380 q 475 285 475 324 m 475 95 q 447 28 475 56 q 380 0 419 0 q 313 28 340 0 q 285 95 285 56 q 313 162 285 134 q 380 190 340 190 q 447 162 419 190 q 475 95 475 134 z "},"W":{"ha":760,"x_min":95,"x_max":665,"o":"m 285 854 q 257 787 285 815 q 190 760 229 760 q 123 787 151 760 q 95 854 95 815 q 123 922 95 894 q 190 949 151 949 q 257 922 229 949 q 285 854 285 894 m 665 854 q 637 787 665 815 q 570 760 609 760 q 503 787 530 760 q 475 854 475 815 q 503 922 475 894 q 570 949 530 949 q 637 922 609 949 q 665 854 665 894 m 285 665 q 257 597 285 625 q 190 570 229 570 q 123 597 151 570 q 95 665 95 625 q 123 732 95 704 q 190 760 151 760 q 257 732 229 760 q 285 665 285 704 m 665 665 q 637 597 665 625 q 570 570 609 570 q 503 597 530 570 q 475 665 475 625 q 503 732 475 704 q 570 760 530 760 q 637 732 609 760 q 665 665 665 704 m 285 475 q 257 408 285 435 q 190 380 229 380 q 123 408 151 380 q 95 475 95 435 q 123 542 95 514 q 190 570 151 570 q 257 542 229 570 q 285 475 285 514 m 665 475 q 637 408 665 435 q 570 380 609 380 q 503 408 530 380 q 475 475 475 435 q 503 542 475 514 q 570 570 530 570 q 637 542 609 570 q 665 475 665 514 m 285 285 q 257 218 285 245 q 190 190 229 190 q 123 218 151 190 q 95 285 95 245 q 123 352 95 324 q 190 380 151 380 q 257 352 229 380 q 285 285 285 324 m 475 285 q 447 218 475 245 q 380 190 419 190 q 313 218 340 190 q 285 285 285 245 q 313 352 285 324 q 380 380 340 380 q 447 352 419 380 q 475 285 475 324 m 665 285 q 637 218 665 245 q 570 190 609 190 q 503 218 530 190 q 475 285 475 245 q 503 352 475 324 q 570 380 530 380 q 637 352 609 380 q 665 285 665 324 m 285 95 q 257 28 285 56 q 190 0 229 0 q 123 28 151 0 q 95 95 95 56 q 123 162 95 134 q 190 190 151 190 q 257 162 229 190 q 285 95 285 134 m 665 95 q 637 28 665 56 q 570 0 609 0 q 503 28 530 0 q 475 95 475 56 q 503 162 475 134 q 570 190 530 190 q 637 162 609 190 q 665 95 665 134 z "},"X":{"ha":760,"x_min":95,"x_max":665,"o":"m 285 854 q 257 787 285 815 q 190 760 229 760 q 123 787 151 760 q 95 854 95 815 q 123 922 95 894 q 190 949 151 949 q 257 922 229 949 q 285 854 285 894 m 665 854 q 637 787 665 815 q 570 760 609 760 q 503 787 530 760 q 475 854 475 815 q 503 922 475 894 q 570 949 530 949 q 637 922 609 949 q 665 854 665 894 m 285 665 q 257 597 285 625 q 190 570 229 570 q 123 597 151 570 q 95 665 95 625 q 123 732 95 704 q 190 760 151 760 q 257 732 229 760 q 285 665 285 704 m 665 665 q 637 597 665 625 q 570 570 609 570 q 503 597 530 570 q 475 665 475 625 q 503 732 475 704 q 570 760 530 760 q 637 732 609 760 q 665 665 665 704 m 475 475 q 447 408 475 435 q 380 380 419 380 q 313 408 340 380 q 285 475 285 435 q 313 542 285 514 q 380 570 340 570 q 447 542 419 570 q 475 475 475 514 m 285 285 q 257 218 285 245 q 190 190 229 190 q 123 218 151 190 q 95 285 95 245 q 123 352 95 324 q 190 380 151 380 q 257 352 229 380 q 285 285 285 324 m 665 285 q 637 218 665 245 q 570 190 609 190 q 503 218 530 190 q 475 285 475 245 q 503 352 475 324 q 570 380 530 380 q 637 352 609 380 q 665 285 665 324 m 285 95 q 257 28 285 56 q 190 0 229 0 q 123 28 151 0 q 95 95 95 56 q 123 162 95 134 q 190 190 151 190 q 257 162 229 190 q 285 95 285 134 m 665 95 q 637 28 665 56 q 570 0 609 0 q 503 28 530 0 q 475 95 475 56 q 503 162 475 134 q 570 190 530 190 q 637 162 609 190 q 665 95 665 134 z "},"Y":{"ha":760,"x_min":95,"x_max":665,"o":"m 285 854 q 257 787 285 815 q 190 760 229 760 q 123 787 151 760 q 95 854 95 815 q 123 922 95 894 q 190 949 151 949 q 257 922 229 949 q 285 854 285 894 m 665 854 q 637 787 665 815 q 570 760 609 760 q 503 787 530 760 q 475 854 475 815 q 503 922 475 894 q 570 949 530 949 q 637 922 609 949 q 665 854 665 894 m 285 665 q 257 597 285 625 q 190 570 229 570 q 123 597 151 570 q 95 665 95 625 q 123 732 95 704 q 190 760 151 760 q 257 732 229 760 q 285 665 285 704 m 665 665 q 637 597 665 625 q 570 570 609 570 q 503 597 530 570 q 475 665 475 625 q 503 732 475 704 q 570 760 530 760 q 637 732 609 760 q 665 665 665 704 m 475 475 q 447 408 475 435 q 380 380 419 380 q 313 408 340 380 q 285 475 285 435 q 313 542 285 514 q 380 570 340 570 q 447 542 419 570 q 475 475 475 514 m 475 285 q 447 218 475 245 q 380 190 419 190 q 313 218 340 190 q 285 285 285 245 q 313 352 285 324 q 380 380 340 380 q 447 352 419 380 q 475 285 475 324 m 475 95 q 447 28 475 56 q 380 0 419 0 q 313 28 340 0 q 285 95 285 56 q 313 162 285 134 q 380 190 340 190 q 447 162 419 190 q 475 95 475 134 z "},"Z":{"ha":760,"x_min":95,"x_max":665,"o":"m 285 854 q 257 787 285 815 q 190 760 229 760 q 123 787 151 760 q 95 854 95 815 q 123 922 95 894 q 190 949 151 949 q 257 922 229 949 q 285 854 285 894 m 475 854 q 447 787 475 815 q 380 760 419 760 q 313 787 340 760 q 285 854 285 815 q 313 922 285 894 q 380 949 340 949 q 447 922 419 949 q 475 854 475 894 m 665 854 q 637 787 665 815 q 570 760 609 760 q 503 787 530 760 q 475 854 475 815 q 503 922 475 894 q 570 949 530 949 q 637 922 609 949 q 665 854 665 894 m 665 665 q 637 597 665 625 q 570 570 609 570 q 503 597 530 570 q 475 665 475 625 q 503 732 475 704 q 570 760 530 760 q 637 732 609 760 q 665 665 665 704 m 475 475 q 447 408 475 435 q 380 380 419 380 q 313 408 340 380 q 285 475 285 435 q 313 542 285 514 q 380 570 340 570 q 447 542 419 570 q 475 475 475 514 m 285 285 q 257 218 285 245 q 190 190 229 190 q 123 218 151 190 q 95 285 95 245 q 123 352 95 324 q 190 380 151 380 q 257 352 229 380 q 285 285 285 324 m 285 95 q 257 28 285 56 q 190 0 229 0 q 123 28 151 0 q 95 95 95 56 q 123 162 95 134 q 190 190 151 190 q 257 162 229 190 q 285 95 285 134 m 475 95 q 447 28 475 56 q 380 0 419 0 q 313 28 340 0 q 285 95 285 56 q 313 162 285 134 q 380 190 340 190 q 447 162 419 190 q 475 95 475 134 m 665 95 q 637 28 665 56 q 570 0 609 0 q 503 28 530 0 q 475 95 475 56 q 503 162 475 134 q 570 190 530 190 q 637 162 609 190 q 665 95 665 134 z "},"[":{"ha":760,"x_min":95,"x_max":665,"o":"m 285 854 q 257 787 285 815 q 190 760 229 760 q 123 787 151 760 q 95 854 95 815 q 123 922 95 894 q 190 949 151 949 q 257 922 229 949 q 285 854 285 894 m 475 854 q 447 787 475 815 q 380 760 419 760 q 313 787 340 760 q 285 854 285 815 q 313 922 285 894 q 380 949 340 949 q 447 922 419 949 q 475 854 475 894 m 665 854 q 637 787 665 815 q 570 760 609 760 q 503 787 530 760 q 475 854 475 815 q 503 922 475 894 q 570 949 530 949 q 637 922 609 949 q 665 854 665 894 m 285 665 q 257 597 285 625 q 190 570 229 570 q 123 597 151 570 q 95 665 95 625 q 123 732 95 704 q 190 760 151 760 q 257 732 229 760 q 285 665 285 704 m 285 475 q 257 408 285 435 q 190 380 229 380 q 123 408 151 380 q 95 475 95 435 q 123 542 95 514 q 190 570 151 570 q 257 542 229 570 q 285 475 285 514 m 285 285 q 257 218 285 245 q 190 190 229 190 q 123 218 151 190 q 95 285 95 245 q 123 352 95 324 q 190 380 151 380 q 257 352 229 380 q 285 285 285 324 m 285 95 q 257 28 285 56 q 190 0 229 0 q 123 28 151 0 q 95 95 95 56 q 123 162 95 134 q 190 190 151 190 q 257 162 229 190 q 285 95 285 134 m 475 95 q 447 28 475 56 q 380 0 419 0 q 313 28 340 0 q 285 95 285 56 q 313 162 285 134 q 380 190 340 190 q 447 162 419 190 q 475 95 475 134 m 665 95 q 637 28 665 56 q 570 0 609 0 q 503 28 530 0 q 475 95 475 56 q 503 162 475 134 q 570 190 530 190 q 637 162 609 190 q 665 95 665 134 z "},"\\":{"ha":760,"x_min":95,"x_max":665,"o":"m 285 854 q 257 787 285 815 q 190 760 229 760 q 123 787 151 760 q 95 854 95 815 q 123 922 95 894 q 190 949 151 949 q 257 922 229 949 q 285 854 285 894 m 285 665 q 257 597 285 625 q 190 570 229 570 q 123 597 151 570 q 95 665 95 625 q 123 732 95 704 q 190 760 151 760 q 257 732 229 760 q 285 665 285 704 m 475 475 q 447 408 475 435 q 380 380 419 380 q 313 408 340 380 q 285 475 285 435 q 313 542 285 514 q 380 570 340 570 q 447 542 419 570 q 475 475 475 514 m 665 285 q 637 218 665 245 q 570 190 609 190 q 503 218 530 190 q 475 285 475 245 q 503 352 475 324 q 570 380 530 380 q 637 352 609 380 q 665 285 665 324 m 665 95 q 637 28 665 56 q 570 0 609 0 q 503 28 530 0 q 475 95 475 56 q 503 162 475 134 q 570 190 530 190 q 637 162 609 190 q 665 95 665 134 z "},"]":{"ha":760,"x_min":95,"x_max":665,"o":"m 285 854 q 257 787 285 815 q 190 760 229 760 q 123 787 151 760 q 95 854 95 815 q 123 922 95 894 q 190 949 151 949 q 257 922 229 949 q 285 854 285 894 m 475 854 q 447 787 475 815 q 380 760 419 760 q 313 787 340 760 q 285 854 285 815 q 313 922 285 894 q 380 949 340 949 q 447 922 419 949 q 475 854 475 894 m 665 854 q 637 787 665 815 q 570 760 609 760 q 503 787 530 760 q 475 854 475 815 q 503 922 475 894 q 570 949 530 949 q 637 922 609 949 q 665 854 665 894 m 665 665 q 637 597 665 625 q 570 570 609 570 q 503 597 530 570 q 475 665 475 625 q 503 732 475 704 q 570 760 530 760 q 637 732 609 760 q 665 665 665 704 m 665 475 q 637 408 665 435 q 570 380 609 380 q 503 408 530 380 q 475 475 475 435 q 503 542 475 514 q 570 570 530 570 q 637 542 609 570 q 665 475 665 514 m 665 285 q 637 218 665 245 q 570 190 609 190 q 503 218 530 190 q 475 285 475 245 q 503 352 475 324 q 570 380 530 380 q 637 352 609 380 q 665 285 665 324 m 285 95 q 257 28 285 56 q 190 0 229 0 q 123 28 151 0 q 95 95 95 56 q 123 162 95 134 q 190 190 151 190 q 257 162 229 190 q 285 95 285 134 m 475 95 q 447 28 475 56 q 380 0 419 0 q 313 28 340 0 q 285 95 285 56 q 313 162 285 134 q 380 190 340 190 q 447 162 419 190 q 475 95 475 134 m 665 95 q 637 28 665 56 q 570 0 609 0 q 503 28 530 0 q 475 95 475 56 q 503 162 475 134 q 570 190 530 190 q 637 162 609 190 q 665 95 665 134 z "},"^":{"ha":760,"x_min":95,"x_max":665,"o":"m 475 854 q 447 787 475 815 q 380 760 419 760 q 313 787 340 760 q 285 854 285 815 q 313 922 285 894 q 380 949 340 949 q 447 922 419 949 q 475 854 475 894 m 285 665 q 257 597 285 625 q 190 570 229 570 q 123 597 151 570 q 95 665 95 625 q 123 732 95 704 q 190 760 151 760 q 257 732 229 760 q 285 665 285 704 m 665 665 q 637 597 665 625 q 570 570 609 570 q 503 597 530 570 q 475 665 475 625 q 503 732 475 704 q 570 760 530 760 q 637 732 609 760 q 665 665 665 704 z "},"_":{"ha":760,"x_min":95,"x_max":665,"o":"m 285 95 q 257 28 285 56 q 190 0 229 0 q 123 28 151 0 q 95 95 95 56 q 123 162 95 134 q 190 190 151 190 q 257 162 229 190 q 285 95 285 134 m 475 95 q 447 28 475 56 q 380 0 419 0 q 313 28 340 0 q 285 95 285 56 q 313 162 285 134 q 380 190 340 190 q 447 162 419 190 q 475 95 475 134 m 665 95 q 637 28 665 56 q 570 0 609 0 q 503 28 530 0 q 475 95 475 56 q 503 162 475 134 q 570 190 530 190 q 637 162 609 190 q 665 95 665 134 z "},"a":{"ha":760,"x_min":95,"x_max":665,"o":"m 475 854 q 447 787 475 815 q 380 760 419 760 q 313 787 340 760 q 285 854 285 815 q 313 922 285 894 q 380 949 340 949 q 447 922 419 949 q 475 854 475 894 m 285 665 q 257 597 285 625 q 190 570 229 570 q 123 597 151 570 q 95 665 95 625 q 123 732 95 704 q 190 760 151 760 q 257 732 229 760 q 285 665 285 704 m 665 665 q 637 597 665 625 q 570 570 609 570 q 503 597 530 570 q 475 665 475 625 q 503 732 475 704 q 570 760 530 760 q 637 732 609 760 q 665 665 665 704 m 285 475 q 257 408 285 435 q 190 380 229 380 q 123 408 151 380 q 95 475 95 435 q 123 542 95 514 q 190 570 151 570 q 257 542 229 570 q 285 475 285 514 m 475 475 q 447 408 475 435 q 380 380 419 380 q 313 408 340 380 q 285 475 285 435 q 313 542 285 514 q 380 570 340 570 q 447 542 419 570 q 475 475 475 514 m 665 475 q 637 408 665 435 q 570 380 609 380 q 503 408 530 380 q 475 475 475 435 q 503 542 475 514 q 570 570 530 570 q 637 542 609 570 q 665 475 665 514 m 285 285 q 257 218 285 245 q 190 190 229 190 q 123 218 151 190 q 95 285 95 245 q 123 352 95 324 q 190 380 151 380 q 257 352 229 380 q 285 285 285 324 m 665 285 q 637 218 665 245 q 570 190 609 190 q 503 218 530 190 q 475 285 475 245 q 503 352 475 324 q 570 380 530 380 q 637 352 609 380 q 665 285 665 324 m 285 95 q 257 28 285 56 q 190 0 229 0 q 123 28 151 0 q 95 95 95 56 q 123 162 95 134 q 190 190 151 190 q 257 162 229 190 q 285 95 285 134 m 665 95 q 637 28 665 56 q 570 0 609 0 q 503 28 530 0 q 475 95 475 56 q 503 162 475 134 q 570 190 530 190 q 637 162 609 190 q 665 95 665 134 z "},"b":{"ha":760,"x_min":95,"x_max":665,"o":"m 285 854 q 257 787 285 815 q 190 760 229 760 q 123 787 151 760 q 95 854 95 815 q 123 922 95 894 q 190 949 151 949 q 257 922 229 949 q 285 854 285 894 m 475 854 q 447 787 475 815 q 380 760 419 760 q 313 787 340 760 q 285 854 285 815 q 313 922 285 894 q 380 949 340 949 q 447 922 419 949 q 475 854 475 894 m 285 665 q 257 597 285 625 q 190 570 229 570 q 123 597 151 570 q 95 665 95 625 q 123 732 95 704 q 190 760 151 760 q 257 732 229 760 q 285 665 285 704 m 665 665 q 637 597 665 625 q 570 570 609 570 q 503 597 530 570 q 475 665 475 625 q 503 732 475 704 q 570 760 530 760 q 637 732 609 760 q 665 665 665 704 m 285 475 q 257 408 285 435 q 190 380 229 380 q 123 408 151 380 q 95 475 95 435 q 123 542 95 514 q 190 570 151 570 q 257 542 229 570 q 285 475 285 514 m 475 475 q 447 408 475 435 q 380 380 419 380 q 313 408 340 380 q 285 475 285 435 q 313 542 285 514 q 380 570 340 570 q 447 542 419 570 q 475 475 475 514 m 285 285 q 257 218 285 245 q 190 190 229 190 q 123 218 151 190 q 95 285 95 245 q 123 352 95 324 q 190 380 151 380 q 257 352 229 380 q 285 285 285 324 m 665 285 q 637 218 665 245 q 570 190 609 190 q 503 218 530 190 q 475 285 475 245 q 503 352 475 324 q 570 380 530 380 q 637 352 609 380 q 665 285 665 324 m 285 95 q 257 28 285 56 q 190 0 229 0 q 123 28 151 0 q 95 95 95 56 q 123 162 95 134 q 190 190 151 190 q 257 162 229 190 q 285 95 285 134 m 475 95 q 447 28 475 56 q 380 0 419 0 q 313 28 340 0 q 285 95 285 56 q 313 162 285 134 q 380 190 340 190 q 447 162 419 190 q 475 95 475 134 z "},"c":{"ha":760,"x_min":95,"x_max":665,"o":"m 475 854 q 447 787 475 815 q 380 760 419 760 q 313 787 340 760 q 285 854 285 815 q 313 922 285 894 q 380 949 340 949 q 447 922 419 949 q 475 854 475 894 m 665 854 q 637 787 665 815 q 570 760 609 760 q 503 787 530 760 q 475 854 475 815 q 503 922 475 894 q 570 949 530 949 q 637 922 609 949 q 665 854 665 894 m 285 665 q 257 597 285 625 q 190 570 229 570 q 123 597 151 570 q 95 665 95 625 q 123 732 95 704 q 190 760 151 760 q 257 732 229 760 q 285 665 285 704 m 285 475 q 257 408 285 435 q 190 380 229 380 q 123 408 151 380 q 95 475 95 435 q 123 542 95 514 q 190 570 151 570 q 257 542 229 570 q 285 475 285 514 m 285 285 q 257 218 285 245 q 190 190 229 190 q 123 218 151 190 q 95 285 95 245 q 123 352 95 324 q 190 380 151 380 q 257 352 229 380 q 285 285 285 324 m 475 95 q 447 28 475 56 q 380 0 419 0 q 313 28 340 0 q 285 95 285 56 q 313 162 285 134 q 380 190 340 190 q 447 162 419 190 q 475 95 475 134 m 665 95 q 637 28 665 56 q 570 0 609 0 q 503 28 530 0 q 475 95 475 56 q 503 162 475 134 q 570 190 530 190 q 637 162 609 190 q 665 95 665 134 z "},"d":{"ha":760,"x_min":95,"x_max":665,"o":"m 285 854 q 257 787 285 815 q 190 760 229 760 q 123 787 151 760 q 95 854 95 815 q 123 922 95 894 q 190 949 151 949 q 257 922 229 949 q 285 854 285 894 m 475 854 q 447 787 475 815 q 380 760 419 760 q 313 787 340 760 q 285 854 285 815 q 313 922 285 894 q 380 949 340 949 q 447 922 419 949 q 475 854 475 894 m 285 665 q 257 597 285 625 q 190 570 229 570 q 123 597 151 570 q 95 665 95 625 q 123 732 95 704 q 190 760 151 760 q 257 732 229 760 q 285 665 285 704 m 665 665 q 637 597 665 625 q 570 570 609 570 q 503 597 530 570 q 475 665 475 625 q 503 732 475 704 q 570 760 530 760 q 637 732 609 760 q 665 665 665 704 m 285 475 q 257 408 285 435 q 190 380 229 380 q 123 408 151 380 q 95 475 95 435 q 123 542 95 514 q 190 570 151 570 q 257 542 229 570 q 285 475 285 514 m 665 475 q 637 408 665 435 q 570 380 609 380 q 503 408 530 380 q 475 475 475 435 q 503 542 475 514 q 570 570 530 570 q 637 542 609 570 q 665 475 665 514 m 285 285 q 257 218 285 245 q 190 190 229 190 q 123 218 151 190 q 95 285 95 245 q 123 352 95 324 q 190 380 151 380 q 257 352 229 380 q 285 285 285 324 m 665 285 q 637 218 665 245 q 570 190 609 190 q 503 218 530 190 q 475 285 475 245 q 503 352 475 324 q 570 380 530 380 q 637 352 609 380 q 665 285 665 324 m 285 95 q 257 28 285 56 q 190 0 229 0 q 123 28 151 0 q 95 95 95 56 q 123 162 95 134 q 190 190 151 190 q 257 162 229 190 q 285 95 285 134 m 475 95 q 447 28 475 56 q 380 0 419 0 q 313 28 340 0 q 285 95 285 56 q 313 162 285 134 q 380 190 340 190 q 447 162 419 190 q 475 95 475 134 z "},"e":{"ha":760,"x_min":95,"x_max":665,"o":"m 285 854 q 257 787 285 815 q 190 760 229 760 q 123 787 151 760 q 95 854 95 815 q 123 922 95 894 q 190 949 151 949 q 257 922 229 949 q 285 854 285 894 m 475 854 q 447 787 475 815 q 380 760 419 760 q 313 787 340 760 q 285 854 285 815 q 313 922 285 894 q 380 949 340 949 q 447 922 419 949 q 475 854 475 894 m 665 854 q 637 787 665 815 q 570 760 609 760 q 503 787 530 760 q 475 854 475 815 q 503 922 475 894 q 570 949 530 949 q 637 922 609 949 q 665 854 665 894 m 285 665 q 257 597 285 625 q 190 570 229 570 q 123 597 151 570 q 95 665 95 625 q 123 732 95 704 q 190 760 151 760 q 257 732 229 760 q 285 665 285 704 m 285 475 q 257 408 285 435 q 190 380 229 380 q 123 408 151 380 q 95 475 95 435 q 123 542 95 514 q 190 570 151 570 q 257 542 229 570 q 285 475 285 514 m 475 475 q 447 408 475 435 q 380 380 419 380 q 313 408 340 380 q 285 475 285 435 q 313 542 285 514 q 380 570 340 570 q 447 542 419 570 q 475 475 475 514 m 665 475 q 637 408 665 435 q 570 380 609 380 q 503 408 530 380 q 475 475 475 435 q 503 542 475 514 q 570 570 530 570 q 637 542 609 570 q 665 475 665 514 m 285 285 q 257 218 285 245 q 190 190 229 190 q 123 218 151 190 q 95 285 95 245 q 123 352 95 324 q 190 380 151 380 q 257 352 229 380 q 285 285 285 324 m 285 95 q 257 28 285 56 q 190 0 229 0 q 123 28 151 0 q 95 95 95 56 q 123 162 95 134 q 190 190 151 190 q 257 162 229 190 q 285 95 285 134 m 475 95 q 447 28 475 56 q 380 0 419 0 q 313 28 340 0 q 285 95 285 56 q 313 162 285 134 q 380 190 340 190 q 447 162 419 190 q 475 95 475 134 m 665 95 q 637 28 665 56 q 570 0 609 0 q 503 28 530 0 q 475 95 475 56 q 503 162 475 134 q 570 190 530 190 q 637 162 609 190 q 665 95 665 134 z "},"f":{"ha":760,"x_min":95,"x_max":665,"o":"m 285 854 q 257 787 285 815 q 190 760 229 760 q 123 787 151 760 q 95 854 95 815 q 123 922 95 894 q 190 949 151 949 q 257 922 229 949 q 285 854 285 894 m 475 854 q 447 787 475 815 q 380 760 419 760 q 313 787 340 760 q 285 854 285 815 q 313 922 285 894 q 380 949 340 949 q 447 922 419 949 q 475 854 475 894 m 665 854 q 637 787 665 815 q 570 760 609 760 q 503 787 530 760 q 475 854 475 815 q 503 922 475 894 q 570 949 530 949 q 637 922 609 949 q 665 854 665 894 m 285 665 q 257 597 285 625 q 190 570 229 570 q 123 597 151 570 q 95 665 95 625 q 123 732 95 704 q 190 760 151 760 q 257 732 229 760 q 285 665 285 704 m 285 475 q 257 408 285 435 q 190 380 229 380 q 123 408 151 380 q 95 475 95 435 q 123 542 95 514 q 190 570 151 570 q 257 542 229 570 q 285 475 285 514 m 475 475 q 447 408 475 435 q 380 380 419 380 q 313 408 340 380 q 285 475 285 435 q 313 542 285 514 q 380 570 340 570 q 447 542 419 570 q 475 475 475 514 m 665 475 q 637 408 665 435 q 570 380 609 380 q 503 408 530 380 q 475 475 475 435 q 503 542 475 514 q 570 570 530 570 q 637 542 609 570 q 665 475 665 514 m 285 285 q 257 218 285 245 q 190 190 229 190 q 123 218 151 190 q 95 285 95 245 q 123 352 95 324 q 190 380 151 380 q 257 352 229 380 q 285 285 285 324 m 285 95 q 257 28 285 56 q 190 0 229 0 q 123 28 151 0 q 95 95 95 56 q 123 162 95 134 q 190 190 151 190 q 257 162 229 190 q 285 95 285 134 z "},"g":{"ha":760,"x_min":95,"x_max":665,"o":"m 475 854 q 447 787 475 815 q 380 760 419 760 q 313 787 340 760 q 285 854 285 815 q 313 922 285 894 q 380 949 340 949 q 447 922 419 949 q 475 854 475 894 m 665 854 q 637 787 665 815 q 570 760 609 760 q 503 787 530 760 q 475 854 475 815 q 503 922 475 894 q 570 949 530 949 q 637 922 609 949 q 665 854 665 894 m 285 665 q 257 597 285 625 q 190 570 229 570 q 123 597 151 570 q 95 665 95 625 q 123 732 95 704 q 190 760 151 760 q 257 732 229 760 q 285 665 285 704 m 285 475 q 257 408 285 435 q 190 380 229 380 q 123 408 151 380 q 95 475 95 435 q 123 542 95 514 q 190 570 151 570 q 257 542 229 570 q 285 475 285 514 m 665 475 q 637 408 665 435 q 570 380 609 380 q 503 408 530 380 q 475 475 475 435 q 503 542 475 514 q 570 570 530 570 q 637 542 609 570 q 665 475 665 514 m 285 285 q 257 218 285 245 q 190 190 229 190 q 123 218 151 190 q 95 285 95 245 q 123 352 95 324 q 190 380 151 380 q 257 352 229 380 q 285 285 285 324 m 665 285 q 637 218 665 245 q 570 190 609 190 q 503 218 530 190 q 475 285 475 245 q 503 352 475 324 q 570 380 530 380 q 637 352 609 380 q 665 285 665 324 m 475 95 q 447 28 475 56 q 380 0 419 0 q 313 28 340 0 q 285 95 285 56 q 313 162 285 134 q 380 190 340 190 q 447 162 419 190 q 475 95 475 134 m 665 95 q 637 28 665 56 q 570 0 609 0 q 503 28 530 0 q 475 95 475 56 q 503 162 475 134 q 570 190 530 190 q 637 162 609 190 q 665 95 665 134 z "},"h":{"ha":760,"x_min":95,"x_max":665,"o":"m 285 854 q 257 787 285 815 q 190 760 229 760 q 123 787 151 760 q 95 854 95 815 q 123 922 95 894 q 190 949 151 949 q 257 922 229 949 q 285 854 285 894 m 665 854 q 637 787 665 815 q 570 760 609 760 q 503 787 530 760 q 475 854 475 815 q 503 922 475 894 q 570 949 530 949 q 637 922 609 949 q 665 854 665 894 m 285 665 q 257 597 285 625 q 190 570 229 570 q 123 597 151 570 q 95 665 95 625 q 123 732 95 704 q 190 760 151 760 q 257 732 229 760 q 285 665 285 704 m 665 665 q 637 597 665 625 q 570 570 609 570 q 503 597 530 570 q 475 665 475 625 q 503 732 475 704 q 570 760 530 760 q 637 732 609 760 q 665 665 665 704 m 285 475 q 257 408 285 435 q 190 380 229 380 q 123 408 151 380 q 95 475 95 435 q 123 542 95 514 q 190 570 151 570 q 257 542 229 570 q 285 475 285 514 m 475 475 q 447 408 475 435 q 380 380 419 380 q 313 408 340 380 q 285 475 285 435 q 313 542 285 514 q 380 570 340 570 q 447 542 419 570 q 475 475 475 514 m 665 475 q 637 408 665 435 q 570 380 609 380 q 503 408 530 380 q 475 475 475 435 q 503 542 475 514 q 570 570 530 570 q 637 542 609 570 q 665 475 665 514 m 285 285 q 257 218 285 245 q 190 190 229 190 q 123 218 151 190 q 95 285 95 245 q 123 352 95 324 q 190 380 151 380 q 257 352 229 380 q 285 285 285 324 m 665 285 q 637 218 665 245 q 570 190 609 190 q 503 218 530 190 q 475 285 475 245 q 503 352 475 324 q 570 380 530 380 q 637 352 609 380 q 665 285 665 324 m 285 95 q 257 28 285 56 q 190 0 229 0 q 123 28 151 0 q 95 95 95 56 q 123 162 95 134 q 190 190 151 190 q 257 162 229 190 q 285 95 285 134 m 665 95 q 637 28 665 56 q 570 0 609 0 q 503 28 530 0 q 475 95 475 56 q 503 162 475 134 q 570 190 530 190 q 637 162 609 190 q 665 95 665 134 z "},"i":{"ha":760,"x_min":95,"x_max":665,"o":"m 285 854 q 257 787 285 815 q 190 760 229 760 q 123 787 151 760 q 95 854 95 815 q 123 922 95 894 q 190 949 151 949 q 257 922 229 949 q 285 854 285 894 m 475 854 q 447 787 475 815 q 380 760 419 760 q 313 787 340 760 q 285 854 285 815 q 313 922 285 894 q 380 949 340 949 q 447 922 419 949 q 475 854 475 894 m 665 854 q 637 787 665 815 q 570 760 609 760 q 503 787 530 760 q 475 854 475 815 q 503 922 475 894 q 570 949 530 949 q 637 922 609 949 q 665 854 665 894 m 475 665 q 447 597 475 625 q 380 570 419 570 q 313 597 340 570 q 285 665 285 625 q 313 732 285 704 q 380 760 340 760 q 447 732 419 760 q 475 665 475 704 m 475 475 q 447 408 475 435 q 380 380 419 380 q 313 408 340 380 q 285 475 285 435 q 313 542 285 514 q 380 570 340 570 q 447 542 419 570 q 475 475 475 514 m 475 285 q 447 218 475 245 q 380 190 419 190 q 313 218 340 190 q 285 285 285 245 q 313 352 285 324 q 380 380 340 380 q 447 352 419 380 q 475 285 475 324 m 285 95 q 257 28 285 56 q 190 0 229 0 q 123 28 151 0 q 95 95 95 56 q 123 162 95 134 q 190 190 151 190 q 257 162 229 190 q 285 95 285 134 m 475 95 q 447 28 475 56 q 380 0 419 0 q 313 28 340 0 q 285 95 285 56 q 313 162 285 134 q 380 190 340 190 q 447 162 419 190 q 475 95 475 134 m 665 95 q 637 28 665 56 q 570 0 609 0 q 503 28 530 0 q 475 95 475 56 q 503 162 475 134 q 570 190 530 190 q 637 162 609 190 q 665 95 665 134 z "},"j":{"ha":760,"x_min":95,"x_max":665,"o":"m 475 854 q 447 787 475 815 q 380 760 419 760 q 313 787 340 760 q 285 854 285 815 q 313 922 285 894 q 380 949 340 949 q 447 922 419 949 q 475 854 475 894 m 665 854 q 637 787 665 815 q 570 760 609 760 q 503 787 530 760 q 475 854 475 815 q 503 922 475 894 q 570 949 530 949 q 637 922 609 949 q 665 854 665 894 m 665 665 q 637 597 665 625 q 570 570 609 570 q 503 597 530 570 q 475 665 475 625 q 503 732 475 704 q 570 760 530 760 q 637 732 609 760 q 665 665 665 704 m 665 475 q 637 408 665 435 q 570 380 609 380 q 503 408 530 380 q 475 475 475 435 q 503 542 475 514 q 570 570 530 570 q 637 542 609 570 q 665 475 665 514 m 285 285 q 257 218 285 245 q 190 190 229 190 q 123 218 151 190 q 95 285 95 245 q 123 352 95 324 q 190 380 151 380 q 257 352 229 380 q 285 285 285 324 m 665 285 q 637 218 665 245 q 570 190 609 190 q 503 218 530 190 q 475 285 475 245 q 503 352 475 324 q 570 380 530 380 q 637 352 609 380 q 665 285 665 324 m 475 95 q 447 28 475 56 q 380 0 419 0 q 313 28 340 0 q 285 95 285 56 q 313 162 285 134 q 380 190 340 190 q 447 162 419 190 q 475 95 475 134 z "},"k":{"ha":760,"x_min":95,"x_max":665,"o":"m 285 854 q 257 787 285 815 q 190 760 229 760 q 123 787 151 760 q 95 854 95 815 q 123 922 95 894 q 190 949 151 949 q 257 922 229 949 q 285 854 285 894 m 665 854 q 637 787 665 815 q 570 760 609 760 q 503 787 530 760 q 475 854 475 815 q 503 922 475 894 q 570 949 530 949 q 637 922 609 949 q 665 854 665 894 m 285 665 q 257 597 285 625 q 190 570 229 570 q 123 597 151 570 q 95 665 95 625 q 123 732 95 704 q 190 760 151 760 q 257 732 229 760 q 285 665 285 704 m 665 665 q 637 597 665 625 q 570 570 609 570 q 503 597 530 570 q 475 665 475 625 q 503 732 475 704 q 570 760 530 760 q 637 732 609 760 q 665 665 665 704 m 285 475 q 257 408 285 435 q 190 380 229 380 q 123 408 151 380 q 95 475 95 435 q 123 542 95 514 q 190 570 151 570 q 257 542 229 570 q 285 475 285 514 m 475 475 q 447 408 475 435 q 380 380 419 380 q 313 408 340 380 q 285 475 285 435 q 313 542 285 514 q 380 570 340 570 q 447 542 419 570 q 475 475 475 514 m 285 285 q 257 218 285 245 q 190 190 229 190 q 123 218 151 190 q 95 285 95 245 q 123 352 95 324 q 190 380 151 380 q 257 352 229 380 q 285 285 285 324 m 665 285 q 637 218 665 245 q 570 190 609 190 q 503 218 530 190 q 475 285 475 245 q 503 352 475 324 q 570 380 530 380 q 637 352 609 380 q 665 285 665 324 m 285 95 q 257 28 285 56 q 190 0 229 0 q 123 28 151 0 q 95 95 95 56 q 123 162 95 134 q 190 190 151 190 q 257 162 229 190 q 285 95 285 134 m 665 95 q 637 28 665 56 q 570 0 609 0 q 503 28 530 0 q 475 95 475 56 q 503 162 475 134 q 570 190 530 190 q 637 162 609 190 q 665 95 665 134 z "},"l":{"ha":760,"x_min":95,"x_max":665,"o":"m 285 854 q 257 787 285 815 q 190 760 229 760 q 123 787 151 760 q 95 854 95 815 q 123 922 95 894 q 190 949 151 949 q 257 922 229 949 q 285 854 285 894 m 285 665 q 257 597 285 625 q 190 570 229 570 q 123 597 151 570 q 95 665 95 625 q 123 732 95 704 q 190 760 151 760 q 257 732 229 760 q 285 665 285 704 m 285 475 q 257 408 285 435 q 190 380 229 380 q 123 408 151 380 q 95 475 95 435 q 123 542 95 514 q 190 570 151 570 q 257 542 229 570 q 285 475 285 514 m 285 285 q 257 218 285 245 q 190 190 229 190 q 123 218 151 190 q 95 285 95 245 q 123 352 95 324 q 190 380 151 380 q 257 352 229 380 q 285 285 285 324 m 285 95 q 257 28 285 56 q 190 0 229 0 q 123 28 151 0 q 95 95 95 56 q 123 162 95 134 q 190 190 151 190 q 257 162 229 190 q 285 95 285 134 m 475 95 q 447 28 475 56 q 380 0 419 0 q 313 28 340 0 q 285 95 285 56 q 313 162 285 134 q 380 190 340 190 q 447 162 419 190 q 475 95 475 134 m 665 95 q 637 28 665 56 q 570 0 609 0 q 503 28 530 0 q 475 95 475 56 q 503 162 475 134 q 570 190 530 190 q 637 162 609 190 q 665 95 665 134 z "},"m":{"ha":760,"x_min":95,"x_max":665,"o":"m 285 854 q 257 787 285 815 q 190 760 229 760 q 123 787 151 760 q 95 854 95 815 q 123 922 95 894 q 190 949 151 949 q 257 922 229 949 q 285 854 285 894 m 665 854 q 637 787 665 815 q 570 760 609 760 q 503 787 530 760 q 475 854 475 815 q 503 922 475 894 q 570 949 530 949 q 637 922 609 949 q 665 854 665 894 m 285 665 q 257 597 285 625 q 190 570 229 570 q 123 597 151 570 q 95 665 95 625 q 123 732 95 704 q 190 760 151 760 q 257 732 229 760 q 285 665 285 704 m 475 665 q 447 597 475 625 q 380 570 419 570 q 313 597 340 570 q 285 665 285 625 q 313 732 285 704 q 380 760 340 760 q 447 732 419 760 q 475 665 475 704 m 665 665 q 637 597 665 625 q 570 570 609 570 q 503 597 530 570 q 475 665 475 625 q 503 732 475 704 q 570 760 530 760 q 637 732 609 760 q 665 665 665 704 m 285 475 q 257 408 285 435 q 190 380 229 380 q 123 408 151 380 q 95 475 95 435 q 123 542 95 514 q 190 570 151 570 q 257 542 229 570 q 285 475 285 514 m 665 475 q 637 408 665 435 q 570 380 609 380 q 503 408 530 380 q 475 475 475 435 q 503 542 475 514 q 570 570 530 570 q 637 542 609 570 q 665 475 665 514 m 285 285 q 257 218 285 245 q 190 190 229 190 q 123 218 151 190 q 95 285 95 245 q 123 352 95 324 q 190 380 151 380 q 257 352 229 380 q 285 285 285 324 m 665 285 q 637 218 665 245 q 570 190 609 190 q 503 218 530 190 q 475 285 475 245 q 503 352 475 324 q 570 380 530 380 q 637 352 609 380 q 665 285 665 324 m 285 95 q 257 28 285 56 q 190 0 229 0 q 123 28 151 0 q 95 95 95 56 q 123 162 95 134 q 190 190 151 190 q 257 162 229 190 q 285 95 285 134 m 665 95 q 637 28 665 56 q 570 0 609 0 q 503 28 530 0 q 475 95 475 56 q 503 162 475 134 q 570 190 530 190 q 637 162 609 190 q 665 95 665 134 z "},"n":{"ha":760,"x_min":95,"x_max":665,"o":"m 285 854 q 257 787 285 815 q 190 760 229 760 q 123 787 151 760 q 95 854 95 815 q 123 922 95 894 q 190 949 151 949 q 257 922 229 949 q 285 854 285 894 m 475 854 q 447 787 475 815 q 380 760 419 760 q 313 787 340 760 q 285 854 285 815 q 313 922 285 894 q 380 949 340 949 q 447 922 419 949 q 475 854 475 894 m 285 665 q 257 597 285 625 q 190 570 229 570 q 123 597 151 570 q 95 665 95 625 q 123 732 95 704 q 190 760 151 760 q 257 732 229 760 q 285 665 285 704 m 665 665 q 637 597 665 625 q 570 570 609 570 q 503 597 530 570 q 475 665 475 625 q 503 732 475 704 q 570 760 530 760 q 637 732 609 760 q 665 665 665 704 m 285 475 q 257 408 285 435 q 190 380 229 380 q 123 408 151 380 q 95 475 95 435 q 123 542 95 514 q 190 570 151 570 q 257 542 229 570 q 285 475 285 514 m 665 475 q 637 408 665 435 q 570 380 609 380 q 503 408 530 380 q 475 475 475 435 q 503 542 475 514 q 570 570 530 570 q 637 542 609 570 q 665 475 665 514 m 285 285 q 257 218 285 245 q 190 190 229 190 q 123 218 151 190 q 95 285 95 245 q 123 352 95 324 q 190 380 151 380 q 257 352 229 380 q 285 285 285 324 m 665 285 q 637 218 665 245 q 570 190 609 190 q 503 218 530 190 q 475 285 475 245 q 503 352 475 324 q 570 380 530 380 q 637 352 609 380 q 665 285 665 324 m 285 95 q 257 28 285 56 q 190 0 229 0 q 123 28 151 0 q 95 95 95 56 q 123 162 95 134 q 190 190 151 190 q 257 162 229 190 q 285 95 285 134 m 665 95 q 637 28 665 56 q 570 0 609 0 q 503 28 530 0 q 475 95 475 56 q 503 162 475 134 q 570 190 530 190 q 637 162 609 190 q 665 95 665 134 z "},"o":{"ha":760,"x_min":95,"x_max":665,"o":"m 475 854 q 447 787 475 815 q 380 760 419 760 q 313 787 340 760 q 285 854 285 815 q 313 922 285 894 q 380 949 340 949 q 447 922 419 949 q 475 854 475 894 m 285 665 q 257 597 285 625 q 190 570 229 570 q 123 597 151 570 q 95 665 95 625 q 123 732 95 704 q 190 760 151 760 q 257 732 229 760 q 285 665 285 704 m 665 665 q 637 597 665 625 q 570 570 609 570 q 503 597 530 570 q 475 665 475 625 q 503 732 475 704 q 570 760 530 760 q 637 732 609 760 q 665 665 665 704 m 285 475 q 257 408 285 435 q 190 380 229 380 q 123 408 151 380 q 95 475 95 435 q 123 542 95 514 q 190 570 151 570 q 257 542 229 570 q 285 475 285 514 m 665 475 q 637 408 665 435 q 570 380 609 380 q 503 408 530 380 q 475 475 475 435 q 503 542 475 514 q 570 570 530 570 q 637 542 609 570 q 665 475 665 514 m 285 285 q 257 218 285 245 q 190 190 229 190 q 123 218 151 190 q 95 285 95 245 q 123 352 95 324 q 190 380 151 380 q 257 352 229 380 q 285 285 285 324 m 665 285 q 637 218 665 245 q 570 190 609 190 q 503 218 530 190 q 475 285 475 245 q 503 352 475 324 q 570 380 530 380 q 637 352 609 380 q 665 285 665 324 m 475 95 q 447 28 475 56 q 380 0 419 0 q 313 28 340 0 q 285 95 285 56 q 313 162 285 134 q 380 190 340 190 q 447 162 419 190 q 475 95 475 134 z "},"p":{"ha":760,"x_min":95,"x_max":665,"o":"m 285 854 q 257 787 285 815 q 190 760 229 760 q 123 787 151 760 q 95 854 95 815 q 123 922 95 894 q 190 949 151 949 q 257 922 229 949 q 285 854 285 894 m 475 854 q 447 787 475 815 q 380 760 419 760 q 313 787 340 760 q 285 854 285 815 q 313 922 285 894 q 380 949 340 949 q 447 922 419 949 q 475 854 475 894 m 285 665 q 257 597 285 625 q 190 570 229 570 q 123 597 151 570 q 95 665 95 625 q 123 732 95 704 q 190 760 151 760 q 257 732 229 760 q 285 665 285 704 m 665 665 q 637 597 665 625 q 570 570 609 570 q 503 597 530 570 q 475 665 475 625 q 503 732 475 704 q 570 760 530 760 q 637 732 609 760 q 665 665 665 704 m 285 475 q 257 408 285 435 q 190 380 229 380 q 123 408 151 380 q 95 475 95 435 q 123 542 95 514 q 190 570 151 570 q 257 542 229 570 q 285 475 285 514 m 475 475 q 447 408 475 435 q 380 380 419 380 q 313 408 340 380 q 285 475 285 435 q 313 542 285 514 q 380 570 340 570 q 447 542 419 570 q 475 475 475 514 m 285 285 q 257 218 285 245 q 190 190 229 190 q 123 218 151 190 q 95 285 95 245 q 123 352 95 324 q 190 380 151 380 q 257 352 229 380 q 285 285 285 324 m 285 95 q 257 28 285 56 q 190 0 229 0 q 123 28 151 0 q 95 95 95 56 q 123 162 95 134 q 190 190 151 190 q 257 162 229 190 q 285 95 285 134 z "},"q":{"ha":760,"x_min":95,"x_max":665,"o":"m 475 854 q 447 787 475 815 q 380 760 419 760 q 313 787 340 760 q 285 854 285 815 q 313 922 285 894 q 380 949 340 949 q 447 922 419 949 q 475 854 475 894 m 285 665 q 257 597 285 625 q 190 570 229 570 q 123 597 151 570 q 95 665 95 625 q 123 732 95 704 q 190 760 151 760 q 257 732 229 760 q 285 665 285 704 m 665 665 q 637 597 665 625 q 570 570 609 570 q 503 597 530 570 q 475 665 475 625 q 503 732 475 704 q 570 760 530 760 q 637 732 609 760 q 665 665 665 704 m 285 475 q 257 408 285 435 q 190 380 229 380 q 123 408 151 380 q 95 475 95 435 q 123 542 95 514 q 190 570 151 570 q 257 542 229 570 q 285 475 285 514 m 665 475 q 637 408 665 435 q 570 380 609 380 q 503 408 530 380 q 475 475 475 435 q 503 542 475 514 q 570 570 530 570 q 637 542 609 570 q 665 475 665 514 m 285 285 q 257 218 285 245 q 190 190 229 190 q 123 218 151 190 q 95 285 95 245 q 123 352 95 324 q 190 380 151 380 q 257 352 229 380 q 285 285 285 324 m 475 285 q 447 218 475 245 q 380 190 419 190 q 313 218 340 190 q 285 285 285 245 q 313 352 285 324 q 380 380 340 380 q 447 352 419 380 q 475 285 475 324 m 665 285 q 637 218 665 245 q 570 190 609 190 q 503 218 530 190 q 475 285 475 245 q 503 352 475 324 q 570 380 530 380 q 637 352 609 380 q 665 285 665 324 m 475 95 q 447 28 475 56 q 380 0 419 0 q 313 28 340 0 q 285 95 285 56 q 313 162 285 134 q 380 190 340 190 q 447 162 419 190 q 475 95 475 134 m 665 95 q 637 28 665 56 q 570 0 609 0 q 503 28 530 0 q 475 95 475 56 q 503 162 475 134 q 570 190 530 190 q 637 162 609 190 q 665 95 665 134 z "},"r":{"ha":760,"x_min":95,"x_max":665,"o":"m 285 854 q 257 787 285 815 q 190 760 229 760 q 123 787 151 760 q 95 854 95 815 q 123 922 95 894 q 190 949 151 949 q 257 922 229 949 q 285 854 285 894 m 475 854 q 447 787 475 815 q 380 760 419 760 q 313 787 340 760 q 285 854 285 815 q 313 922 285 894 q 380 949 340 949 q 447 922 419 949 q 475 854 475 894 m 285 665 q 257 597 285 625 q 190 570 229 570 q 123 597 151 570 q 95 665 95 625 q 123 732 95 704 q 190 760 151 760 q 257 732 229 760 q 285 665 285 704 m 665 665 q 637 597 665 625 q 570 570 609 570 q 503 597 530 570 q 475 665 475 625 q 503 732 475 704 q 570 760 530 760 q 637 732 609 760 q 665 665 665 704 m 285 475 q 257 408 285 435 q 190 380 229 380 q 123 408 151 380 q 95 475 95 435 q 123 542 95 514 q 190 570 151 570 q 257 542 229 570 q 285 475 285 514 m 475 475 q 447 408 475 435 q 380 380 419 380 q 313 408 340 380 q 285 475 285 435 q 313 542 285 514 q 380 570 340 570 q 447 542 419 570 q 475 475 475 514 m 285 285 q 257 218 285 245 q 190 190 229 190 q 123 218 151 190 q 95 285 95 245 q 123 352 95 324 q 190 380 151 380 q 257 352 229 380 q 285 285 285 324 m 665 285 q 637 218 665 245 q 570 190 609 190 q 503 218 530 190 q 475 285 475 245 q 503 352 475 324 q 570 380 530 380 q 637 352 609 380 q 665 285 665 324 m 285 95 q 257 28 285 56 q 190 0 229 0 q 123 28 151 0 q 95 95 95 56 q 123 162 95 134 q 190 190 151 190 q 257 162 229 190 q 285 95 285 134 m 665 95 q 637 28 665 56 q 570 0 609 0 q 503 28 530 0 q 475 95 475 56 q 503 162 475 134 q 570 190 530 190 q 637 162 609 190 q 665 95 665 134 z "},"s":{"ha":760,"x_min":95,"x_max":665,"o":"m 475 854 q 447 787 475 815 q 380 760 419 760 q 313 787 340 760 q 285 854 285 815 q 313 922 285 894 q 380 949 340 949 q 447 922 419 949 q 475 854 475 894 m 665 854 q 637 787 665 815 q 570 760 609 760 q 503 787 530 760 q 475 854 475 815 q 503 922 475 894 q 570 949 530 949 q 637 922 609 949 q 665 854 665 894 m 285 665 q 257 597 285 625 q 190 570 229 570 q 123 597 151 570 q 95 665 95 625 q 123 732 95 704 q 190 760 151 760 q 257 732 229 760 q 285 665 285 704 m 285 475 q 257 408 285 435 q 190 380 229 380 q 123 408 151 380 q 95 475 95 435 q 123 542 95 514 q 190 570 151 570 q 257 542 229 570 q 285 475 285 514 m 475 475 q 447 408 475 435 q 380 380 419 380 q 313 408 340 380 q 285 475 285 435 q 313 542 285 514 q 380 570 340 570 q 447 542 419 570 q 475 475 475 514 m 665 475 q 637 408 665 435 q 570 380 609 380 q 503 408 530 380 q 475 475 475 435 q 503 542 475 514 q 570 570 530 570 q 637 542 609 570 q 665 475 665 514 m 665 285 q 637 218 665 245 q 570 190 609 190 q 503 218 530 190 q 475 285 475 245 q 503 352 475 324 q 570 380 530 380 q 637 352 609 380 q 665 285 665 324 m 285 95 q 257 28 285 56 q 190 0 229 0 q 123 28 151 0 q 95 95 95 56 q 123 162 95 134 q 190 190 151 190 q 257 162 229 190 q 285 95 285 134 m 475 95 q 447 28 475 56 q 380 0 419 0 q 313 28 340 0 q 285 95 285 56 q 313 162 285 134 q 380 190 340 190 q 447 162 419 190 q 475 95 475 134 z "},"t":{"ha":760,"x_min":95,"x_max":665,"o":"m 285 854 q 257 787 285 815 q 190 760 229 760 q 123 787 151 760 q 95 854 95 815 q 123 922 95 894 q 190 949 151 949 q 257 922 229 949 q 285 854 285 894 m 475 854 q 447 787 475 815 q 380 760 419 760 q 313 787 340 760 q 285 854 285 815 q 313 922 285 894 q 380 949 340 949 q 447 922 419 949 q 475 854 475 894 m 665 854 q 637 787 665 815 q 570 760 609 760 q 503 787 530 760 q 475 854 475 815 q 503 922 475 894 q 570 949 530 949 q 637 922 609 949 q 665 854 665 894 m 475 665 q 447 597 475 625 q 380 570 419 570 q 313 597 340 570 q 285 665 285 625 q 313 732 285 704 q 380 760 340 760 q 447 732 419 760 q 475 665 475 704 m 475 475 q 447 408 475 435 q 380 380 419 380 q 313 408 340 380 q 285 475 285 435 q 313 542 285 514 q 380 570 340 570 q 447 542 419 570 q 475 475 475 514 m 475 285 q 447 218 475 245 q 380 190 419 190 q 313 218 340 190 q 285 285 285 245 q 313 352 285 324 q 380 380 340 380 q 447 352 419 380 q 475 285 475 324 m 475 95 q 447 28 475 56 q 380 0 419 0 q 313 28 340 0 q 285 95 285 56 q 313 162 285 134 q 380 190 340 190 q 447 162 419 190 q 475 95 475 134 z "},"u":{"ha":760,"x_min":95,"x_max":665,"o":"m 285 854 q 257 787 285 815 q 190 760 229 760 q 123 787 151 760 q 95 854 95 815 q 123 922 95 894 q 190 949 151 949 q 257 922 229 949 q 285 854 285 894 m 665 854 q 637 787 665 815 q 570 760 609 760 q 503 787 530 760 q 475 854 475 815 q 503 922 475 894 q 570 949 530 949 q 637 922 609 949 q 665 854 665 894 m 285 665 q 257 597 285 625 q 190 570 229 570 q 123 597 151 570 q 95 665 95 625 q 123 732 95 704 q 190 760 151 760 q 257 732 229 760 q 285 665 285 704 m 665 665 q 637 597 665 625 q 570 570 609 570 q 503 597 530 570 q 475 665 475 625 q 503 732 475 704 q 570 760 530 760 q 637 732 609 760 q 665 665 665 704 m 285 475 q 257 408 285 435 q 190 380 229 380 q 123 408 151 380 q 95 475 95 435 q 123 542 95 514 q 190 570 151 570 q 257 542 229 570 q 285 475 285 514 m 665 475 q 637 408 665 435 q 570 380 609 380 q 503 408 530 380 q 475 475 475 435 q 503 542 475 514 q 570 570 530 570 q 637 542 609 570 q 665 475 665 514 m 285 285 q 257 218 285 245 q 190 190 229 190 q 123 218 151 190 q 95 285 95 245 q 123 352 95 324 q 190 380 151 380 q 257 352 229 380 q 285 285 285 324 m 665 285 q 637 218 665 245 q 570 190 609 190 q 503 218 530 190 q 475 285 475 245 q 503 352 475 324 q 570 380 530 380 q 637 352 609 380 q 665 285 665 324 m 285 95 q 257 28 285 56 q 190 0 229 0 q 123 28 151 0 q 95 95 95 56 q 123 162 95 134 q 190 190 151 190 q 257 162 229 190 q 285 95 285 134 m 475 95 q 447 28 475 56 q 380 0 419 0 q 313 28 340 0 q 285 95 285 56 q 313 162 285 134 q 380 190 340 190 q 447 162 419 190 q 475 95 475 134 m 665 95 q 637 28 665 56 q 570 0 609 0 q 503 28 530 0 q 475 95 475 56 q 503 162 475 134 q 570 190 530 190 q 637 162 609 190 q 665 95 665 134 z "},"v":{"ha":760,"x_min":95,"x_max":665,"o":"m 285 854 q 257 787 285 815 q 190 760 229 760 q 123 787 151 760 q 95 854 95 815 q 123 922 95 894 q 190 949 151 949 q 257 922 229 949 q 285 854 285 894 m 665 854 q 637 787 665 815 q 570 760 609 760 q 503 787 530 760 q 475 854 475 815 q 503 922 475 894 q 570 949 530 949 q 637 922 609 949 q 665 854 665 894 m 285 665 q 257 597 285 625 q 190 570 229 570 q 123 597 151 570 q 95 665 95 625 q 123 732 95 704 q 190 760 151 760 q 257 732 229 760 q 285 665 285 704 m 665 665 q 637 597 665 625 q 570 570 609 570 q 503 597 530 570 q 475 665 475 625 q 503 732 475 704 q 570 760 530 760 q 637 732 609 760 q 665 665 665 704 m 285 475 q 257 408 285 435 q 190 380 229 380 q 123 408 151 380 q 95 475 95 435 q 123 542 95 514 q 190 570 151 570 q 257 542 229 570 q 285 475 285 514 m 665 475 q 637 408 665 435 q 570 380 609 380 q 503 408 530 380 q 475 475 475 435 q 503 542 475 514 q 570 570 530 570 q 637 542 609 570 q 665 475 665 514 m 475 285 q 447 218 475 245 q 380 190 419 190 q 313 218 340 190 q 285 285 285 245 q 313 352 285 324 q 380 380 340 380 q 447 352 419 380 q 475 285 475 324 m 475 95 q 447 28 475 56 q 380 0 419 0 q 313 28 340 0 q 285 95 285 56 q 313 162 285 134 q 380 190 340 190 q 447 162 419 190 q 475 95 475 134 z "},"w":{"ha":760,"x_min":95,"x_max":665,"o":"m 285 854 q 257 787 285 815 q 190 760 229 760 q 123 787 151 760 q 95 854 95 815 q 123 922 95 894 q 190 949 151 949 q 257 922 229 949 q 285 854 285 894 m 665 854 q 637 787 665 815 q 570 760 609 760 q 503 787 530 760 q 475 854 475 815 q 503 922 475 894 q 570 949 530 949 q 637 922 609 949 q 665 854 665 894 m 285 665 q 257 597 285 625 q 190 570 229 570 q 123 597 151 570 q 95 665 95 625 q 123 732 95 704 q 190 760 151 760 q 257 732 229 760 q 285 665 285 704 m 665 665 q 637 597 665 625 q 570 570 609 570 q 503 597 530 570 q 475 665 475 625 q 503 732 475 704 q 570 760 530 760 q 637 732 609 760 q 665 665 665 704 m 285 475 q 257 408 285 435 q 190 380 229 380 q 123 408 151 380 q 95 475 95 435 q 123 542 95 514 q 190 570 151 570 q 257 542 229 570 q 285 475 285 514 m 665 475 q 637 408 665 435 q 570 380 609 380 q 503 408 530 380 q 475 475 475 435 q 503 542 475 514 q 570 570 530 570 q 637 542 609 570 q 665 475 665 514 m 285 285 q 257 218 285 245 q 190 190 229 190 q 123 218 151 190 q 95 285 95 245 q 123 352 95 324 q 190 380 151 380 q 257 352 229 380 q 285 285 285 324 m 475 285 q 447 218 475 245 q 380 190 419 190 q 313 218 340 190 q 285 285 285 245 q 313 352 285 324 q 380 380 340 380 q 447 352 419 380 q 475 285 475 324 m 665 285 q 637 218 665 245 q 570 190 609 190 q 503 218 530 190 q 475 285 475 245 q 503 352 475 324 q 570 380 530 380 q 637 352 609 380 q 665 285 665 324 m 285 95 q 257 28 285 56 q 190 0 229 0 q 123 28 151 0 q 95 95 95 56 q 123 162 95 134 q 190 190 151 190 q 257 162 229 190 q 285 95 285 134 m 665 95 q 637 28 665 56 q 570 0 609 0 q 503 28 530 0 q 475 95 475 56 q 503 162 475 134 q 570 190 530 190 q 637 162 609 190 q 665 95 665 134 z "},"x":{"ha":760,"x_min":95,"x_max":665,"o":"m 285 854 q 257 787 285 815 q 190 760 229 760 q 123 787 151 760 q 95 854 95 815 q 123 922 95 894 q 190 949 151 949 q 257 922 229 949 q 285 854 285 894 m 665 854 q 637 787 665 815 q 570 760 609 760 q 503 787 530 760 q 475 854 475 815 q 503 922 475 894 q 570 949 530 949 q 637 922 609 949 q 665 854 665 894 m 285 665 q 257 597 285 625 q 190 570 229 570 q 123 597 151 570 q 95 665 95 625 q 123 732 95 704 q 190 760 151 760 q 257 732 229 760 q 285 665 285 704 m 665 665 q 637 597 665 625 q 570 570 609 570 q 503 597 530 570 q 475 665 475 625 q 503 732 475 704 q 570 760 530 760 q 637 732 609 760 q 665 665 665 704 m 475 475 q 447 408 475 435 q 380 380 419 380 q 313 408 340 380 q 285 475 285 435 q 313 542 285 514 q 380 570 340 570 q 447 542 419 570 q 475 475 475 514 m 285 285 q 257 218 285 245 q 190 190 229 190 q 123 218 151 190 q 95 285 95 245 q 123 352 95 324 q 190 380 151 380 q 257 352 229 380 q 285 285 285 324 m 665 285 q 637 218 665 245 q 570 190 609 190 q 503 218 530 190 q 475 285 475 245 q 503 352 475 324 q 570 380 530 380 q 637 352 609 380 q 665 285 665 324 m 285 95 q 257 28 285 56 q 190 0 229 0 q 123 28 151 0 q 95 95 95 56 q 123 162 95 134 q 190 190 151 190 q 257 162 229 190 q 285 95 285 134 m 665 95 q 637 28 665 56 q 570 0 609 0 q 503 28 530 0 q 475 95 475 56 q 503 162 475 134 q 570 190 530 190 q 637 162 609 190 q 665 95 665 134 z "},"y":{"ha":760,"x_min":95,"x_max":665,"o":"m 285 854 q 257 787 285 815 q 190 760 229 760 q 123 787 151 760 q 95 854 95 815 q 123 922 95 894 q 190 949 151 949 q 257 922 229 949 q 285 854 285 894 m 665 854 q 637 787 665 815 q 570 760 609 760 q 503 787 530 760 q 475 854 475 815 q 503 922 475 894 q 570 949 530 949 q 637 922 609 949 q 665 854 665 894 m 285 665 q 257 597 285 625 q 190 570 229 570 q 123 597 151 570 q 95 665 95 625 q 123 732 95 704 q 190 760 151 760 q 257 732 229 760 q 285 665 285 704 m 665 665 q 637 597 665 625 q 570 570 609 570 q 503 597 530 570 q 475 665 475 625 q 503 732 475 704 q 570 760 530 760 q 637 732 609 760 q 665 665 665 704 m 475 475 q 447 408 475 435 q 380 380 419 380 q 313 408 340 380 q 285 475 285 435 q 313 542 285 514 q 380 570 340 570 q 447 542 419 570 q 475 475 475 514 m 475 285 q 447 218 475 245 q 380 190 419 190 q 313 218 340 190 q 285 285 285 245 q 313 352 285 324 q 380 380 340 380 q 447 352 419 380 q 475 285 475 324 m 475 95 q 447 28 475 56 q 380 0 419 0 q 313 28 340 0 q 285 95 285 56 q 313 162 285 134 q 380 190 340 190 q 447 162 419 190 q 475 95 475 134 z "},"z":{"ha":760,"x_min":95,"x_max":665,"o":"m 285 854 q 257 787 285 815 q 190 760 229 760 q 123 787 151 760 q 95 854 95 815 q 123 922 95 894 q 190 949 151 949 q 257 922 229 949 q 285 854 285 894 m 475 854 q 447 787 475 815 q 380 760 419 760 q 313 787 340 760 q 285 854 285 815 q 313 922 285 894 q 380 949 340 949 q 447 922 419 949 q 475 854 475 894 m 665 854 q 637 787 665 815 q 570 760 609 760 q 503 787 530 760 q 475 854 475 815 q 503 922 475 894 q 570 949 530 949 q 637 922 609 949 q 665 854 665 894 m 665 665 q 637 597 665 625 q 570 570 609 570 q 503 597 530 570 q 475 665 475 625 q 503 732 475 704 q 570 760 530 760 q 637 732 609 760 q 665 665 665 704 m 475 475 q 447 408 475 435 q 380 380 419 380 q 313 408 340 380 q 285 475 285 435 q 313 542 285 514 q 380 570 340 570 q 447 542 419 570 q 475 475 475 514 m 285 285 q 257 218 285 245 q 190 190 229 190 q 123 218 151 190 q 95 285 95 245 q 123 352 95 324 q 190 380 151 380 q 257 352 229 380 q 285 285 285 324 m 285 95 q 257 28 285 56 q 190 0 229 0 q 123 28 151 0 q 95 95 95 56 q 123 162 95 134 q 190 190 151 190 q 257 162 229 190 q 285 95 285 134 m 475 95 q 447 28 475 56 q 380 0 419 0 q 313 28 340 0 q 285 95 285 56 q 313 162 285 134 q 380 190 340 190 q 447 162 419 190 q 475 95 475 134 m 665 95 q 637 28 665 56 q 570 0 609 0 q 503 28 530 0 q 475 95 475 56 q 503 162 475 134 q 570 190 530 190 q 637 162 609 190 q 665 95 665 134 z "},"{":{"ha":760,"x_min":95,"x_max":665,"o":"m 475 854 q 447 787 475 815 q 380 760 419 760 q 313 787 340 760 q 285 854 285 815 q 313 922 285 894 q 380 949 340 949 q 447 922 419 949 q 475 854 475 894 m 665 854 q 637 787 665 815 q 570 760 609 760 q 503 787 530 760 q 475 854 475 815 q 503 922 475 894 q 570 949 530 949 q 637 922 609 949 q 665 854 665 894 m 475 665 q 447 597 475 625 q 380 570 419 570 q 313 597 340 570 q 285 665 285 625 q 313 732 285 704 q 380 760 340 760 q 447 732 419 760 q 475 665 475 704 m 285 475 q 257 408 285 435 q 190 380 229 380 q 123 408 151 380 q 95 475 95 435 q 123 542 95 514 q 190 570 151 570 q 257 542 229 570 q 285 475 285 514 m 475 475 q 447 408 475 435 q 380 380 419 380 q 313 408 340 380 q 285 475 285 435 q 313 542 285 514 q 380 570 340 570 q 447 542 419 570 q 475 475 475 514 m 475 285 q 447 218 475 245 q 380 190 419 190 q 313 218 340 190 q 285 285 285 245 q 313 352 285 324 q 380 380 340 380 q 447 352 419 380 q 475 285 475 324 m 475 95 q 447 28 475 56 q 380 0 419 0 q 313 28 340 0 q 285 95 285 56 q 313 162 285 134 q 380 190 340 190 q 447 162 419 190 q 475 95 475 134 m 665 95 q 637 28 665 56 q 570 0 609 0 q 503 28 530 0 q 475 95 475 56 q 503 162 475 134 q 570 190 530 190 q 637 162 609 190 q 665 95 665 134 z "},"|":{"ha":760,"x_min":285,"x_max":475,"o":"m 475 854 q 447 787 475 815 q 380 760 419 760 q 313 787 340 760 q 285 854 285 815 q 313 922 285 894 q 380 949 340 949 q 447 922 419 949 q 475 854 475 894 m 475 665 q 447 597 475 625 q 380 570 419 570 q 313 597 340 570 q 285 665 285 625 q 313 732 285 704 q 380 760 340 760 q 447 732 419 760 q 475 665 475 704 m 475 475 q 447 408 475 435 q 380 380 419 380 q 313 408 340 380 q 285 475 285 435 q 313 542 285 514 q 380 570 340 570 q 447 542 419 570 q 475 475 475 514 m 475 285 q 447 218 475 245 q 380 190 419 190 q 313 218 340 190 q 285 285 285 245 q 313 352 285 324 q 380 380 340 380 q 447 352 419 380 q 475 285 475 324 m 475 95 q 447 28 475 56 q 380 0 419 0 q 313 28 340 0 q 285 95 285 56 q 313 162 285 134 q 380 190 340 190 q 447 162 419 190 q 475 95 475 134 z "},"}":{"ha":760,"x_min":95,"x_max":665,"o":"m 285 854 q 257 787 285 815 q 190 760 229 760 q 123 787 151 760 q 95 854 95 815 q 123 922 95 894 q 190 949 151 949 q 257 922 229 949 q 285 854 285 894 m 475 854 q 447 787 475 815 q 380 760 419 760 q 313 787 340 760 q 285 854 285 815 q 313 922 285 894 q 380 949 340 949 q 447 922 419 949 q 475 854 475 894 m 475 665 q 447 597 475 625 q 380 570 419 570 q 313 597 340 570 q 285 665 285 625 q 313 732 285 704 q 380 760 340 760 q 447 732 419 760 q 475 665 475 704 m 475 475 q 447 408 475 435 q 380 380 419 380 q 313 408 340 380 q 285 475 285 435 q 313 542 285 514 q 380 570 340 570 q 447 542 419 570 q 475 475 475 514 m 665 475 q 637 408 665 435 q 570 380 609 380 q 503 408 530 380 q 475 475 475 435 q 503 542 475 514 q 570 570 530 570 q 637 542 609 570 q 665 475 665 514 m 475 285 q 447 218 475 245 q 380 190 419 190 q 313 218 340 190 q 285 285 285 245 q 313 352 285 324 q 380 380 340 380 q 447 352 419 380 q 475 285 475 324 m 285 95 q 257 28 285 56 q 190 0 229 0 q 123 28 151 0 q 95 95 95 56 q 123 162 95 134 q 190 190 151 190 q 257 162 229 190 q 285 95 285 134 m 475 95 q 447 28 475 56 q 380 0 419 0 q 313 28 340 0 q 285 95 285 56 q 313 162 285 134 q 380 190 340 190 q 447 162 419 190 q 475 95 475 134 z "},"¢":{"ha":760,"x_min":95,"x_max":665,"o":"m 475 854 q 447 787 475 815 q 380 760 419 760 q 313 787 340 760 q 285 854 285 815 q 313 922 285 894 q 380 949 340 949 q 447 922 419 949 q 475 854 475 894 m 285 665 q 257 597 285 625 q 190 570 229 570 q 123 597 151 570 q 95 665 95 625 q 123 732 95 704 q 190 760 151 760 q 257 732 229 760 q 285 665 285 704 m 475 665 q 447 597 475 625 q 380 570 419 570 q 313 597 340 570 q 285 665 285 625 q 313 732 285 704 q 380 760 340 760 q 447 732 419 760 q 475 665 475 704 m 665 665 q 637 597 665 625 q 570 570 609 570 q 503 597 530 570 q 475 665 475 625 q 503 732 475 704 q 570 760 530 760 q 637 732 609 760 q 665 665 665 704 m 285 475 q 257 408 285 435 q 190 380 229 380 q 123 408 151 380 q 95 475 95 435 q 123 542 95 514 q 190 570 151 570 q 257 542 229 570 q 285 475 285 514 m 475 475 q 447 408 475 435 q 380 380 419 380 q 313 408 340 380 q 285 475 285 435 q 313 542 285 514 q 380 570 340 570 q 447 542 419 570 q 475 475 475 514 m 285 285 q 257 218 285 245 q 190 190 229 190 q 123 218 151 190 q 95 285 95 245 q 123 352 95 324 q 190 380 151 380 q 257 352 229 380 q 285 285 285 324 m 475 285 q 447 218 475 245 q 380 190 419 190 q 313 218 340 190 q 285 285 285 245 q 313 352 285 324 q 380 380 340 380 q 447 352 419 380 q 475 285 475 324 m 665 285 q 637 218 665 245 q 570 190 609 190 q 503 218 530 190 q 475 285 475 245 q 503 352 475 324 q 570 380 530 380 q 637 352 609 380 q 665 285 665 324 m 475 95 q 447 28 475 56 q 380 0 419 0 q 313 28 340 0 q 285 95 285 56 q 313 162 285 134 q 380 190 340 190 q 447 162 419 190 q 475 95 475 134 z "},"¦":{"ha":760,"x_min":285,"x_max":475,"o":"m 475 854 q 447 787 475 815 q 380 760 419 760 q 313 787 340 760 q 285 854 285 815 q 313 922 285 894 q 380 949 340 949 q 447 922 419 949 q 475 854 475 894 m 475 665 q 447 597 475 625 q 380 570 419 570 q 313 597 340 570 q 285 665 285 625 q 313 732 285 704 q 380 760 340 760 q 447 732 419 760 q 475 665 475 704 m 475 285 q 447 218 475 245 q 380 190 419 190 q 313 218 340 190 q 285 285 285 245 q 313 352 285 324 q 380 380 340 380 q 447 352 419 380 q 475 285 475 324 m 475 95 q 447 28 475 56 q 380 0 419 0 q 313 28 340 0 q 285 95 285 56 q 313 162 285 134 q 380 190 340 190 q 447 162 419 190 q 475 95 475 134 z "},"¬":{"ha":760,"x_min":95,"x_max":665,"o":"m 285 475 q 257 408 285 435 q 190 380 229 380 q 123 408 151 380 q 95 475 95 435 q 123 542 95 514 q 190 570 151 570 q 257 542 229 570 q 285 475 285 514 m 475 475 q 447 408 475 435 q 380 380 419 380 q 313 408 340 380 q 285 475 285 435 q 313 542 285 514 q 380 570 340 570 q 447 542 419 570 q 475 475 475 514 m 665 475 q 637 408 665 435 q 570 380 609 380 q 503 408 530 380 q 475 475 475 435 q 503 542 475 514 q 570 570 530 570 q 637 542 609 570 q 665 475 665 514 m 665 285 q 637 218 665 245 q 570 190 609 190 q 503 218 530 190 q 475 285 475 245 q 503 352 475 324 q 570 380 530 380 q 637 352 609 380 q 665 285 665 324 z "},"±":{"ha":760,"x_min":95,"x_max":665,"o":"m 475 854 q 447 787 475 815 q 380 760 419 760 q 313 787 340 760 q 285 854 285 815 q 313 922 285 894 q 380 949 340 949 q 447 922 419 949 q 475 854 475 894 m 285 665 q 257 597 285 625 q 190 570 229 570 q 123 597 151 570 q 95 665 95 625 q 123 732 95 704 q 190 760 151 760 q 257 732 229 760 q 285 665 285 704 m 475 665 q 447 597 475 625 q 380 570 419 570 q 313 597 340 570 q 285 665 285 625 q 313 732 285 704 q 380 760 340 760 q 447 732 419 760 q 475 665 475 704 m 665 665 q 637 597 665 625 q 570 570 609 570 q 503 597 530 570 q 475 665 475 625 q 503 732 475 704 q 570 760 530 760 q 637 732 609 760 q 665 665 665 704 m 475 475 q 447 408 475 435 q 380 380 419 380 q 313 408 340 380 q 285 475 285 435 q 313 542 285 514 q 380 570 340 570 q 447 542 419 570 q 475 475 475 514 m 285 95 q 257 28 285 56 q 190 0 229 0 q 123 28 151 0 q 95 95 95 56 q 123 162 95 134 q 190 190 151 190 q 257 162 229 190 q 285 95 285 134 m 475 95 q 447 28 475 56 q 380 0 419 0 q 313 28 340 0 q 285 95 285 56 q 313 162 285 134 q 380 190 340 190 q 447 162 419 190 q 475 95 475 134 m 665 95 q 637 28 665 56 q 570 0 609 0 q 503 28 530 0 q 475 95 475 56 q 503 162 475 134 q 570 190 530 190 q 637 162 609 190 q 665 95 665 134 z "},"µ":{"ha":760,"x_min":95,"x_max":665,"o":"m 285 854 q 257 787 285 815 q 190 760 229 760 q 123 787 151 760 q 95 854 95 815 q 123 922 95 894 q 190 949 151 949 q 257 922 229 949 q 285 854 285 894 m 665 854 q 637 787 665 815 q 570 760 609 760 q 503 787 530 760 q 475 854 475 815 q 503 922 475 894 q 570 949 530 949 q 637 922 609 949 q 665 854 665 894 m 285 665 q 257 597 285 625 q 190 570 229 570 q 123 597 151 570 q 95 665 95 625 q 123 732 95 704 q 190 760 151 760 q 257 732 229 760 q 285 665 285 704 m 665 665 q 637 597 665 625 q 570 570 609 570 q 503 597 530 570 q 475 665 475 625 q 503 732 475 704 q 570 760 530 760 q 637 732 609 760 q 665 665 665 704 m 285 475 q 257 408 285 435 q 190 380 229 380 q 123 408 151 380 q 95 475 95 435 q 123 542 95 514 q 190 570 151 570 q 257 542 229 570 q 285 475 285 514 m 665 475 q 637 408 665 435 q 570 380 609 380 q 503 408 530 380 q 475 475 475 435 q 503 542 475 514 q 570 570 530 570 q 637 542 609 570 q 665 475 665 514 m 285 285 q 257 218 285 245 q 190 190 229 190 q 123 218 151 190 q 95 285 95 245 q 123 352 95 324 q 190 380 151 380 q 257 352 229 380 q 285 285 285 324 m 475 285 q 447 218 475 245 q 380 190 419 190 q 313 218 340 190 q 285 285 285 245 q 313 352 285 324 q 380 380 340 380 q 447 352 419 380 q 475 285 475 324 m 285 95 q 257 28 285 56 q 190 0 229 0 q 123 28 151 0 q 95 95 95 56 q 123 162 95 134 q 190 190 151 190 q 257 162 229 190 q 285 95 285 134 z "},"·":{"ha":760,"x_min":285,"x_max":475,"o":"m 475 475 q 447 408 475 435 q 380 380 419 380 q 313 408 340 380 q 285 475 285 435 q 313 542 285 514 q 380 570 340 570 q 447 542 419 570 q 475 475 475 514 z "},"∙":{"ha":760,"x_min":285,"x_max":475,"o":"m 475 475 q 447 408 475 435 q 380 380 419 380 q 313 408 340 380 q 285 475 285 435 q 313 542 285 514 q 380 570 340 570 q 447 542 419 570 q 475 475 475 514 z "},"×":{"ha":760,"x_min":95,"x_max":665,"o":"m 285 665 q 257 597 285 625 q 190 570 229 570 q 123 597 151 570 q 95 665 95 625 q 123 732 95 704 q 190 760 151 760 q 257 732 229 760 q 285 665 285 704 m 665 665 q 637 597 665 625 q 570 570 609 570 q 503 597 530 570 q 475 665 475 625 q 503 732 475 704 q 570 760 530 760 q 637 732 609 760 q 665 665 665 704 m 475 475 q 447 408 475 435 q 380 380 419 380 q 313 408 340 380 q 285 475 285 435 q 313 542 285 514 q 380 570 340 570 q 447 542 419 570 q 475 475 475 514 m 285 285 q 257 218 285 245 q 190 190 229 190 q 123 218 151 190 q 95 285 95 245 q 123 352 95 324 q 190 380 151 380 q 257 352 229 380 q 285 285 285 324 m 665 285 q 637 218 665 245 q 570 190 609 190 q 503 218 530 190 q 475 285 475 245 q 503 352 475 324 q 570 380 530 380 q 637 352 609 380 q 665 285 665 324 z "},"÷":{"ha":760,"x_min":95,"x_max":665,"o":"m 475 854 q 447 787 475 815 q 380 760 419 760 q 313 787 340 760 q 285 854 285 815 q 313 922 285 894 q 380 949 340 949 q 447 922 419 949 q 475 854 475 894 m 285 475 q 257 408 285 435 q 190 380 229 380 q 123 408 151 380 q 95 475 95 435 q 123 542 95 514 q 190 570 151 570 q 257 542 229 570 q 285 475 285 514 m 475 475 q 447 408 475 435 q 380 380 419 380 q 313 408 340 380 q 285 475 285 435 q 313 542 285 514 q 380 570 340 570 q 447 542 419 570 q 475 475 475 514 m 665 475 q 637 408 665 435 q 570 380 609 380 q 503 408 530 380 q 475 475 475 435 q 503 542 475 514 q 570 570 530 570 q 637 542 609 570 q 665 475 665 514 m 475 95 q 447 28 475 56 q 380 0 419 0 q 313 28 340 0 q 285 95 285 56 q 313 162 285 134 q 380 190 340 190 q 447 162 419 190 q 475 95 475 134 z "},"–":{"ha":760,"x_min":95,"x_max":665,"o":"m 285 475 q 257 408 285 435 q 190 380 229 380 q 123 408 151 380 q 95 475 95 435 q 123 542 95 514 q 190 570 151 570 q 257 542 229 570 q 285 475 285 514 m 475 475 q 447 408 475 435 q 380 380 419 380 q 313 408 340 380 q 285 475 285 435 q 313 542 285 514 q 380 570 340 570 q 447 542 419 570 q 475 475 475 514 m 665 475 q 637 408 665 435 q 570 380 609 380 q 503 408 530 380 q 475 475 475 435 q 503 542 475 514 q 570 570 530 570 q 637 542 609 570 q 665 475 665 514 z "},"—":{"ha":760,"x_min":95,"x_max":665,"o":"m 285 475 q 257 408 285 435 q 190 380 229 380 q 123 408 151 380 q 95 475 95 435 q 123 542 95 514 q 190 570 151 570 q 257 542 229 570 q 285 475 285 514 m 475 475 q 447 408 475 435 q 380 380 419 380 q 313 408 340 380 q 285 475 285 435 q 313 542 285 514 q 380 570 340 570 q 447 542 419 570 q 475 475 475 514 m 665 475 q 637 408 665 435 q 570 380 609 380 q 503 408 530 380 q 475 475 475 435 q 503 542 475 514 q 570 570 530 570 q 637 542 609 570 q 665 475 665 514 z "},"‘":{"ha":760,"x_min":285,"x_max":475,"o":"m 475 854 q 447 787 475 815 q 380 760 419 760 q 313 787 340 760 q 285 854 285 815 q 313 922 285 894 q 380 949 340 949 q 447 922 419 949 q 475 854 475 894 m 475 665 q 447 597 475 625 q 380 570 419 570 q 313 597 340 570 q 285 665 285 625 q 313 732 285 704 q 380 760 340 760 q 447 732 419 760 q 475 665 475 704 z "},"’":{"ha":760,"x_min":285,"x_max":475,"o":"m 475 854 q 447 787 475 815 q 380 760 419 760 q 313 787 340 760 q 285 854 285 815 q 313 922 285 894 q 380 949 340 949 q 447 922 419 949 q 475 854 475 894 m 475 665 q 447 597 475 625 q 380 570 419 570 q 313 597 340 570 q 285 665 285 625 q 313 732 285 704 q 380 760 340 760 q 447 732 419 760 q 475 665 475 704 z "},"‚":{"ha":760,"x_min":285,"x_max":475,"o":"m 475 285 q 447 218 475 245 q 380 190 419 190 q 313 218 340 190 q 285 285 285 245 q 313 352 285 324 q 380 380 340 380 q 447 352 419 380 q 475 285 475 324 m 475 95 q 447 28 475 56 q 380 0 419 0 q 313 28 340 0 q 285 95 285 56 q 313 162 285 134 q 380 190 340 190 q 447 162 419 190 q 475 95 475 134 z "},"“":{"ha":760,"x_min":95,"x_max":665,"o":"m 285 854 q 257 787 285 815 q 190 760 229 760 q 123 787 151 760 q 95 854 95 815 q 123 922 95 894 q 190 949 151 949 q 257 922 229 949 q 285 854 285 894 m 665 854 q 637 787 665 815 q 570 760 609 760 q 503 787 530 760 q 475 854 475 815 q 503 922 475 894 q 570 949 530 949 q 637 922 609 949 q 665 854 665 894 m 285 665 q 257 597 285 625 q 190 570 229 570 q 123 597 151 570 q 95 665 95 625 q 123 732 95 704 q 190 760 151 760 q 257 732 229 760 q 285 665 285 704 m 665 665 q 637 597 665 625 q 570 570 609 570 q 503 597 530 570 q 475 665 475 625 q 503 732 475 704 q 570 760 530 760 q 637 732 609 760 q 665 665 665 704 z "},"”":{"ha":760,"x_min":95,"x_max":665,"o":"m 285 854 q 257 787 285 815 q 190 760 229 760 q 123 787 151 760 q 95 854 95 815 q 123 922 95 894 q 190 949 151 949 q 257 922 229 949 q 285 854 285 894 m 665 854 q 637 787 665 815 q 570 760 609 760 q 503 787 530 760 q 475 854 475 815 q 503 922 475 894 q 570 949 530 949 q 637 922 609 949 q 665 854 665 894 m 285 665 q 257 597 285 625 q 190 570 229 570 q 123 597 151 570 q 95 665 95 625 q 123 732 95 704 q 190 760 151 760 q 257 732 229 760 q 285 665 285 704 m 665 665 q 637 597 665 625 q 570 570 609 570 q 503 597 530 570 q 475 665 475 625 q 503 732 475 704 q 570 760 530 760 q 637 732 609 760 q 665 665 665 704 z "},"„":{"ha":760,"x_min":95,"x_max":665,"o":"m 285 285 q 257 218 285 245 q 190 190 229 190 q 123 218 151 190 q 95 285 95 245 q 123 352 95 324 q 190 380 151 380 q 257 352 229 380 q 285 285 285 324 m 665 285 q 637 218 665 245 q 570 190 609 190 q 503 218 530 190 q 475 285 475 245 q 503 352 475 324 q 570 380 530 380 q 637 352 609 380 q 665 285 665 324 m 285 95 q 257 28 285 56 q 190 0 229 0 q 123 28 151 0 q 95 95 95 56 q 123 162 95 134 q 190 190 151 190 q 257 162 229 190 q 285 95 285 134 m 665 95 q 637 28 665 56 q 570 0 609 0 q 503 28 530 0 q 475 95 475 56 q 503 162 475 134 q 570 190 530 190 q 637 162 609 190 q 665 95 665 134 z "},"†":{"ha":760,"x_min":95,"x_max":665,"o":"m 475 854 q 447 787 475 815 q 380 760 419 760 q 313 787 340 760 q 285 854 285 815 q 313 922 285 894 q 380 949 340 949 q 447 922 419 949 q 475 854 475 894 m 285 665 q 257 597 285 625 q 190 570 229 570 q 123 597 151 570 q 95 665 95 625 q 123 732 95 704 q 190 760 151 760 q 257 732 229 760 q 285 665 285 704 m 475 665 q 447 597 475 625 q 380 570 419 570 q 313 597 340 570 q 285 665 285 625 q 313 732 285 704 q 380 760 340 760 q 447 732 419 760 q 475 665 475 704 m 665 665 q 637 597 665 625 q 570 570 609 570 q 503 597 530 570 q 475 665 475 625 q 503 732 475 704 q 570 760 530 760 q 637 732 609 760 q 665 665 665 704 m 475 475 q 447 408 475 435 q 380 380 419 380 q 313 408 340 380 q 285 475 285 435 q 313 542 285 514 q 380 570 340 570 q 447 542 419 570 q 475 475 475 514 m 475 285 q 447 218 475 245 q 380 190 419 190 q 313 218 340 190 q 285 285 285 245 q 313 352 285 324 q 380 380 340 380 q 447 352 419 380 q 475 285 475 324 m 475 95 q 447 28 475 56 q 380 0 419 0 q 313 28 340 0 q 285 95 285 56 q 313 162 285 134 q 380 190 340 190 q 447 162 419 190 q 475 95 475 134 z "},"‡":{"ha":760,"x_min":95,"x_max":665,"o":"m 475 854 q 447 787 475 815 q 380 760 419 760 q 313 787 340 760 q 285 854 285 815 q 313 922 285 894 q 380 949 340 949 q 447 922 419 949 q 475 854 475 894 m 285 665 q 257 597 285 625 q 190 570 229 570 q 123 597 151 570 q 95 665 95 625 q 123 732 95 704 q 190 760 151 760 q 257 732 229 760 q 285 665 285 704 m 475 665 q 447 597 475 625 q 380 570 419 570 q 313 597 340 570 q 285 665 285 625 q 313 732 285 704 q 380 760 340 760 q 447 732 419 760 q 475 665 475 704 m 665 665 q 637 597 665 625 q 570 570 609 570 q 503 597 530 570 q 475 665 475 625 q 503 732 475 704 q 570 760 530 760 q 637 732 609 760 q 665 665 665 704 m 475 475 q 447 408 475 435 q 380 380 419 380 q 313 408 340 380 q 285 475 285 435 q 313 542 285 514 q 380 570 340 570 q 447 542 419 570 q 475 475 475 514 m 285 285 q 257 218 285 245 q 190 190 229 190 q 123 218 151 190 q 95 285 95 245 q 123 352 95 324 q 190 380 151 380 q 257 352 229 380 q 285 285 285 324 m 475 285 q 447 218 475 245 q 380 190 419 190 q 313 218 340 190 q 285 285 285 245 q 313 352 285 324 q 380 380 340 380 q 447 352 419 380 q 475 285 475 324 m 665 285 q 637 218 665 245 q 570 190 609 190 q 503 218 530 190 q 475 285 475 245 q 503 352 475 324 q 570 380 530 380 q 637 352 609 380 q 665 285 665 324 m 475 95 q 447 28 475 56 q 380 0 419 0 q 313 28 340 0 q 285 95 285 56 q 313 162 285 134 q 380 190 340 190 q 447 162 419 190 q 475 95 475 134 z "},"⁄":{"ha":760,"x_min":95,"x_max":665,"o":"m 665 854 q 637 787 665 815 q 570 760 609 760 q 503 787 530 760 q 475 854 475 815 q 503 922 475 894 q 570 949 530 949 q 637 922 609 949 q 665 854 665 894 m 665 665 q 637 597 665 625 q 570 570 609 570 q 503 597 530 570 q 475 665 475 625 q 503 732 475 704 q 570 760 530 760 q 637 732 609 760 q 665 665 665 704 m 475 475 q 447 408 475 435 q 380 380 419 380 q 313 408 340 380 q 285 475 285 435 q 313 542 285 514 q 380 570 340 570 q 447 542 419 570 q 475 475 475 514 m 285 285 q 257 218 285 245 q 190 190 229 190 q 123 218 151 190 q 95 285 95 245 q 123 352 95 324 q 190 380 151 380 q 257 352 229 380 q 285 285 285 324 m 285 95 q 257 28 285 56 q 190 0 229 0 q 123 28 151 0 q 95 95 95 56 q 123 162 95 134 q 190 190 151 190 q 257 162 229 190 q 285 95 285 134 z "},"∕":{"ha":760,"x_min":95,"x_max":665,"o":"m 665 854 q 637 787 665 815 q 570 760 609 760 q 503 787 530 760 q 475 854 475 815 q 503 922 475 894 q 570 949 530 949 q 637 922 609 949 q 665 854 665 894 m 665 665 q 637 597 665 625 q 570 570 609 570 q 503 597 530 570 q 475 665 475 625 q 503 732 475 704 q 570 760 530 760 q 637 732 609 760 q 665 665 665 704 m 475 475 q 447 408 475 435 q 380 380 419 380 q 313 408 340 380 q 285 475 285 435 q 313 542 285 514 q 380 570 340 570 q 447 542 419 570 q 475 475 475 514 m 285 285 q 257 218 285 245 q 190 190 229 190 q 123 218 151 190 q 95 285 95 245 q 123 352 95 324 q 190 380 151 380 q 257 352 229 380 q 285 285 285 324 m 285 95 q 257 28 285 56 q 190 0 229 0 q 123 28 151 0 q 95 95 95 56 q 123 162 95 134 q 190 190 151 190 q 257 162 229 190 q 285 95 285 134 z "},"−":{"ha":760,"x_min":95,"x_max":665,"o":"m 285 475 q 257 408 285 435 q 190 380 229 380 q 123 408 151 380 q 95 475 95 435 q 123 542 95 514 q 190 570 151 570 q 257 542 229 570 q 285 475 285 514 m 475 475 q 447 408 475 435 q 380 380 419 380 q 313 408 340 380 q 285 475 285 435 q 313 542 285 514 q 380 570 340 570 q 447 542 419 570 q 475 475 475 514 m 665 475 q 637 408 665 435 q 570 380 609 380 q 503 408 530 380 q 475 475 475 435 q 503 542 475 514 q 570 570 530 570 q 637 542 609 570 q 665 475 665 514 z "},"≤":{"ha":760,"x_min":95,"x_max":665,"o":"m 475 854 q 447 787 475 815 q 380 760 419 760 q 313 787 340 760 q 285 854 285 815 q 313 922 285 894 q 380 949 340 949 q 447 922 419 949 q 475 854 475 894 m 665 854 q 637 787 665 815 q 570 760 609 760 q 503 787 530 760 q 475 854 475 815 q 503 922 475 894 q 570 949 530 949 q 637 922 609 949 q 665 854 665 894 m 285 665 q 257 597 285 625 q 190 570 229 570 q 123 597 151 570 q 95 665 95 625 q 123 732 95 704 q 190 760 151 760 q 257 732 229 760 q 285 665 285 704 m 475 475 q 447 408 475 435 q 380 380 419 380 q 313 408 340 380 q 285 475 285 435 q 313 542 285 514 q 380 570 340 570 q 447 542 419 570 q 475 475 475 514 m 665 475 q 637 408 665 435 q 570 380 609 380 q 503 408 530 380 q 475 475 475 435 q 503 542 475 514 q 570 570 530 570 q 637 542 609 570 q 665 475 665 514 m 285 95 q 257 28 285 56 q 190 0 229 0 q 123 28 151 0 q 95 95 95 56 q 123 162 95 134 q 190 190 151 190 q 257 162 229 190 q 285 95 285 134 m 475 95 q 447 28 475 56 q 380 0 419 0 q 313 28 340 0 q 285 95 285 56 q 313 162 285 134 q 380 190 340 190 q 447 162 419 190 q 475 95 475 134 m 665 95 q 637 28 665 56 q 570 0 609 0 q 503 28 530 0 q 475 95 475 56 q 503 162 475 134 q 570 190 530 190 q 637 162 609 190 q 665 95 665 134 z "},"≥":{"ha":760,"x_min":95,"x_max":665,"o":"m 285 854 q 257 787 285 815 q 190 760 229 760 q 123 787 151 760 q 95 854 95 815 q 123 922 95 894 q 190 949 151 949 q 257 922 229 949 q 285 854 285 894 m 475 854 q 447 787 475 815 q 380 760 419 760 q 313 787 340 760 q 285 854 285 815 q 313 922 285 894 q 380 949 340 949 q 447 922 419 949 q 475 854 475 894 m 665 665 q 637 597 665 625 q 570 570 609 570 q 503 597 530 570 q 475 665 475 625 q 503 732 475 704 q 570 760 530 760 q 637 732 609 760 q 665 665 665 704 m 285 475 q 257 408 285 435 q 190 380 229 380 q 123 408 151 380 q 95 475 95 435 q 123 542 95 514 q 190 570 151 570 q 257 542 229 570 q 285 475 285 514 m 475 475 q 447 408 475 435 q 380 380 419 380 q 313 408 340 380 q 285 475 285 435 q 313 542 285 514 q 380 570 340 570 q 447 542 419 570 q 475 475 475 514 m 285 95 q 257 28 285 56 q 190 0 229 0 q 123 28 151 0 q 95 95 95 56 q 123 162 95 134 q 190 190 151 190 q 257 162 229 190 q 285 95 285 134 m 475 95 q 447 28 475 56 q 380 0 419 0 q 313 28 340 0 q 285 95 285 56 q 313 162 285 134 q 380 190 340 190 q 447 162 419 190 q 475 95 475 134 m 665 95 q 637 28 665 56 q 570 0 609 0 q 503 28 530 0 q 475 95 475 56 q 503 162 475 134 q 570 190 530 190 q 637 162 609 190 q 665 95 665 134 z "},"¯":{"ha":760,"x_min":95,"x_max":665,"o":"m 285 854 q 257 787 285 815 q 190 760 229 760 q 123 787 151 760 q 95 854 95 815 q 123 922 95 894 q 190 949 151 949 q 257 922 229 949 q 285 854 285 894 m 475 854 q 447 787 475 815 q 380 760 419 760 q 313 787 340 760 q 285 854 285 815 q 313 922 285 894 q 380 949 340 949 q 447 922 419 949 q 475 854 475 894 m 665 854 q 637 787 665 815 q 570 760 609 760 q 503 787 530 760 q 475 854 475 815 q 503 922 475 894 q 570 949 530 949 q 637 922 609 949 q 665 854 665 894 z "},"Ā":{"ha":760,"x_min":95,"x_max":665,"o":"m 285 854 q 257 787 285 815 q 190 760 229 760 q 123 787 151 760 q 95 854 95 815 q 123 922 95 894 q 190 949 151 949 q 257 922 229 949 q 285 854 285 894 m 475 854 q 447 787 475 815 q 380 760 419 760 q 313 787 340 760 q 285 854 285 815 q 313 922 285 894 q 380 949 340 949 q 447 922 419 949 q 475 854 475 894 m 665 854 q 637 787 665 815 q 570 760 609 760 q 503 787 530 760 q 475 854 475 815 q 503 922 475 894 q 570 949 530 949 q 637 922 609 949 q 665 854 665 894 m 475 665 q 447 597 475 625 q 380 570 419 570 q 313 597 340 570 q 285 665 285 625 q 313 732 285 704 q 380 760 340 760 q 447 732 419 760 q 475 665 475 704 m 285 475 q 257 408 285 435 q 190 380 229 380 q 123 408 151 380 q 95 475 95 435 q 123 542 95 514 q 190 570 151 570 q 257 542 229 570 q 285 475 285 514 m 665 475 q 637 408 665 435 q 570 380 609 380 q 503 408 530 380 q 475 475 475 435 q 503 542 475 514 q 570 570 530 570 q 637 542 609 570 q 665 475 665 514 m 285 285 q 257 218 285 245 q 190 190 229 190 q 123 218 151 190 q 95 285 95 245 q 123 352 95 324 q 190 380 151 380 q 257 352 229 380 q 285 285 285 324 m 475 285 q 447 218 475 245 q 380 190 419 190 q 313 218 340 190 q 285 285 285 245 q 313 352 285 324 q 380 380 340 380 q 447 352 419 380 q 475 285 475 324 m 665 285 q 637 218 665 245 q 570 190 609 190 q 503 218 530 190 q 475 285 475 245 q 503 352 475 324 q 570 380 530 380 q 637 352 609 380 q 665 285 665 324 m 285 95 q 257 28 285 56 q 190 0 229 0 q 123 28 151 0 q 95 95 95 56 q 123 162 95 134 q 190 190 151 190 q 257 162 229 190 q 285 95 285 134 m 665 95 q 637 28 665 56 q 570 0 609 0 q 503 28 530 0 q 475 95 475 56 q 503 162 475 134 q 570 190 530 190 q 637 162 609 190 q 665 95 665 134 z "},"ā":{"ha":760,"x_min":95,"x_max":665,"o":"m 285 854 q 257 787 285 815 q 190 760 229 760 q 123 787 151 760 q 95 854 95 815 q 123 922 95 894 q 190 949 151 949 q 257 922 229 949 q 285 854 285 894 m 475 854 q 447 787 475 815 q 380 760 419 760 q 313 787 340 760 q 285 854 285 815 q 313 922 285 894 q 380 949 340 949 q 447 922 419 949 q 475 854 475 894 m 665 854 q 637 787 665 815 q 570 760 609 760 q 503 787 530 760 q 475 854 475 815 q 503 922 475 894 q 570 949 530 949 q 637 922 609 949 q 665 854 665 894 m 475 665 q 447 597 475 625 q 380 570 419 570 q 313 597 340 570 q 285 665 285 625 q 313 732 285 704 q 380 760 340 760 q 447 732 419 760 q 475 665 475 704 m 285 475 q 257 408 285 435 q 190 380 229 380 q 123 408 151 380 q 95 475 95 435 q 123 542 95 514 q 190 570 151 570 q 257 542 229 570 q 285 475 285 514 m 665 475 q 637 408 665 435 q 570 380 609 380 q 503 408 530 380 q 475 475 475 435 q 503 542 475 514 q 570 570 530 570 q 637 542 609 570 q 665 475 665 514 m 285 285 q 257 218 285 245 q 190 190 229 190 q 123 218 151 190 q 95 285 95 245 q 123 352 95 324 q 190 380 151 380 q 257 352 229 380 q 285 285 285 324 m 475 285 q 447 218 475 245 q 380 190 419 190 q 313 218 340 190 q 285 285 285 245 q 313 352 285 324 q 380 380 340 380 q 447 352 419 380 q 475 285 475 324 m 665 285 q 637 218 665 245 q 570 190 609 190 q 503 218 530 190 q 475 285 475 245 q 503 352 475 324 q 570 380 530 380 q 637 352 609 380 q 665 285 665 324 m 285 95 q 257 28 285 56 q 190 0 229 0 q 123 28 151 0 q 95 95 95 56 q 123 162 95 134 q 190 190 151 190 q 257 162 229 190 q 285 95 285 134 m 665 95 q 637 28 665 56 q 570 0 609 0 q 503 28 530 0 q 475 95 475 56 q 503 162 475 134 q 570 190 530 190 q 637 162 609 190 q 665 95 665 134 z "},"Ī":{"ha":760,"x_min":95,"x_max":665,"o":"m 285 854 q 257 787 285 815 q 190 760 229 760 q 123 787 151 760 q 95 854 95 815 q 123 922 95 894 q 190 949 151 949 q 257 922 229 949 q 285 854 285 894 m 475 854 q 447 787 475 815 q 380 760 419 760 q 313 787 340 760 q 285 854 285 815 q 313 922 285 894 q 380 949 340 949 q 447 922 419 949 q 475 854 475 894 m 665 854 q 637 787 665 815 q 570 760 609 760 q 503 787 530 760 q 475 854 475 815 q 503 922 475 894 q 570 949 530 949 q 637 922 609 949 q 665 854 665 894 m 285 475 q 257 408 285 435 q 190 380 229 380 q 123 408 151 380 q 95 475 95 435 q 123 542 95 514 q 190 570 151 570 q 257 542 229 570 q 285 475 285 514 m 475 475 q 447 408 475 435 q 380 380 419 380 q 313 408 340 380 q 285 475 285 435 q 313 542 285 514 q 380 570 340 570 q 447 542 419 570 q 475 475 475 514 m 665 475 q 637 408 665 435 q 570 380 609 380 q 503 408 530 380 q 475 475 475 435 q 503 542 475 514 q 570 570 530 570 q 637 542 609 570 q 665 475 665 514 m 475 285 q 447 218 475 245 q 380 190 419 190 q 313 218 340 190 q 285 285 285 245 q 313 352 285 324 q 380 380 340 380 q 447 352 419 380 q 475 285 475 324 m 285 95 q 257 28 285 56 q 190 0 229 0 q 123 28 151 0 q 95 95 95 56 q 123 162 95 134 q 190 190 151 190 q 257 162 229 190 q 285 95 285 134 m 475 95 q 447 28 475 56 q 380 0 419 0 q 313 28 340 0 q 285 95 285 56 q 313 162 285 134 q 380 190 340 190 q 447 162 419 190 q 475 95 475 134 m 665 95 q 637 28 665 56 q 570 0 609 0 q 503 28 530 0 q 475 95 475 56 q 503 162 475 134 q 570 190 530 190 q 637 162 609 190 q 665 95 665 134 z "},"ī":{"ha":760,"x_min":95,"x_max":665,"o":"m 285 854 q 257 787 285 815 q 190 760 229 760 q 123 787 151 760 q 95 854 95 815 q 123 922 95 894 q 190 949 151 949 q 257 922 229 949 q 285 854 285 894 m 475 854 q 447 787 475 815 q 380 760 419 760 q 313 787 340 760 q 285 854 285 815 q 313 922 285 894 q 380 949 340 949 q 447 922 419 949 q 475 854 475 894 m 665 854 q 637 787 665 815 q 570 760 609 760 q 503 787 530 760 q 475 854 475 815 q 503 922 475 894 q 570 949 530 949 q 637 922 609 949 q 665 854 665 894 m 285 475 q 257 408 285 435 q 190 380 229 380 q 123 408 151 380 q 95 475 95 435 q 123 542 95 514 q 190 570 151 570 q 257 542 229 570 q 285 475 285 514 m 475 475 q 447 408 475 435 q 380 380 419 380 q 313 408 340 380 q 285 475 285 435 q 313 542 285 514 q 380 570 340 570 q 447 542 419 570 q 475 475 475 514 m 665 475 q 637 408 665 435 q 570 380 609 380 q 503 408 530 380 q 475 475 475 435 q 503 542 475 514 q 570 570 530 570 q 637 542 609 570 q 665 475 665 514 m 475 285 q 447 218 475 245 q 380 190 419 190 q 313 218 340 190 q 285 285 285 245 q 313 352 285 324 q 380 380 340 380 q 447 352 419 380 q 475 285 475 324 m 285 95 q 257 28 285 56 q 190 0 229 0 q 123 28 151 0 q 95 95 95 56 q 123 162 95 134 q 190 190 151 190 q 257 162 229 190 q 285 95 285 134 m 475 95 q 447 28 475 56 q 380 0 419 0 q 313 28 340 0 q 285 95 285 56 q 313 162 285 134 q 380 190 340 190 q 447 162 419 190 q 475 95 475 134 m 665 95 q 637 28 665 56 q 570 0 609 0 q 503 28 530 0 q 475 95 475 56 q 503 162 475 134 q 570 190 530 190 q 637 162 609 190 q 665 95 665 134 z "},"Ō":{"ha":760,"x_min":95,"x_max":665,"o":"m 285 854 q 257 787 285 815 q 190 760 229 760 q 123 787 151 760 q 95 854 95 815 q 123 922 95 894 q 190 949 151 949 q 257 922 229 949 q 285 854 285 894 m 475 854 q 447 787 475 815 q 380 760 419 760 q 313 787 340 760 q 285 854 285 815 q 313 922 285 894 q 380 949 340 949 q 447 922 419 949 q 475 854 475 894 m 665 854 q 637 787 665 815 q 570 760 609 760 q 503 787 530 760 q 475 854 475 815 q 503 922 475 894 q 570 949 530 949 q 637 922 609 949 q 665 854 665 894 m 475 475 q 447 408 475 435 q 380 380 419 380 q 313 408 340 380 q 285 475 285 435 q 313 542 285 514 q 380 570 340 570 q 447 542 419 570 q 475 475 475 514 m 285 285 q 257 218 285 245 q 190 190 229 190 q 123 218 151 190 q 95 285 95 245 q 123 352 95 324 q 190 380 151 380 q 257 352 229 380 q 285 285 285 324 m 665 285 q 637 218 665 245 q 570 190 609 190 q 503 218 530 190 q 475 285 475 245 q 503 352 475 324 q 570 380 530 380 q 637 352 609 380 q 665 285 665 324 m 475 95 q 447 28 475 56 q 380 0 419 0 q 313 28 340 0 q 285 95 285 56 q 313 162 285 134 q 380 190 340 190 q 447 162 419 190 q 475 95 475 134 m 285 475 q 257 408 285 435 q 190 380 229 380 q 123 408 151 380 q 95 475 95 435 q 123 542 95 514 q 190 570 151 570 q 257 542 229 570 q 285 475 285 514 m 665 475 q 637 408 665 435 q 570 380 609 380 q 503 408 530 380 q 475 475 475 435 q 503 542 475 514 q 570 570 530 570 q 637 542 609 570 q 665 475 665 514 m 285 95 q 257 28 285 56 q 190 0 229 0 q 123 28 151 0 q 95 95 95 56 q 123 162 95 134 q 190 190 151 190 q 257 162 229 190 q 285 95 285 134 m 665 95 q 637 28 665 56 q 570 0 609 0 q 503 28 530 0 q 475 95 475 56 q 503 162 475 134 q 570 190 530 190 q 637 162 609 190 q 665 95 665 134 z "},"ō":{"ha":760,"x_min":95,"x_max":665,"o":"m 285 854 q 257 787 285 815 q 190 760 229 760 q 123 787 151 760 q 95 854 95 815 q 123 922 95 894 q 190 949 151 949 q 257 922 229 949 q 285 854 285 894 m 475 854 q 447 787 475 815 q 380 760 419 760 q 313 787 340 760 q 285 854 285 815 q 313 922 285 894 q 380 949 340 949 q 447 922 419 949 q 475 854 475 894 m 665 854 q 637 787 665 815 q 570 760 609 760 q 503 787 530 760 q 475 854 475 815 q 503 922 475 894 q 570 949 530 949 q 637 922 609 949 q 665 854 665 894 m 475 475 q 447 408 475 435 q 380 380 419 380 q 313 408 340 380 q 285 475 285 435 q 313 542 285 514 q 380 570 340 570 q 447 542 419 570 q 475 475 475 514 m 285 285 q 257 218 285 245 q 190 190 229 190 q 123 218 151 190 q 95 285 95 245 q 123 352 95 324 q 190 380 151 380 q 257 352 229 380 q 285 285 285 324 m 665 285 q 637 218 665 245 q 570 190 609 190 q 503 218 530 190 q 475 285 475 245 q 503 352 475 324 q 570 380 530 380 q 637 352 609 380 q 665 285 665 324 m 475 95 q 447 28 475 56 q 380 0 419 0 q 313 28 340 0 q 285 95 285 56 q 313 162 285 134 q 380 190 340 190 q 447 162 419 190 q 475 95 475 134 m 285 475 q 257 408 285 435 q 190 380 229 380 q 123 408 151 380 q 95 475 95 435 q 123 542 95 514 q 190 570 151 570 q 257 542 229 570 q 285 475 285 514 m 665 475 q 637 408 665 435 q 570 380 609 380 q 503 408 530 380 q 475 475 475 435 q 503 542 475 514 q 570 570 530 570 q 637 542 609 570 q 665 475 665 514 m 285 95 q 257 28 285 56 q 190 0 229 0 q 123 28 151 0 q 95 95 95 56 q 123 162 95 134 q 190 190 151 190 q 257 162 229 190 q 285 95 285 134 m 665 95 q 637 28 665 56 q 570 0 609 0 q 503 28 530 0 q 475 95 475 56 q 503 162 475 134 q 570 190 530 190 q 637 162 609 190 q 665 95 665 134 z "},"Ū":{"ha":760,"x_min":95,"x_max":665,"o":"m 285 854 q 257 787 285 815 q 190 760 229 760 q 123 787 151 760 q 95 854 95 815 q 123 922 95 894 q 190 949 151 949 q 257 922 229 949 q 285 854 285 894 m 475 854 q 447 787 475 815 q 380 760 419 760 q 313 787 340 760 q 285 854 285 815 q 313 922 285 894 q 380 949 340 949 q 447 922 419 949 q 475 854 475 894 m 665 854 q 637 787 665 815 q 570 760 609 760 q 503 787 530 760 q 475 854 475 815 q 503 922 475 894 q 570 949 530 949 q 637 922 609 949 q 665 854 665 894 m 285 475 q 257 408 285 435 q 190 380 229 380 q 123 408 151 380 q 95 475 95 435 q 123 542 95 514 q 190 570 151 570 q 257 542 229 570 q 285 475 285 514 m 665 475 q 637 408 665 435 q 570 380 609 380 q 503 408 530 380 q 475 475 475 435 q 503 542 475 514 q 570 570 530 570 q 637 542 609 570 q 665 475 665 514 m 285 285 q 257 218 285 245 q 190 190 229 190 q 123 218 151 190 q 95 285 95 245 q 123 352 95 324 q 190 380 151 380 q 257 352 229 380 q 285 285 285 324 m 665 285 q 637 218 665 245 q 570 190 609 190 q 503 218 530 190 q 475 285 475 245 q 503 352 475 324 q 570 380 530 380 q 637 352 609 380 q 665 285 665 324 m 285 95 q 257 28 285 56 q 190 0 229 0 q 123 28 151 0 q 95 95 95 56 q 123 162 95 134 q 190 190 151 190 q 257 162 229 190 q 285 95 285 134 m 475 95 q 447 28 475 56 q 380 0 419 0 q 313 28 340 0 q 285 95 285 56 q 313 162 285 134 q 380 190 340 190 q 447 162 419 190 q 475 95 475 134 m 665 95 q 637 28 665 56 q 570 0 609 0 q 503 28 530 0 q 475 95 475 56 q 503 162 475 134 q 570 190 530 190 q 637 162 609 190 q 665 95 665 134 z "},"ū":{"ha":760,"x_min":95,"x_max":665,"o":"m 285 854 q 257 787 285 815 q 190 760 229 760 q 123 787 151 760 q 95 854 95 815 q 123 922 95 894 q 190 949 151 949 q 257 922 229 949 q 285 854 285 894 m 475 854 q 447 787 475 815 q 380 760 419 760 q 313 787 340 760 q 285 854 285 815 q 313 922 285 894 q 380 949 340 949 q 447 922 419 949 q 475 854 475 894 m 665 854 q 637 787 665 815 q 570 760 609 760 q 503 787 530 760 q 475 854 475 815 q 503 922 475 894 q 570 949 530 949 q 637 922 609 949 q 665 854 665 894 m 285 475 q 257 408 285 435 q 190 380 229 380 q 123 408 151 380 q 95 475 95 435 q 123 542 95 514 q 190 570 151 570 q 257 542 229 570 q 285 475 285 514 m 665 475 q 637 408 665 435 q 570 380 609 380 q 503 408 530 380 q 475 475 475 435 q 503 542 475 514 q 570 570 530 570 q 637 542 609 570 q 665 475 665 514 m 285 285 q 257 218 285 245 q 190 190 229 190 q 123 218 151 190 q 95 285 95 245 q 123 352 95 324 q 190 380 151 380 q 257 352 229 380 q 285 285 285 324 m 665 285 q 637 218 665 245 q 570 190 609 190 q 503 218 530 190 q 475 285 475 245 q 503 352 475 324 q 570 380 530 380 q 637 352 609 380 q 665 285 665 324 m 285 95 q 257 28 285 56 q 190 0 229 0 q 123 28 151 0 q 95 95 95 56 q 123 162 95 134 q 190 190 151 190 q 257 162 229 190 q 285 95 285 134 m 475 95 q 447 28 475 56 q 380 0 419 0 q 313 28 340 0 q 285 95 285 56 q 313 162 285 134 q 380 190 340 190 q 447 162 419 190 q 475 95 475 134 m 665 95 q 637 28 665 56 q 570 0 609 0 q 503 28 530 0 q 475 95 475 56 q 503 162 475 134 q 570 190 530 190 q 637 162 609 190 q 665 95 665 134 z "},"Ȳ":{"ha":760,"x_min":95,"x_max":665,"o":"m 285 854 q 257 787 285 815 q 190 760 229 760 q 123 787 151 760 q 95 854 95 815 q 123 922 95 894 q 190 949 151 949 q 257 922 229 949 q 285 854 285 894 m 475 854 q 447 787 475 815 q 380 760 419 760 q 313 787 340 760 q 285 854 285 815 q 313 922 285 894 q 380 949 340 949 q 447 922 419 949 q 475 854 475 894 m 665 854 q 637 787 665 815 q 570 760 609 760 q 503 787 530 760 q 475 854 475 815 q 503 922 475 894 q 570 949 530 949 q 637 922 609 949 q 665 854 665 894 m 285 475 q 257 408 285 435 q 190 380 229 380 q 123 408 151 380 q 95 475 95 435 q 123 542 95 514 q 190 570 151 570 q 257 542 229 570 q 285 475 285 514 m 665 475 q 637 408 665 435 q 570 380 609 380 q 503 408 530 380 q 475 475 475 435 q 503 542 475 514 q 570 570 530 570 q 637 542 609 570 q 665 475 665 514 m 475 285 q 447 218 475 245 q 380 190 419 190 q 313 218 340 190 q 285 285 285 245 q 313 352 285 324 q 380 380 340 380 q 447 352 419 380 q 475 285 475 324 m 475 95 q 447 28 475 56 q 380 0 419 0 q 313 28 340 0 q 285 95 285 56 q 313 162 285 134 q 380 190 340 190 q 447 162 419 190 q 475 95 475 134 z "},"ȳ":{"ha":760,"x_min":95,"x_max":665,"o":"m 285 854 q 257 787 285 815 q 190 760 229 760 q 123 787 151 760 q 95 854 95 815 q 123 922 95 894 q 190 949 151 949 q 257 922 229 949 q 285 854 285 894 m 475 854 q 447 787 475 815 q 380 760 419 760 q 313 787 340 760 q 285 854 285 815 q 313 922 285 894 q 380 949 340 949 q 447 922 419 949 q 475 854 475 894 m 665 854 q 637 787 665 815 q 570 760 609 760 q 503 787 530 760 q 475 854 475 815 q 503 922 475 894 q 570 949 530 949 q 637 922 609 949 q 665 854 665 894 m 285 475 q 257 408 285 435 q 190 380 229 380 q 123 408 151 380 q 95 475 95 435 q 123 542 95 514 q 190 570 151 570 q 257 542 229 570 q 285 475 285 514 m 665 475 q 637 408 665 435 q 570 380 609 380 q 503 408 530 380 q 475 475 475 435 q 503 542 475 514 q 570 570 530 570 q 637 542 609 570 q 665 475 665 514 m 475 285 q 447 218 475 245 q 380 190 419 190 q 313 218 340 190 q 285 285 285 245 q 313 352 285 324 q 380 380 340 380 q 447 352 419 380 q 475 285 475 324 m 475 95 q 447 28 475 56 q 380 0 419 0 q 313 28 340 0 q 285 95 285 56 q 313 162 285 134 q 380 190 340 190 q 447 162 419 190 q 475 95 475 134 z "},"&":{"ha":760,"x_min":95,"x_max":665,"o":"m 475 854 q 447 787 475 815 q 380 760 419 760 q 313 787 340 760 q 285 854 285 815 q 313 922 285 894 q 380 949 340 949 q 447 922 419 949 q 475 854 475 894 m 285 665 q 257 597 285 625 q 190 570 229 570 q 123 597 151 570 q 95 665 95 625 q 123 732 95 704 q 190 760 151 760 q 257 732 229 760 q 285 665 285 704 m 665 665 q 637 597 665 625 q 570 570 609 570 q 503 597 530 570 q 475 665 475 625 q 503 732 475 704 q 570 760 530 760 q 637 732 609 760 q 665 665 665 704 m 475 475 q 447 408 475 435 q 380 380 419 380 q 313 408 340 380 q 285 475 285 435 q 313 542 285 514 q 380 570 340 570 q 447 542 419 570 q 475 475 475 514 m 285 285 q 257 218 285 245 q 190 190 229 190 q 123 218 151 190 q 95 285 95 245 q 123 352 95 324 q 190 380 151 380 q 257 352 229 380 q 285 285 285 324 m 665 285 q 637 218 665 245 q 570 190 609 190 q 503 218 530 190 q 475 285 475 245 q 503 352 475 324 q 570 380 530 380 q 637 352 609 380 q 665 285 665 324 m 475 95 q 447 28 475 56 q 380 0 419 0 q 313 28 340 0 q 285 95 285 56 q 313 162 285 134 q 380 190 340 190 q 447 162 419 190 q 475 95 475 134 m 665 95 q 637 28 665 56 q 570 0 609 0 q 503 28 530 0 q 475 95 475 56 q 503 162 475 134 q 570 190 530 190 q 637 162 609 190 q 665 95 665 134 m 285 854 q 257 787 285 815 q 190 760 229 760 q 123 787 151 760 q 95 854 95 815 q 123 922 95 894 q 190 949 151 949 q 257 922 229 949 q 285 854 285 894 z "},"Ø":{"ha":760,"x_min":95,"x_max":665,"o":"m 475 854 q 447 787 475 815 q 380 760 419 760 q 313 787 340 760 q 285 854 285 815 q 313 922 285 894 q 380 949 340 949 q 447 922 419 949 q 475 854 475 894 m 285 665 q 257 597 285 625 q 190 570 229 570 q 123 597 151 570 q 95 665 95 625 q 123 732 95 704 q 190 760 151 760 q 257 732 229 760 q 285 665 285 704 m 665 665 q 637 597 665 625 q 570 570 609 570 q 503 597 530 570 q 475 665 475 625 q 503 732 475 704 q 570 760 530 760 q 637 732 609 760 q 665 665 665 704 m 285 475 q 257 408 285 435 q 190 380 229 380 q 123 408 151 380 q 95 475 95 435 q 123 542 95 514 q 190 570 151 570 q 257 542 229 570 q 285 475 285 514 m 475 475 q 447 408 475 435 q 380 380 419 380 q 313 408 340 380 q 285 475 285 435 q 313 542 285 514 q 380 570 340 570 q 447 542 419 570 q 475 475 475 514 m 665 475 q 637 408 665 435 q 570 380 609 380 q 503 408 530 380 q 475 475 475 435 q 503 542 475 514 q 570 570 530 570 q 637 542 609 570 q 665 475 665 514 m 285 285 q 257 218 285 245 q 190 190 229 190 q 123 218 151 190 q 95 285 95 245 q 123 352 95 324 q 190 380 151 380 q 257 352 229 380 q 285 285 285 324 m 665 285 q 637 218 665 245 q 570 190 609 190 q 503 218 530 190 q 475 285 475 245 q 503 352 475 324 q 570 380 530 380 q 637 352 609 380 q 665 285 665 324 m 475 95 q 447 28 475 56 q 380 0 419 0 q 313 28 340 0 q 285 95 285 56 q 313 162 285 134 q 380 190 340 190 q 447 162 419 190 q 475 95 475 134 z "},"ø":{"ha":760,"x_min":95,"x_max":665,"o":"m 475 854 q 447 787 475 815 q 380 760 419 760 q 313 787 340 760 q 285 854 285 815 q 313 922 285 894 q 380 949 340 949 q 447 922 419 949 q 475 854 475 894 m 285 665 q 257 597 285 625 q 190 570 229 570 q 123 597 151 570 q 95 665 95 625 q 123 732 95 704 q 190 760 151 760 q 257 732 229 760 q 285 665 285 704 m 665 665 q 637 597 665 625 q 570 570 609 570 q 503 597 530 570 q 475 665 475 625 q 503 732 475 704 q 570 760 530 760 q 637 732 609 760 q 665 665 665 704 m 285 475 q 257 408 285 435 q 190 380 229 380 q 123 408 151 380 q 95 475 95 435 q 123 542 95 514 q 190 570 151 570 q 257 542 229 570 q 285 475 285 514 m 475 475 q 447 408 475 435 q 380 380 419 380 q 313 408 340 380 q 285 475 285 435 q 313 542 285 514 q 380 570 340 570 q 447 542 419 570 q 475 475 475 514 m 665 475 q 637 408 665 435 q 570 380 609 380 q 503 408 530 380 q 475 475 475 435 q 503 542 475 514 q 570 570 530 570 q 637 542 609 570 q 665 475 665 514 m 285 285 q 257 218 285 245 q 190 190 229 190 q 123 218 151 190 q 95 285 95 245 q 123 352 95 324 q 190 380 151 380 q 257 352 229 380 q 285 285 285 324 m 665 285 q 637 218 665 245 q 570 190 609 190 q 503 218 530 190 q 475 285 475 245 q 503 352 475 324 q 570 380 530 380 q 637 352 609 380 q 665 285 665 324 m 475 95 q 447 28 475 56 q 380 0 419 0 q 313 28 340 0 q 285 95 285 56 q 313 162 285 134 q 380 190 340 190 q 447 162 419 190 q 475 95 475 134 z "},"Þ":{"ha":760,"x_min":95,"x_max":665,"o":"m 285 854 q 257 787 285 815 q 190 760 229 760 q 123 787 151 760 q 95 854 95 815 q 123 922 95 894 q 190 949 151 949 q 257 922 229 949 q 285 854 285 894 m 285 665 q 257 597 285 625 q 190 570 229 570 q 123 597 151 570 q 95 665 95 625 q 123 732 95 704 q 190 760 151 760 q 257 732 229 760 q 285 665 285 704 m 475 665 q 447 597 475 625 q 380 570 419 570 q 313 597 340 570 q 285 665 285 625 q 313 732 285 704 q 380 760 340 760 q 447 732 419 760 q 475 665 475 704 m 665 665 q 637 597 665 625 q 570 570 609 570 q 503 597 530 570 q 475 665 475 625 q 503 732 475 704 q 570 760 530 760 q 637 732 609 760 q 665 665 665 704 m 285 475 q 257 408 285 435 q 190 380 229 380 q 123 408 151 380 q 95 475 95 435 q 123 542 95 514 q 190 570 151 570 q 257 542 229 570 q 285 475 285 514 m 665 475 q 637 408 665 435 q 570 380 609 380 q 503 408 530 380 q 475 475 475 435 q 503 542 475 514 q 570 570 530 570 q 637 542 609 570 q 665 475 665 514 m 285 285 q 257 218 285 245 q 190 190 229 190 q 123 218 151 190 q 95 285 95 245 q 123 352 95 324 q 190 380 151 380 q 257 352 229 380 q 285 285 285 324 m 475 285 q 447 218 475 245 q 380 190 419 190 q 313 218 340 190 q 285 285 285 245 q 313 352 285 324 q 380 380 340 380 q 447 352 419 380 q 475 285 475 324 m 665 285 q 637 218 665 245 q 570 190 609 190 q 503 218 530 190 q 475 285 475 245 q 503 352 475 324 q 570 380 530 380 q 637 352 609 380 q 665 285 665 324 m 285 95 q 257 28 285 56 q 190 0 229 0 q 123 28 151 0 q 95 95 95 56 q 123 162 95 134 q 190 190 151 190 q 257 162 229 190 q 285 95 285 134 z "},"þ":{"ha":760,"x_min":95,"x_max":665,"o":"m 285 854 q 257 787 285 815 q 190 760 229 760 q 123 787 151 760 q 95 854 95 815 q 123 922 95 894 q 190 949 151 949 q 257 922 229 949 q 285 854 285 894 m 285 665 q 257 597 285 625 q 190 570 229 570 q 123 597 151 570 q 95 665 95 625 q 123 732 95 704 q 190 760 151 760 q 257 732 229 760 q 285 665 285 704 m 475 665 q 447 597 475 625 q 380 570 419 570 q 313 597 340 570 q 285 665 285 625 q 313 732 285 704 q 380 760 340 760 q 447 732 419 760 q 475 665 475 704 m 665 665 q 637 597 665 625 q 570 570 609 570 q 503 597 530 570 q 475 665 475 625 q 503 732 475 704 q 570 760 530 760 q 637 732 609 760 q 665 665 665 704 m 285 475 q 257 408 285 435 q 190 380 229 380 q 123 408 151 380 q 95 475 95 435 q 123 542 95 514 q 190 570 151 570 q 257 542 229 570 q 285 475 285 514 m 665 475 q 637 408 665 435 q 570 380 609 380 q 503 408 530 380 q 475 475 475 435 q 503 542 475 514 q 570 570 530 570 q 637 542 609 570 q 665 475 665 514 m 285 285 q 257 218 285 245 q 190 190 229 190 q 123 218 151 190 q 95 285 95 245 q 123 352 95 324 q 190 380 151 380 q 257 352 229 380 q 285 285 285 324 m 475 285 q 447 218 475 245 q 380 190 419 190 q 313 218 340 190 q 285 285 285 245 q 313 352 285 324 q 380 380 340 380 q 447 352 419 380 q 475 285 475 324 m 665 285 q 637 218 665 245 q 570 190 609 190 q 503 218 530 190 q 475 285 475 245 q 503 352 475 324 q 570 380 530 380 q 637 352 609 380 q 665 285 665 324 m 285 95 q 257 28 285 56 q 190 0 229 0 q 123 28 151 0 q 95 95 95 56 q 123 162 95 134 q 190 190 151 190 q 257 162 229 190 q 285 95 285 134 z "},"¨":{"ha":760,"x_min":95,"x_max":665,"o":"m 285 854 q 257 787 285 815 q 190 760 229 760 q 123 787 151 760 q 95 854 95 815 q 123 922 95 894 q 190 949 151 949 q 257 922 229 949 q 285 854 285 894 m 665 854 q 637 787 665 815 q 570 760 609 760 q 503 787 530 760 q 475 854 475 815 q 503 922 475 894 q 570 949 530 949 q 637 922 609 949 q 665 854 665 894 z "},"Ä":{"ha":760,"x_min":95,"x_max":665,"o":"m 285 854 q 257 787 285 815 q 190 760 229 760 q 123 787 151 760 q 95 854 95 815 q 123 922 95 894 q 190 949 151 949 q 257 922 229 949 q 285 854 285 894 m 665 854 q 637 787 665 815 q 570 760 609 760 q 503 787 530 760 q 475 854 475 815 q 503 922 475 894 q 570 949 530 949 q 637 922 609 949 q 665 854 665 894 m 475 665 q 447 597 475 625 q 380 570 419 570 q 313 597 340 570 q 285 665 285 625 q 313 732 285 704 q 380 760 340 760 q 447 732 419 760 q 475 665 475 704 m 285 475 q 257 408 285 435 q 190 380 229 380 q 123 408 151 380 q 95 475 95 435 q 123 542 95 514 q 190 570 151 570 q 257 542 229 570 q 285 475 285 514 m 665 475 q 637 408 665 435 q 570 380 609 380 q 503 408 530 380 q 475 475 475 435 q 503 542 475 514 q 570 570 530 570 q 637 542 609 570 q 665 475 665 514 m 285 285 q 257 218 285 245 q 190 190 229 190 q 123 218 151 190 q 95 285 95 245 q 123 352 95 324 q 190 380 151 380 q 257 352 229 380 q 285 285 285 324 m 475 285 q 447 218 475 245 q 380 190 419 190 q 313 218 340 190 q 285 285 285 245 q 313 352 285 324 q 380 380 340 380 q 447 352 419 380 q 475 285 475 324 m 665 285 q 637 218 665 245 q 570 190 609 190 q 503 218 530 190 q 475 285 475 245 q 503 352 475 324 q 570 380 530 380 q 637 352 609 380 q 665 285 665 324 m 285 95 q 257 28 285 56 q 190 0 229 0 q 123 28 151 0 q 95 95 95 56 q 123 162 95 134 q 190 190 151 190 q 257 162 229 190 q 285 95 285 134 m 665 95 q 637 28 665 56 q 570 0 609 0 q 503 28 530 0 q 475 95 475 56 q 503 162 475 134 q 570 190 530 190 q 637 162 609 190 q 665 95 665 134 z "},"ä":{"ha":760,"x_min":95,"x_max":665,"o":"m 285 854 q 257 787 285 815 q 190 760 229 760 q 123 787 151 760 q 95 854 95 815 q 123 922 95 894 q 190 949 151 949 q 257 922 229 949 q 285 854 285 894 m 665 854 q 637 787 665 815 q 570 760 609 760 q 503 787 530 760 q 475 854 475 815 q 503 922 475 894 q 570 949 530 949 q 637 922 609 949 q 665 854 665 894 m 475 665 q 447 597 475 625 q 380 570 419 570 q 313 597 340 570 q 285 665 285 625 q 313 732 285 704 q 380 760 340 760 q 447 732 419 760 q 475 665 475 704 m 285 475 q 257 408 285 435 q 190 380 229 380 q 123 408 151 380 q 95 475 95 435 q 123 542 95 514 q 190 570 151 570 q 257 542 229 570 q 285 475 285 514 m 665 475 q 637 408 665 435 q 570 380 609 380 q 503 408 530 380 q 475 475 475 435 q 503 542 475 514 q 570 570 530 570 q 637 542 609 570 q 665 475 665 514 m 285 285 q 257 218 285 245 q 190 190 229 190 q 123 218 151 190 q 95 285 95 245 q 123 352 95 324 q 190 380 151 380 q 257 352 229 380 q 285 285 285 324 m 475 285 q 447 218 475 245 q 380 190 419 190 q 313 218 340 190 q 285 285 285 245 q 313 352 285 324 q 380 380 340 380 q 447 352 419 380 q 475 285 475 324 m 665 285 q 637 218 665 245 q 570 190 609 190 q 503 218 530 190 q 475 285 475 245 q 503 352 475 324 q 570 380 530 380 q 637 352 609 380 q 665 285 665 324 m 285 95 q 257 28 285 56 q 190 0 229 0 q 123 28 151 0 q 95 95 95 56 q 123 162 95 134 q 190 190 151 190 q 257 162 229 190 q 285 95 285 134 m 665 95 q 637 28 665 56 q 570 0 609 0 q 503 28 530 0 q 475 95 475 56 q 503 162 475 134 q 570 190 530 190 q 637 162 609 190 q 665 95 665 134 z "},"Ï":{"ha":760,"x_min":95,"x_max":665,"o":"m 285 854 q 257 787 285 815 q 190 760 229 760 q 123 787 151 760 q 95 854 95 815 q 123 922 95 894 q 190 949 151 949 q 257 922 229 949 q 285 854 285 894 m 665 854 q 637 787 665 815 q 570 760 609 760 q 503 787 530 760 q 475 854 475 815 q 503 922 475 894 q 570 949 530 949 q 637 922 609 949 q 665 854 665 894 m 285 475 q 257 408 285 435 q 190 380 229 380 q 123 408 151 380 q 95 475 95 435 q 123 542 95 514 q 190 570 151 570 q 257 542 229 570 q 285 475 285 514 m 475 475 q 447 408 475 435 q 380 380 419 380 q 313 408 340 380 q 285 475 285 435 q 313 542 285 514 q 380 570 340 570 q 447 542 419 570 q 475 475 475 514 m 665 475 q 637 408 665 435 q 570 380 609 380 q 503 408 530 380 q 475 475 475 435 q 503 542 475 514 q 570 570 530 570 q 637 542 609 570 q 665 475 665 514 m 475 285 q 447 218 475 245 q 380 190 419 190 q 313 218 340 190 q 285 285 285 245 q 313 352 285 324 q 380 380 340 380 q 447 352 419 380 q 475 285 475 324 m 285 95 q 257 28 285 56 q 190 0 229 0 q 123 28 151 0 q 95 95 95 56 q 123 162 95 134 q 190 190 151 190 q 257 162 229 190 q 285 95 285 134 m 475 95 q 447 28 475 56 q 380 0 419 0 q 313 28 340 0 q 285 95 285 56 q 313 162 285 134 q 380 190 340 190 q 447 162 419 190 q 475 95 475 134 m 665 95 q 637 28 665 56 q 570 0 609 0 q 503 28 530 0 q 475 95 475 56 q 503 162 475 134 q 570 190 530 190 q 637 162 609 190 q 665 95 665 134 z "},"ï":{"ha":760,"x_min":95,"x_max":665,"o":"m 285 854 q 257 787 285 815 q 190 760 229 760 q 123 787 151 760 q 95 854 95 815 q 123 922 95 894 q 190 949 151 949 q 257 922 229 949 q 285 854 285 894 m 665 854 q 637 787 665 815 q 570 760 609 760 q 503 787 530 760 q 475 854 475 815 q 503 922 475 894 q 570 949 530 949 q 637 922 609 949 q 665 854 665 894 m 285 475 q 257 408 285 435 q 190 380 229 380 q 123 408 151 380 q 95 475 95 435 q 123 542 95 514 q 190 570 151 570 q 257 542 229 570 q 285 475 285 514 m 475 475 q 447 408 475 435 q 380 380 419 380 q 313 408 340 380 q 285 475 285 435 q 313 542 285 514 q 380 570 340 570 q 447 542 419 570 q 475 475 475 514 m 665 475 q 637 408 665 435 q 570 380 609 380 q 503 408 530 380 q 475 475 475 435 q 503 542 475 514 q 570 570 530 570 q 637 542 609 570 q 665 475 665 514 m 475 285 q 447 218 475 245 q 380 190 419 190 q 313 218 340 190 q 285 285 285 245 q 313 352 285 324 q 380 380 340 380 q 447 352 419 380 q 475 285 475 324 m 285 95 q 257 28 285 56 q 190 0 229 0 q 123 28 151 0 q 95 95 95 56 q 123 162 95 134 q 190 190 151 190 q 257 162 229 190 q 285 95 285 134 m 475 95 q 447 28 475 56 q 380 0 419 0 q 313 28 340 0 q 285 95 285 56 q 313 162 285 134 q 380 190 340 190 q 447 162 419 190 q 475 95 475 134 m 665 95 q 637 28 665 56 q 570 0 609 0 q 503 28 530 0 q 475 95 475 56 q 503 162 475 134 q 570 190 530 190 q 637 162 609 190 q 665 95 665 134 z "},"Ö":{"ha":760,"x_min":95,"x_max":665,"o":"m 285 854 q 257 787 285 815 q 190 760 229 760 q 123 787 151 760 q 95 854 95 815 q 123 922 95 894 q 190 949 151 949 q 257 922 229 949 q 285 854 285 894 m 665 854 q 637 787 665 815 q 570 760 609 760 q 503 787 530 760 q 475 854 475 815 q 503 922 475 894 q 570 949 530 949 q 637 922 609 949 q 665 854 665 894 m 475 475 q 447 408 475 435 q 380 380 419 380 q 313 408 340 380 q 285 475 285 435 q 313 542 285 514 q 380 570 340 570 q 447 542 419 570 q 475 475 475 514 m 285 285 q 257 218 285 245 q 190 190 229 190 q 123 218 151 190 q 95 285 95 245 q 123 352 95 324 q 190 380 151 380 q 257 352 229 380 q 285 285 285 324 m 665 285 q 637 218 665 245 q 570 190 609 190 q 503 218 530 190 q 475 285 475 245 q 503 352 475 324 q 570 380 530 380 q 637 352 609 380 q 665 285 665 324 m 475 95 q 447 28 475 56 q 380 0 419 0 q 313 28 340 0 q 285 95 285 56 q 313 162 285 134 q 380 190 340 190 q 447 162 419 190 q 475 95 475 134 m 285 475 q 257 408 285 435 q 190 380 229 380 q 123 408 151 380 q 95 475 95 435 q 123 542 95 514 q 190 570 151 570 q 257 542 229 570 q 285 475 285 514 m 665 475 q 637 408 665 435 q 570 380 609 380 q 503 408 530 380 q 475 475 475 435 q 503 542 475 514 q 570 570 530 570 q 637 542 609 570 q 665 475 665 514 m 285 95 q 257 28 285 56 q 190 0 229 0 q 123 28 151 0 q 95 95 95 56 q 123 162 95 134 q 190 190 151 190 q 257 162 229 190 q 285 95 285 134 m 665 95 q 637 28 665 56 q 570 0 609 0 q 503 28 530 0 q 475 95 475 56 q 503 162 475 134 q 570 190 530 190 q 637 162 609 190 q 665 95 665 134 z "},"ö":{"ha":760,"x_min":95,"x_max":665,"o":"m 285 854 q 257 787 285 815 q 190 760 229 760 q 123 787 151 760 q 95 854 95 815 q 123 922 95 894 q 190 949 151 949 q 257 922 229 949 q 285 854 285 894 m 665 854 q 637 787 665 815 q 570 760 609 760 q 503 787 530 760 q 475 854 475 815 q 503 922 475 894 q 570 949 530 949 q 637 922 609 949 q 665 854 665 894 m 475 475 q 447 408 475 435 q 380 380 419 380 q 313 408 340 380 q 285 475 285 435 q 313 542 285 514 q 380 570 340 570 q 447 542 419 570 q 475 475 475 514 m 285 285 q 257 218 285 245 q 190 190 229 190 q 123 218 151 190 q 95 285 95 245 q 123 352 95 324 q 190 380 151 380 q 257 352 229 380 q 285 285 285 324 m 665 285 q 637 218 665 245 q 570 190 609 190 q 503 218 530 190 q 475 285 475 245 q 503 352 475 324 q 570 380 530 380 q 637 352 609 380 q 665 285 665 324 m 475 95 q 447 28 475 56 q 380 0 419 0 q 313 28 340 0 q 285 95 285 56 q 313 162 285 134 q 380 190 340 190 q 447 162 419 190 q 475 95 475 134 m 285 475 q 257 408 285 435 q 190 380 229 380 q 123 408 151 380 q 95 475 95 435 q 123 542 95 514 q 190 570 151 570 q 257 542 229 570 q 285 475 285 514 m 665 475 q 637 408 665 435 q 570 380 609 380 q 503 408 530 380 q 475 475 475 435 q 503 542 475 514 q 570 570 530 570 q 637 542 609 570 q 665 475 665 514 m 285 95 q 257 28 285 56 q 190 0 229 0 q 123 28 151 0 q 95 95 95 56 q 123 162 95 134 q 190 190 151 190 q 257 162 229 190 q 285 95 285 134 m 665 95 q 637 28 665 56 q 570 0 609 0 q 503 28 530 0 q 475 95 475 56 q 503 162 475 134 q 570 190 530 190 q 637 162 609 190 q 665 95 665 134 z "},"Ü":{"ha":760,"x_min":95,"x_max":665,"o":"m 285 854 q 257 787 285 815 q 190 760 229 760 q 123 787 151 760 q 95 854 95 815 q 123 922 95 894 q 190 949 151 949 q 257 922 229 949 q 285 854 285 894 m 665 854 q 637 787 665 815 q 570 760 609 760 q 503 787 530 760 q 475 854 475 815 q 503 922 475 894 q 570 949 530 949 q 637 922 609 949 q 665 854 665 894 m 285 475 q 257 408 285 435 q 190 380 229 380 q 123 408 151 380 q 95 475 95 435 q 123 542 95 514 q 190 570 151 570 q 257 542 229 570 q 285 475 285 514 m 665 475 q 637 408 665 435 q 570 380 609 380 q 503 408 530 380 q 475 475 475 435 q 503 542 475 514 q 570 570 530 570 q 637 542 609 570 q 665 475 665 514 m 285 285 q 257 218 285 245 q 190 190 229 190 q 123 218 151 190 q 95 285 95 245 q 123 352 95 324 q 190 380 151 380 q 257 352 229 380 q 285 285 285 324 m 665 285 q 637 218 665 245 q 570 190 609 190 q 503 218 530 190 q 475 285 475 245 q 503 352 475 324 q 570 380 530 380 q 637 352 609 380 q 665 285 665 324 m 285 95 q 257 28 285 56 q 190 0 229 0 q 123 28 151 0 q 95 95 95 56 q 123 162 95 134 q 190 190 151 190 q 257 162 229 190 q 285 95 285 134 m 475 95 q 447 28 475 56 q 380 0 419 0 q 313 28 340 0 q 285 95 285 56 q 313 162 285 134 q 380 190 340 190 q 447 162 419 190 q 475 95 475 134 m 665 95 q 637 28 665 56 q 570 0 609 0 q 503 28 530 0 q 475 95 475 56 q 503 162 475 134 q 570 190 530 190 q 637 162 609 190 q 665 95 665 134 z "},"ü":{"ha":760,"x_min":95,"x_max":665,"o":"m 285 854 q 257 787 285 815 q 190 760 229 760 q 123 787 151 760 q 95 854 95 815 q 123 922 95 894 q 190 949 151 949 q 257 922 229 949 q 285 854 285 894 m 665 854 q 637 787 665 815 q 570 760 609 760 q 503 787 530 760 q 475 854 475 815 q 503 922 475 894 q 570 949 530 949 q 637 922 609 949 q 665 854 665 894 m 285 475 q 257 408 285 435 q 190 380 229 380 q 123 408 151 380 q 95 475 95 435 q 123 542 95 514 q 190 570 151 570 q 257 542 229 570 q 285 475 285 514 m 665 475 q 637 408 665 435 q 570 380 609 380 q 503 408 530 380 q 475 475 475 435 q 503 542 475 514 q 570 570 530 570 q 637 542 609 570 q 665 475 665 514 m 285 285 q 257 218 285 245 q 190 190 229 190 q 123 218 151 190 q 95 285 95 245 q 123 352 95 324 q 190 380 151 380 q 257 352 229 380 q 285 285 285 324 m 665 285 q 637 218 665 245 q 570 190 609 190 q 503 218 530 190 q 475 285 475 245 q 503 352 475 324 q 570 380 530 380 q 637 352 609 380 q 665 285 665 324 m 285 95 q 257 28 285 56 q 190 0 229 0 q 123 28 151 0 q 95 95 95 56 q 123 162 95 134 q 190 190 151 190 q 257 162 229 190 q 285 95 285 134 m 475 95 q 447 28 475 56 q 380 0 419 0 q 313 28 340 0 q 285 95 285 56 q 313 162 285 134 q 380 190 340 190 q 447 162 419 190 q 475 95 475 134 m 665 95 q 637 28 665 56 q 570 0 609 0 q 503 28 530 0 q 475 95 475 56 q 503 162 475 134 q 570 190 530 190 q 637 162 609 190 q 665 95 665 134 z "},"Ÿ":{"ha":760,"x_min":95,"x_max":665,"o":"m 285 854 q 257 787 285 815 q 190 760 229 760 q 123 787 151 760 q 95 854 95 815 q 123 922 95 894 q 190 949 151 949 q 257 922 229 949 q 285 854 285 894 m 665 854 q 637 787 665 815 q 570 760 609 760 q 503 787 530 760 q 475 854 475 815 q 503 922 475 894 q 570 949 530 949 q 637 922 609 949 q 665 854 665 894 m 285 475 q 257 408 285 435 q 190 380 229 380 q 123 408 151 380 q 95 475 95 435 q 123 542 95 514 q 190 570 151 570 q 257 542 229 570 q 285 475 285 514 m 665 475 q 637 408 665 435 q 570 380 609 380 q 503 408 530 380 q 475 475 475 435 q 503 542 475 514 q 570 570 530 570 q 637 542 609 570 q 665 475 665 514 m 475 285 q 447 218 475 245 q 380 190 419 190 q 313 218 340 190 q 285 285 285 245 q 313 352 285 324 q 380 380 340 380 q 447 352 419 380 q 475 285 475 324 m 475 95 q 447 28 475 56 q 380 0 419 0 q 313 28 340 0 q 285 95 285 56 q 313 162 285 134 q 380 190 340 190 q 447 162 419 190 q 475 95 475 134 z "},"ÿ":{"ha":760,"x_min":95,"x_max":665,"o":"m 285 854 q 257 787 285 815 q 190 760 229 760 q 123 787 151 760 q 95 854 95 815 q 123 922 95 894 q 190 949 151 949 q 257 922 229 949 q 285 854 285 894 m 665 854 q 637 787 665 815 q 570 760 609 760 q 503 787 530 760 q 475 854 475 815 q 503 922 475 894 q 570 949 530 949 q 637 922 609 949 q 665 854 665 894 m 285 475 q 257 408 285 435 q 190 380 229 380 q 123 408 151 380 q 95 475 95 435 q 123 542 95 514 q 190 570 151 570 q 257 542 229 570 q 285 475 285 514 m 665 475 q 637 408 665 435 q 570 380 609 380 q 503 408 530 380 q 475 475 475 435 q 503 542 475 514 q 570 570 530 570 q 637 542 609 570 q 665 475 665 514 m 475 285 q 447 218 475 245 q 380 190 419 190 q 313 218 340 190 q 285 285 285 245 q 313 352 285 324 q 380 380 340 380 q 447 352 419 380 q 475 285 475 324 m 475 95 q 447 28 475 56 q 380 0 419 0 q 313 28 340 0 q 285 95 285 56 q 313 162 285 134 q 380 190 340 190 q 447 162 419 190 q 475 95 475 134 z "},"˙":{"ha":760,"x_min":285,"x_max":475,"o":"m 475 854 q 447 787 475 815 q 380 760 419 760 q 313 787 340 760 q 285 854 285 815 q 313 922 285 894 q 380 949 340 949 q 447 922 419 949 q 475 854 475 894 z "},"Ċ":{"ha":760,"x_min":95,"x_max":665,"o":"m 475 854 q 447 787 475 815 q 380 760 419 760 q 313 787 340 760 q 285 854 285 815 q 313 922 285 894 q 380 949 340 949 q 447 922 419 949 q 475 854 475 894 m 475 665 q 447 597 475 625 q 380 570 419 570 q 313 597 340 570 q 285 665 285 625 q 313 732 285 704 q 380 760 340 760 q 447 732 419 760 q 475 665 475 704 m 665 665 q 637 597 665 625 q 570 570 609 570 q 503 597 530 570 q 475 665 475 625 q 503 732 475 704 q 570 760 530 760 q 637 732 609 760 q 665 665 665 704 m 285 475 q 257 408 285 435 q 190 380 229 380 q 123 408 151 380 q 95 475 95 435 q 123 542 95 514 q 190 570 151 570 q 257 542 229 570 q 285 475 285 514 m 285 285 q 257 218 285 245 q 190 190 229 190 q 123 218 151 190 q 95 285 95 245 q 123 352 95 324 q 190 380 151 380 q 257 352 229 380 q 285 285 285 324 m 475 95 q 447 28 475 56 q 380 0 419 0 q 313 28 340 0 q 285 95 285 56 q 313 162 285 134 q 380 190 340 190 q 447 162 419 190 q 475 95 475 134 m 665 95 q 637 28 665 56 q 570 0 609 0 q 503 28 530 0 q 475 95 475 56 q 503 162 475 134 q 570 190 530 190 q 637 162 609 190 q 665 95 665 134 z "},"ċ":{"ha":760,"x_min":95,"x_max":665,"o":"m 475 854 q 447 787 475 815 q 380 760 419 760 q 313 787 340 760 q 285 854 285 815 q 313 922 285 894 q 380 949 340 949 q 447 922 419 949 q 475 854 475 894 m 475 665 q 447 597 475 625 q 380 570 419 570 q 313 597 340 570 q 285 665 285 625 q 313 732 285 704 q 380 760 340 760 q 447 732 419 760 q 475 665 475 704 m 665 665 q 637 597 665 625 q 570 570 609 570 q 503 597 530 570 q 475 665 475 625 q 503 732 475 704 q 570 760 530 760 q 637 732 609 760 q 665 665 665 704 m 285 475 q 257 408 285 435 q 190 380 229 380 q 123 408 151 380 q 95 475 95 435 q 123 542 95 514 q 190 570 151 570 q 257 542 229 570 q 285 475 285 514 m 285 285 q 257 218 285 245 q 190 190 229 190 q 123 218 151 190 q 95 285 95 245 q 123 352 95 324 q 190 380 151 380 q 257 352 229 380 q 285 285 285 324 m 475 95 q 447 28 475 56 q 380 0 419 0 q 313 28 340 0 q 285 95 285 56 q 313 162 285 134 q 380 190 340 190 q 447 162 419 190 q 475 95 475 134 m 665 95 q 637 28 665 56 q 570 0 609 0 q 503 28 530 0 q 475 95 475 56 q 503 162 475 134 q 570 190 530 190 q 637 162 609 190 q 665 95 665 134 z "},"Ġ":{"ha":760,"x_min":95,"x_max":665,"o":"m 475 854 q 447 787 475 815 q 380 760 419 760 q 313 787 340 760 q 285 854 285 815 q 313 922 285 894 q 380 949 340 949 q 447 922 419 949 q 475 854 475 894 m 475 665 q 447 597 475 625 q 380 570 419 570 q 313 597 340 570 q 285 665 285 625 q 313 732 285 704 q 380 760 340 760 q 447 732 419 760 q 475 665 475 704 m 665 665 q 637 597 665 625 q 570 570 609 570 q 503 597 530 570 q 475 665 475 625 q 503 732 475 704 q 570 760 530 760 q 637 732 609 760 q 665 665 665 704 m 285 475 q 257 408 285 435 q 190 380 229 380 q 123 408 151 380 q 95 475 95 435 q 123 542 95 514 q 190 570 151 570 q 257 542 229 570 q 285 475 285 514 m 285 285 q 257 218 285 245 q 190 190 229 190 q 123 218 151 190 q 95 285 95 245 q 123 352 95 324 q 190 380 151 380 q 257 352 229 380 q 285 285 285 324 m 475 95 q 447 28 475 56 q 380 0 419 0 q 313 28 340 0 q 285 95 285 56 q 313 162 285 134 q 380 190 340 190 q 447 162 419 190 q 475 95 475 134 m 665 95 q 637 28 665 56 q 570 0 609 0 q 503 28 530 0 q 475 95 475 56 q 503 162 475 134 q 570 190 530 190 q 637 162 609 190 q 665 95 665 134 m 665 285 q 637 218 665 245 q 570 190 609 190 q 503 218 530 190 q 475 285 475 245 q 503 352 475 324 q 570 380 530 380 q 637 352 609 380 q 665 285 665 324 z "},"ġ":{"ha":760,"x_min":95,"x_max":665,"o":"m 475 854 q 447 787 475 815 q 380 760 419 760 q 313 787 340 760 q 285 854 285 815 q 313 922 285 894 q 380 949 340 949 q 447 922 419 949 q 475 854 475 894 m 475 665 q 447 597 475 625 q 380 570 419 570 q 313 597 340 570 q 285 665 285 625 q 313 732 285 704 q 380 760 340 760 q 447 732 419 760 q 475 665 475 704 m 665 665 q 637 597 665 625 q 570 570 609 570 q 503 597 530 570 q 475 665 475 625 q 503 732 475 704 q 570 760 530 760 q 637 732 609 760 q 665 665 665 704 m 285 475 q 257 408 285 435 q 190 380 229 380 q 123 408 151 380 q 95 475 95 435 q 123 542 95 514 q 190 570 151 570 q 257 542 229 570 q 285 475 285 514 m 285 285 q 257 218 285 245 q 190 190 229 190 q 123 218 151 190 q 95 285 95 245 q 123 352 95 324 q 190 380 151 380 q 257 352 229 380 q 285 285 285 324 m 475 95 q 447 28 475 56 q 380 0 419 0 q 313 28 340 0 q 285 95 285 56 q 313 162 285 134 q 380 190 340 190 q 447 162 419 190 q 475 95 475 134 m 665 95 q 637 28 665 56 q 570 0 609 0 q 503 28 530 0 q 475 95 475 56 q 503 162 475 134 q 570 190 530 190 q 637 162 609 190 q 665 95 665 134 m 665 285 q 637 218 665 245 q 570 190 609 190 q 503 218 530 190 q 475 285 475 245 q 503 352 475 324 q 570 380 530 380 q 637 352 609 380 q 665 285 665 324 z "},"Ȧ":{"ha":760,"x_min":95,"x_max":665,"o":"m 475 854 q 447 787 475 815 q 380 760 419 760 q 313 787 340 760 q 285 854 285 815 q 313 922 285 894 q 380 949 340 949 q 447 922 419 949 q 475 854 475 894 m 475 665 q 447 597 475 625 q 380 570 419 570 q 313 597 340 570 q 285 665 285 625 q 313 732 285 704 q 380 760 340 760 q 447 732 419 760 q 475 665 475 704 m 285 475 q 257 408 285 435 q 190 380 229 380 q 123 408 151 380 q 95 475 95 435 q 123 542 95 514 q 190 570 151 570 q 257 542 229 570 q 285 475 285 514 m 665 475 q 637 408 665 435 q 570 380 609 380 q 503 408 530 380 q 475 475 475 435 q 503 542 475 514 q 570 570 530 570 q 637 542 609 570 q 665 475 665 514 m 285 285 q 257 218 285 245 q 190 190 229 190 q 123 218 151 190 q 95 285 95 245 q 123 352 95 324 q 190 380 151 380 q 257 352 229 380 q 285 285 285 324 m 475 285 q 447 218 475 245 q 380 190 419 190 q 313 218 340 190 q 285 285 285 245 q 313 352 285 324 q 380 380 340 380 q 447 352 419 380 q 475 285 475 324 m 665 285 q 637 218 665 245 q 570 190 609 190 q 503 218 530 190 q 475 285 475 245 q 503 352 475 324 q 570 380 530 380 q 637 352 609 380 q 665 285 665 324 m 285 95 q 257 28 285 56 q 190 0 229 0 q 123 28 151 0 q 95 95 95 56 q 123 162 95 134 q 190 190 151 190 q 257 162 229 190 q 285 95 285 134 m 665 95 q 637 28 665 56 q 570 0 609 0 q 503 28 530 0 q 475 95 475 56 q 503 162 475 134 q 570 190 530 190 q 637 162 609 190 q 665 95 665 134 z "},"ȧ":{"ha":760,"x_min":95,"x_max":665,"o":"m 475 854 q 447 787 475 815 q 380 760 419 760 q 313 787 340 760 q 285 854 285 815 q 313 922 285 894 q 380 949 340 949 q 447 922 419 949 q 475 854 475 894 m 475 665 q 447 597 475 625 q 380 570 419 570 q 313 597 340 570 q 285 665 285 625 q 313 732 285 704 q 380 760 340 760 q 447 732 419 760 q 475 665 475 704 m 285 475 q 257 408 285 435 q 190 380 229 380 q 123 408 151 380 q 95 475 95 435 q 123 542 95 514 q 190 570 151 570 q 257 542 229 570 q 285 475 285 514 m 665 475 q 637 408 665 435 q 570 380 609 380 q 503 408 530 380 q 475 475 475 435 q 503 542 475 514 q 570 570 530 570 q 637 542 609 570 q 665 475 665 514 m 285 285 q 257 218 285 245 q 190 190 229 190 q 123 218 151 190 q 95 285 95 245 q 123 352 95 324 q 190 380 151 380 q 257 352 229 380 q 285 285 285 324 m 475 285 q 447 218 475 245 q 380 190 419 190 q 313 218 340 190 q 285 285 285 245 q 313 352 285 324 q 380 380 340 380 q 447 352 419 380 q 475 285 475 324 m 665 285 q 637 218 665 245 q 570 190 609 190 q 503 218 530 190 q 475 285 475 245 q 503 352 475 324 q 570 380 530 380 q 637 352 609 380 q 665 285 665 324 m 285 95 q 257 28 285 56 q 190 0 229 0 q 123 28 151 0 q 95 95 95 56 q 123 162 95 134 q 190 190 151 190 q 257 162 229 190 q 285 95 285 134 m 665 95 q 637 28 665 56 q 570 0 609 0 q 503 28 530 0 q 475 95 475 56 q 503 162 475 134 q 570 190 530 190 q 637 162 609 190 q 665 95 665 134 z "},"Ȯ":{"ha":760,"x_min":95,"x_max":665,"o":"m 475 854 q 447 787 475 815 q 380 760 419 760 q 313 787 340 760 q 285 854 285 815 q 313 922 285 894 q 380 949 340 949 q 447 922 419 949 q 475 854 475 894 m 475 475 q 447 408 475 435 q 380 380 419 380 q 313 408 340 380 q 285 475 285 435 q 313 542 285 514 q 380 570 340 570 q 447 542 419 570 q 475 475 475 514 m 285 285 q 257 218 285 245 q 190 190 229 190 q 123 218 151 190 q 95 285 95 245 q 123 352 95 324 q 190 380 151 380 q 257 352 229 380 q 285 285 285 324 m 665 285 q 637 218 665 245 q 570 190 609 190 q 503 218 530 190 q 475 285 475 245 q 503 352 475 324 q 570 380 530 380 q 637 352 609 380 q 665 285 665 324 m 475 95 q 447 28 475 56 q 380 0 419 0 q 313 28 340 0 q 285 95 285 56 q 313 162 285 134 q 380 190 340 190 q 447 162 419 190 q 475 95 475 134 m 285 475 q 257 408 285 435 q 190 380 229 380 q 123 408 151 380 q 95 475 95 435 q 123 542 95 514 q 190 570 151 570 q 257 542 229 570 q 285 475 285 514 m 665 475 q 637 408 665 435 q 570 380 609 380 q 503 408 530 380 q 475 475 475 435 q 503 542 475 514 q 570 570 530 570 q 637 542 609 570 q 665 475 665 514 m 285 95 q 257 28 285 56 q 190 0 229 0 q 123 28 151 0 q 95 95 95 56 q 123 162 95 134 q 190 190 151 190 q 257 162 229 190 q 285 95 285 134 m 665 95 q 637 28 665 56 q 570 0 609 0 q 503 28 530 0 q 475 95 475 56 q 503 162 475 134 q 570 190 530 190 q 637 162 609 190 q 665 95 665 134 z "},"ȯ":{"ha":760,"x_min":95,"x_max":665,"o":"m 475 854 q 447 787 475 815 q 380 760 419 760 q 313 787 340 760 q 285 854 285 815 q 313 922 285 894 q 380 949 340 949 q 447 922 419 949 q 475 854 475 894 m 475 475 q 447 408 475 435 q 380 380 419 380 q 313 408 340 380 q 285 475 285 435 q 313 542 285 514 q 380 570 340 570 q 447 542 419 570 q 475 475 475 514 m 285 285 q 257 218 285 245 q 190 190 229 190 q 123 218 151 190 q 95 285 95 245 q 123 352 95 324 q 190 380 151 380 q 257 352 229 380 q 285 285 285 324 m 665 285 q 637 218 665 245 q 570 190 609 190 q 503 218 530 190 q 475 285 475 245 q 503 352 475 324 q 570 380 530 380 q 637 352 609 380 q 665 285 665 324 m 475 95 q 447 28 475 56 q 380 0 419 0 q 313 28 340 0 q 285 95 285 56 q 313 162 285 134 q 380 190 340 190 q 447 162 419 190 q 475 95 475 134 m 285 475 q 257 408 285 435 q 190 380 229 380 q 123 408 151 380 q 95 475 95 435 q 123 542 95 514 q 190 570 151 570 q 257 542 229 570 q 285 475 285 514 m 665 475 q 637 408 665 435 q 570 380 609 380 q 503 408 530 380 q 475 475 475 435 q 503 542 475 514 q 570 570 530 570 q 637 542 609 570 q 665 475 665 514 m 285 95 q 257 28 285 56 q 190 0 229 0 q 123 28 151 0 q 95 95 95 56 q 123 162 95 134 q 190 190 151 190 q 257 162 229 190 q 285 95 285 134 m 665 95 q 637 28 665 56 q 570 0 609 0 q 503 28 530 0 q 475 95 475 56 q 503 162 475 134 q 570 190 530 190 q 637 162 609 190 q 665 95 665 134 z "},"¸":{"ha":760,"x_min":285,"x_max":475,"o":"m 475 95 q 447 28 475 56 q 380 0 419 0 q 313 28 340 0 q 285 95 285 56 q 313 162 285 134 q 380 190 340 190 q 447 162 419 190 q 475 95 475 134 z "},"Ç":{"ha":760,"x_min":95,"x_max":665,"o":"m 475 854 q 447 787 475 815 q 380 760 419 760 q 313 787 340 760 q 285 854 285 815 q 313 922 285 894 q 380 949 340 949 q 447 922 419 949 q 475 854 475 894 m 665 854 q 637 787 665 815 q 570 760 609 760 q 503 787 530 760 q 475 854 475 815 q 503 922 475 894 q 570 949 530 949 q 637 922 609 949 q 665 854 665 894 m 285 665 q 257 597 285 625 q 190 570 229 570 q 123 597 151 570 q 95 665 95 625 q 123 732 95 704 q 190 760 151 760 q 257 732 229 760 q 285 665 285 704 m 285 475 q 257 408 285 435 q 190 380 229 380 q 123 408 151 380 q 95 475 95 435 q 123 542 95 514 q 190 570 151 570 q 257 542 229 570 q 285 475 285 514 m 475 285 q 447 218 475 245 q 380 190 419 190 q 313 218 340 190 q 285 285 285 245 q 313 352 285 324 q 380 380 340 380 q 447 352 419 380 q 475 285 475 324 m 665 285 q 637 218 665 245 q 570 190 609 190 q 503 218 530 190 q 475 285 475 245 q 503 352 475 324 q 570 380 530 380 q 637 352 609 380 q 665 285 665 324 m 475 95 q 447 28 475 56 q 380 0 419 0 q 313 28 340 0 q 285 95 285 56 q 313 162 285 134 q 380 190 340 190 q 447 162 419 190 q 475 95 475 134 z "},"ç":{"ha":760,"x_min":95,"x_max":665,"o":"m 475 854 q 447 787 475 815 q 380 760 419 760 q 313 787 340 760 q 285 854 285 815 q 313 922 285 894 q 380 949 340 949 q 447 922 419 949 q 475 854 475 894 m 665 854 q 637 787 665 815 q 570 760 609 760 q 503 787 530 760 q 475 854 475 815 q 503 922 475 894 q 570 949 530 949 q 637 922 609 949 q 665 854 665 894 m 285 665 q 257 597 285 625 q 190 570 229 570 q 123 597 151 570 q 95 665 95 625 q 123 732 95 704 q 190 760 151 760 q 257 732 229 760 q 285 665 285 704 m 285 475 q 257 408 285 435 q 190 380 229 380 q 123 408 151 380 q 95 475 95 435 q 123 542 95 514 q 190 570 151 570 q 257 542 229 570 q 285 475 285 514 m 475 285 q 447 218 475 245 q 380 190 419 190 q 313 218 340 190 q 285 285 285 245 q 313 352 285 324 q 380 380 340 380 q 447 352 419 380 q 475 285 475 324 m 665 285 q 637 218 665 245 q 570 190 609 190 q 503 218 530 190 q 475 285 475 245 q 503 352 475 324 q 570 380 530 380 q 637 352 609 380 q 665 285 665 324 m 475 95 q 447 28 475 56 q 380 0 419 0 q 313 28 340 0 q 285 95 285 56 q 313 162 285 134 q 380 190 340 190 q 447 162 419 190 q 475 95 475 134 z "},"Ģ":{"ha":760,"x_min":95,"x_max":665,"o":"m 475 854 q 447 787 475 815 q 380 760 419 760 q 313 787 340 760 q 285 854 285 815 q 313 922 285 894 q 380 949 340 949 q 447 922 419 949 q 475 854 475 894 m 665 854 q 637 787 665 815 q 570 760 609 760 q 503 787 530 760 q 475 854 475 815 q 503 922 475 894 q 570 949 530 949 q 637 922 609 949 q 665 854 665 894 m 285 665 q 257 597 285 625 q 190 570 229 570 q 123 597 151 570 q 95 665 95 625 q 123 732 95 704 q 190 760 151 760 q 257 732 229 760 q 285 665 285 704 m 285 475 q 257 408 285 435 q 190 380 229 380 q 123 408 151 380 q 95 475 95 435 q 123 542 95 514 q 190 570 151 570 q 257 542 229 570 q 285 475 285 514 m 475 285 q 447 218 475 245 q 380 190 419 190 q 313 218 340 190 q 285 285 285 245 q 313 352 285 324 q 380 380 340 380 q 447 352 419 380 q 475 285 475 324 m 665 285 q 637 218 665 245 q 570 190 609 190 q 503 218 530 190 q 475 285 475 245 q 503 352 475 324 q 570 380 530 380 q 637 352 609 380 q 665 285 665 324 m 475 95 q 447 28 475 56 q 380 0 419 0 q 313 28 340 0 q 285 95 285 56 q 313 162 285 134 q 380 190 340 190 q 447 162 419 190 q 475 95 475 134 m 665 475 q 637 408 665 435 q 570 380 609 380 q 503 408 530 380 q 475 475 475 435 q 503 542 475 514 q 570 570 530 570 q 637 542 609 570 q 665 475 665 514 z "},"ģ":{"ha":760,"x_min":95,"x_max":665,"o":"m 475 854 q 447 787 475 815 q 380 760 419 760 q 313 787 340 760 q 285 854 285 815 q 313 922 285 894 q 380 949 340 949 q 447 922 419 949 q 475 854 475 894 m 665 854 q 637 787 665 815 q 570 760 609 760 q 503 787 530 760 q 475 854 475 815 q 503 922 475 894 q 570 949 530 949 q 637 922 609 949 q 665 854 665 894 m 285 665 q 257 597 285 625 q 190 570 229 570 q 123 597 151 570 q 95 665 95 625 q 123 732 95 704 q 190 760 151 760 q 257 732 229 760 q 285 665 285 704 m 285 475 q 257 408 285 435 q 190 380 229 380 q 123 408 151 380 q 95 475 95 435 q 123 542 95 514 q 190 570 151 570 q 257 542 229 570 q 285 475 285 514 m 475 285 q 447 218 475 245 q 380 190 419 190 q 313 218 340 190 q 285 285 285 245 q 313 352 285 324 q 380 380 340 380 q 447 352 419 380 q 475 285 475 324 m 665 285 q 637 218 665 245 q 570 190 609 190 q 503 218 530 190 q 475 285 475 245 q 503 352 475 324 q 570 380 530 380 q 637 352 609 380 q 665 285 665 324 m 475 95 q 447 28 475 56 q 380 0 419 0 q 313 28 340 0 q 285 95 285 56 q 313 162 285 134 q 380 190 340 190 q 447 162 419 190 q 475 95 475 134 m 665 475 q 637 408 665 435 q 570 380 609 380 q 503 408 530 380 q 475 475 475 435 q 503 542 475 514 q 570 570 530 570 q 637 542 609 570 q 665 475 665 514 z "},"Ļ":{"ha":760,"x_min":95,"x_max":665,"o":"m 285 854 q 257 787 285 815 q 190 760 229 760 q 123 787 151 760 q 95 854 95 815 q 123 922 95 894 q 190 949 151 949 q 257 922 229 949 q 285 854 285 894 m 285 665 q 257 597 285 625 q 190 570 229 570 q 123 597 151 570 q 95 665 95 625 q 123 732 95 704 q 190 760 151 760 q 257 732 229 760 q 285 665 285 704 m 285 475 q 257 408 285 435 q 190 380 229 380 q 123 408 151 380 q 95 475 95 435 q 123 542 95 514 q 190 570 151 570 q 257 542 229 570 q 285 475 285 514 m 285 285 q 257 218 285 245 q 190 190 229 190 q 123 218 151 190 q 95 285 95 245 q 123 352 95 324 q 190 380 151 380 q 257 352 229 380 q 285 285 285 324 m 475 95 q 447 28 475 56 q 380 0 419 0 q 313 28 340 0 q 285 95 285 56 q 313 162 285 134 q 380 190 340 190 q 447 162 419 190 q 475 95 475 134 m 475 285 q 447 218 475 245 q 380 190 419 190 q 313 218 340 190 q 285 285 285 245 q 313 352 285 324 q 380 380 340 380 q 447 352 419 380 q 475 285 475 324 m 665 285 q 637 218 665 245 q 570 190 609 190 q 503 218 530 190 q 475 285 475 245 q 503 352 475 324 q 570 380 530 380 q 637 352 609 380 q 665 285 665 324 z "},"ļ":{"ha":760,"x_min":95,"x_max":665,"o":"m 285 854 q 257 787 285 815 q 190 760 229 760 q 123 787 151 760 q 95 854 95 815 q 123 922 95 894 q 190 949 151 949 q 257 922 229 949 q 285 854 285 894 m 285 665 q 257 597 285 625 q 190 570 229 570 q 123 597 151 570 q 95 665 95 625 q 123 732 95 704 q 190 760 151 760 q 257 732 229 760 q 285 665 285 704 m 285 475 q 257 408 285 435 q 190 380 229 380 q 123 408 151 380 q 95 475 95 435 q 123 542 95 514 q 190 570 151 570 q 257 542 229 570 q 285 475 285 514 m 285 285 q 257 218 285 245 q 190 190 229 190 q 123 218 151 190 q 95 285 95 245 q 123 352 95 324 q 190 380 151 380 q 257 352 229 380 q 285 285 285 324 m 475 95 q 447 28 475 56 q 380 0 419 0 q 313 28 340 0 q 285 95 285 56 q 313 162 285 134 q 380 190 340 190 q 447 162 419 190 q 475 95 475 134 m 475 285 q 447 218 475 245 q 380 190 419 190 q 313 218 340 190 q 285 285 285 245 q 313 352 285 324 q 380 380 340 380 q 447 352 419 380 q 475 285 475 324 m 665 285 q 637 218 665 245 q 570 190 609 190 q 503 218 530 190 q 475 285 475 245 q 503 352 475 324 q 570 380 530 380 q 637 352 609 380 q 665 285 665 324 z "},"Ţ":{"ha":760,"x_min":95,"x_max":665,"o":"m 285 854 q 257 787 285 815 q 190 760 229 760 q 123 787 151 760 q 95 854 95 815 q 123 922 95 894 q 190 949 151 949 q 257 922 229 949 q 285 854 285 894 m 475 854 q 447 787 475 815 q 380 760 419 760 q 313 787 340 760 q 285 854 285 815 q 313 922 285 894 q 380 949 340 949 q 447 922 419 949 q 475 854 475 894 m 665 854 q 637 787 665 815 q 570 760 609 760 q 503 787 530 760 q 475 854 475 815 q 503 922 475 894 q 570 949 530 949 q 637 922 609 949 q 665 854 665 894 m 475 665 q 447 597 475 625 q 380 570 419 570 q 313 597 340 570 q 285 665 285 625 q 313 732 285 704 q 380 760 340 760 q 447 732 419 760 q 475 665 475 704 m 475 475 q 447 408 475 435 q 380 380 419 380 q 313 408 340 380 q 285 475 285 435 q 313 542 285 514 q 380 570 340 570 q 447 542 419 570 q 475 475 475 514 m 475 95 q 447 28 475 56 q 380 0 419 0 q 313 28 340 0 q 285 95 285 56 q 313 162 285 134 q 380 190 340 190 q 447 162 419 190 q 475 95 475 134 z "},"ţ":{"ha":760,"x_min":95,"x_max":665,"o":"m 285 854 q 257 787 285 815 q 190 760 229 760 q 123 787 151 760 q 95 854 95 815 q 123 922 95 894 q 190 949 151 949 q 257 922 229 949 q 285 854 285 894 m 475 854 q 447 787 475 815 q 380 760 419 760 q 313 787 340 760 q 285 854 285 815 q 313 922 285 894 q 380 949 340 949 q 447 922 419 949 q 475 854 475 894 m 665 854 q 637 787 665 815 q 570 760 609 760 q 503 787 530 760 q 475 854 475 815 q 503 922 475 894 q 570 949 530 949 q 637 922 609 949 q 665 854 665 894 m 475 665 q 447 597 475 625 q 380 570 419 570 q 313 597 340 570 q 285 665 285 625 q 313 732 285 704 q 380 760 340 760 q 447 732 419 760 q 475 665 475 704 m 475 475 q 447 408 475 435 q 380 380 419 380 q 313 408 340 380 q 285 475 285 435 q 313 542 285 514 q 380 570 340 570 q 447 542 419 570 q 475 475 475 514 m 475 95 q 447 28 475 56 q 380 0 419 0 q 313 28 340 0 q 285 95 285 56 q 313 162 285 134 q 380 190 340 190 q 447 162 419 190 q 475 95 475 134 z "},"Ț":{"ha":760,"x_min":95,"x_max":665,"o":"m 285 854 q 257 787 285 815 q 190 760 229 760 q 123 787 151 760 q 95 854 95 815 q 123 922 95 894 q 190 949 151 949 q 257 922 229 949 q 285 854 285 894 m 475 854 q 447 787 475 815 q 380 760 419 760 q 313 787 340 760 q 285 854 285 815 q 313 922 285 894 q 380 949 340 949 q 447 922 419 949 q 475 854 475 894 m 665 854 q 637 787 665 815 q 570 760 609 760 q 503 787 530 760 q 475 854 475 815 q 503 922 475 894 q 570 949 530 949 q 637 922 609 949 q 665 854 665 894 m 475 665 q 447 597 475 625 q 380 570 419 570 q 313 597 340 570 q 285 665 285 625 q 313 732 285 704 q 380 760 340 760 q 447 732 419 760 q 475 665 475 704 m 475 475 q 447 408 475 435 q 380 380 419 380 q 313 408 340 380 q 285 475 285 435 q 313 542 285 514 q 380 570 340 570 q 447 542 419 570 q 475 475 475 514 m 475 95 q 447 28 475 56 q 380 0 419 0 q 313 28 340 0 q 285 95 285 56 q 313 162 285 134 q 380 190 340 190 q 447 162 419 190 q 475 95 475 134 z "},"ț":{"ha":760,"x_min":95,"x_max":665,"o":"m 285 854 q 257 787 285 815 q 190 760 229 760 q 123 787 151 760 q 95 854 95 815 q 123 922 95 894 q 190 949 151 949 q 257 922 229 949 q 285 854 285 894 m 475 854 q 447 787 475 815 q 380 760 419 760 q 313 787 340 760 q 285 854 285 815 q 313 922 285 894 q 380 949 340 949 q 447 922 419 949 q 475 854 475 894 m 665 854 q 637 787 665 815 q 570 760 609 760 q 503 787 530 760 q 475 854 475 815 q 503 922 475 894 q 570 949 530 949 q 637 922 609 949 q 665 854 665 894 m 475 665 q 447 597 475 625 q 380 570 419 570 q 313 597 340 570 q 285 665 285 625 q 313 732 285 704 q 380 760 340 760 q 447 732 419 760 q 475 665 475 704 m 475 475 q 447 408 475 435 q 380 380 419 380 q 313 408 340 380 q 285 475 285 435 q 313 542 285 514 q 380 570 340 570 q 447 542 419 570 q 475 475 475 514 m 475 95 q 447 28 475 56 q 380 0 419 0 q 313 28 340 0 q 285 95 285 56 q 313 162 285 134 q 380 190 340 190 q 447 162 419 190 q 475 95 475 134 z "},"ǀ":{"ha":760,"x_min":285,"x_max":475,"o":"m 475 854 q 447 787 475 815 q 380 760 419 760 q 313 787 340 760 q 285 854 285 815 q 313 922 285 894 q 380 949 340 949 q 447 922 419 949 q 475 854 475 894 m 475 665 q 447 597 475 625 q 380 570 419 570 q 313 597 340 570 q 285 665 285 625 q 313 732 285 704 q 380 760 340 760 q 447 732 419 760 q 475 665 475 704 m 475 475 q 447 408 475 435 q 380 380 419 380 q 313 408 340 380 q 285 475 285 435 q 313 542 285 514 q 380 570 340 570 q 447 542 419 570 q 475 475 475 514 m 475 285 q 447 218 475 245 q 380 190 419 190 q 313 218 340 190 q 285 285 285 245 q 313 352 285 324 q 380 380 340 380 q 447 352 419 380 q 475 285 475 324 m 475 95 q 447 28 475 56 q 380 0 419 0 q 313 28 340 0 q 285 95 285 56 q 313 162 285 134 q 380 190 340 190 q 447 162 419 190 q 475 95 475 134 z "},"ǁ":{"ha":760,"x_min":95,"x_max":665,"o":"m 285 854 q 257 787 285 815 q 190 760 229 760 q 123 787 151 760 q 95 854 95 815 q 123 922 95 894 q 190 949 151 949 q 257 922 229 949 q 285 854 285 894 m 665 854 q 637 787 665 815 q 570 760 609 760 q 503 787 530 760 q 475 854 475 815 q 503 922 475 894 q 570 949 530 949 q 637 922 609 949 q 665 854 665 894 m 285 665 q 257 597 285 625 q 190 570 229 570 q 123 597 151 570 q 95 665 95 625 q 123 732 95 704 q 190 760 151 760 q 257 732 229 760 q 285 665 285 704 m 665 665 q 637 597 665 625 q 570 570 609 570 q 503 597 530 570 q 475 665 475 625 q 503 732 475 704 q 570 760 530 760 q 637 732 609 760 q 665 665 665 704 m 285 475 q 257 408 285 435 q 190 380 229 380 q 123 408 151 380 q 95 475 95 435 q 123 542 95 514 q 190 570 151 570 q 257 542 229 570 q 285 475 285 514 m 665 475 q 637 408 665 435 q 570 380 609 380 q 503 408 530 380 q 475 475 475 435 q 503 542 475 514 q 570 570 530 570 q 637 542 609 570 q 665 475 665 514 m 285 285 q 257 218 285 245 q 190 190 229 190 q 123 218 151 190 q 95 285 95 245 q 123 352 95 324 q 190 380 151 380 q 257 352 229 380 q 285 285 285 324 m 665 285 q 637 218 665 245 q 570 190 609 190 q 503 218 530 190 q 475 285 475 245 q 503 352 475 324 q 570 380 530 380 q 637 352 609 380 q 665 285 665 324 m 285 95 q 257 28 285 56 q 190 0 229 0 q 123 28 151 0 q 95 95 95 56 q 123 162 95 134 q 190 190 151 190 q 257 162 229 190 q 285 95 285 134 m 665 95 q 637 28 665 56 q 570 0 609 0 q 503 28 530 0 q 475 95 475 56 q 503 162 475 134 q 570 190 530 190 q 637 162 609 190 q 665 95 665 134 z "},"ǂ":{"ha":760,"x_min":95,"x_max":665,"o":"m 475 854 q 447 787 475 815 q 380 760 419 760 q 313 787 340 760 q 285 854 285 815 q 313 922 285 894 q 380 949 340 949 q 447 922 419 949 q 475 854 475 894 m 285 665 q 257 597 285 625 q 190 570 229 570 q 123 597 151 570 q 95 665 95 625 q 123 732 95 704 q 190 760 151 760 q 257 732 229 760 q 285 665 285 704 m 475 665 q 447 597 475 625 q 380 570 419 570 q 313 597 340 570 q 285 665 285 625 q 313 732 285 704 q 380 760 340 760 q 447 732 419 760 q 475 665 475 704 m 665 665 q 637 597 665 625 q 570 570 609 570 q 503 597 530 570 q 475 665 475 625 q 503 732 475 704 q 570 760 530 760 q 637 732 609 760 q 665 665 665 704 m 475 475 q 447 408 475 435 q 380 380 419 380 q 313 408 340 380 q 285 475 285 435 q 313 542 285 514 q 380 570 340 570 q 447 542 419 570 q 475 475 475 514 m 285 285 q 257 218 285 245 q 190 190 229 190 q 123 218 151 190 q 95 285 95 245 q 123 352 95 324 q 190 380 151 380 q 257 352 229 380 q 285 285 285 324 m 475 285 q 447 218 475 245 q 380 190 419 190 q 313 218 340 190 q 285 285 285 245 q 313 352 285 324 q 380 380 340 380 q 447 352 419 380 q 475 285 475 324 m 665 285 q 637 218 665 245 q 570 190 609 190 q 503 218 530 190 q 475 285 475 245 q 503 352 475 324 q 570 380 530 380 q 637 352 609 380 q 665 285 665 324 m 475 95 q 447 28 475 56 q 380 0 419 0 q 313 28 340 0 q 285 95 285 56 q 313 162 285 134 q 380 190 340 190 q 447 162 419 190 q 475 95 475 134 z "},"ǃ":{"ha":760,"x_min":285,"x_max":475,"o":"m 475 854 q 447 787 475 815 q 380 760 419 760 q 313 787 340 760 q 285 854 285 815 q 313 922 285 894 q 380 949 340 949 q 447 922 419 949 q 475 854 475 894 m 475 665 q 447 597 475 625 q 380 570 419 570 q 313 597 340 570 q 285 665 285 625 q 313 732 285 704 q 380 760 340 760 q 447 732 419 760 q 475 665 475 704 m 475 475 q 447 408 475 435 q 380 380 419 380 q 313 408 340 380 q 285 475 285 435 q 313 542 285 514 q 380 570 340 570 q 447 542 419 570 q 475 475 475 514 m 475 95 q 447 28 475 56 q 380 0 419 0 q 313 28 340 0 q 285 95 285 56 q 313 162 285 134 q 380 190 340 190 q 447 162 419 190 q 475 95 475 134 z "}}}
